<svg id="Layer_1" data-name="Layer 1" xmlns="http://www.w3.org/2000/svg" xmlns:xlink="http://www.w3.org/1999/xlink" viewBox="0 0 1982.49 632.88"><defs><style>.cls-1{fill:#f0f5f7;stroke:#1d1d1b;stroke-miterlimit:10;stroke-width:10px;}.cls-2{fill:#333;}.cls-3{fill:url(#linear-gradient);}.cls-4{fill:url(#linear-gradient-2);}.cls-5{fill:url(#linear-gradient-3);}.cls-6{fill:url(#linear-gradient-4);}</style><linearGradient id="linear-gradient" x1="185.68" y1="5.64" x2="500.23" y2="264.07" gradientUnits="userSpaceOnUse"><stop offset="0" stop-color="#32a071"/><stop offset="0.07" stop-color="#2da771"/><stop offset="0.48" stop-color="#15cf74"/><stop offset="0.8" stop-color="#06e775"/><stop offset="1" stop-color="#00f076"/></linearGradient><linearGradient id="linear-gradient-2" x1="611.69" y1="320.66" x2="376.82" y2="322.04" gradientUnits="userSpaceOnUse"><stop offset="0" stop-color="#00a0ff"/><stop offset="0.01" stop-color="#00a1ff"/><stop offset="0.26" stop-color="#00beff"/><stop offset="0.51" stop-color="#00d2ff"/><stop offset="0.76" stop-color="#00dfff"/><stop offset="1" stop-color="#00e3ff"/></linearGradient><linearGradient id="linear-gradient-3" x1="644.59" y1="328.51" x2="432.58" y2="311.88" gradientUnits="userSpaceOnUse"><stop offset="0" stop-color="#ffe000"/><stop offset="0.41" stop-color="#ffbd00"/><stop offset="0.78" stop-color="orange"/><stop offset="1" stop-color="#ff9c00"/></linearGradient><linearGradient id="linear-gradient-4" x1="616.98" y1="296.13" x2="208.9" y2="567.03" gradientUnits="userSpaceOnUse"><stop offset="0" stop-color="#ff3a44"/><stop offset="1" stop-color="#c31162"/></linearGradient></defs><rect class="cls-1" x="72.52" y="33.57" width="1837.46" height="565.73" rx="134.96"/><path class="cls-2" d="M777.21,225.85q0,12.9-7.65,20.56-8.68,9.1-22.62,9.11a32.35,32.35,0,0,1-22.66-55.08,31,31,0,0,1,22.66-9.25,31.93,31.93,0,0,1,12.64,2.58,25.55,25.55,0,0,1,9.63,6.88l-5.41,5.42q-6.12-7.31-16.86-7.31a23.42,23.42,0,0,0-16.82,6.84q-7.1,6.84-7.09,17.76t7.09,17.76a24.54,24.54,0,0,0,34,0c3-3,4.7-7.14,5.16-12.48H746.94v-7.39h29.83A25.24,25.24,0,0,1,777.21,225.85Z"/><path class="cls-2" d="M824.51,200.14h-28v19.52h25.28v7.4H796.47v19.52h28v7.56h-36V192.57h36Z"/><path class="cls-2" d="M857.87,254.14H850v-54H832.76v-7.57h42.31v7.57h-17.2Z"/><path class="cls-2" d="M905.68,254.14V192.57h7.91v61.57Z"/><path class="cls-2" d="M948.69,254.14h-7.92v-54h-17.2v-7.57h42.31v7.57H948.69Z"/><path class="cls-2" d="M1046,246.19a32,32,0,0,1-45.14,0,33.27,33.27,0,0,1,0-45.66,31.84,31.84,0,0,1,45.1,0,33.16,33.16,0,0,1,0,45.62Zm-39.3-5.16a23.67,23.67,0,0,0,33.45,0q6.84-6.92,6.85-17.67t-6.85-17.68a23.67,23.67,0,0,0-33.45,0q-6.82,6.93-6.84,17.68T1006.68,241Z"/><path class="cls-2" d="M1066.16,254.14V192.57h9.63l29.92,47.9h.34l-.34-11.87v-36h7.92v61.57h-8.26l-31.31-50.21h-.34l.34,11.86v38.35Z"/><path class="cls-2" d="M989.81,344a44,44,0,0,0-31.14,12.51,44.44,44.44,0,0,0,1.55,63.66,45,45,0,0,0,57.76,1.22,43.06,43.06,0,0,0,15.65-33.75A43,43,0,0,0,989.81,344Zm0,70.1c-13.22,0-24.63-10.92-24.63-26.46,0-15.7,11.41-26.45,24.63-26.45s24.64,10.75,24.64,26.45C1014.45,403.14,1003,414.06,989.81,414.06ZM894.24,344a44.6,44.6,0,0,0-24.47,7.14c-11.66,7.6-19.35,20.69-19.35,36.5a43.19,43.19,0,0,0,12.86,31.25,45,45,0,0,0,57.6,3.7,43,43,0,0,0,17.17-34.95,44,44,0,0,0-5.94-22.45C924.51,352.15,910.37,344,894.24,344Zm0,70.1c-13.23,0-24.64-10.92-24.64-26.46,0-15.7,11.41-26.45,24.64-26.45s24.63,10.75,24.63,26.45C918.87,403.14,907.46,414.06,894.24,414.06Zm-113.7-56.71v18.51h44.31c-1.32,10.42-4.79,18-10.08,23.32-6.45,6.44-16.54,13.55-34.23,13.55-27.28,0-48.6-22-48.6-49.27s21.32-49.26,48.6-49.26a47.22,47.22,0,0,1,33.4,13.22L827,314.36c-11.08-10.58-25.79-18.68-46.46-18.68a68.74,68.74,0,0,0-35,9.61c-20.06,11.86-33.75,33.5-33.75,58.17,0,25.45,14.57,47.68,35.67,59.27a68.62,68.62,0,0,0,33.1,8.52c20.17,0,35.38-6.61,47.29-19,12.23-12.24,16-29.43,16-43.32a60.37,60.37,0,0,0-1-11.57H780.54Zm465,14.38c-3.64-9.75-14.72-27.77-37.37-27.77a40.34,40.34,0,0,0-25.72,9.07C1173,360.71,1167,372.81,1167,387.6c0,24.47,18.51,43.65,43.31,43.65a43.42,43.42,0,0,0,36.37-19.34L1231.78,402c-5,7.27-11.73,12.07-21.49,12.07s-16.7-4.47-21.16-13.23l58.36-24.14ZM1186,386.28c-.5-16.86,13.06-25.46,22.81-25.46,7.61,0,14.06,3.8,16.21,9.26l-20.39,8.46Zm-47.45,42.32h19.18V300.31h-19.18Zm-31.41-74.89h-.66c-4.3-5.12-12.57-9.75-23-9.75a40.82,40.82,0,0,0-27.3,10.94,44.17,44.17,0,0,0,4.48,69,40.24,40.24,0,0,0,22.82,7.31c10.42,0,18.69-4.63,23-9.92h.66v6.28c0,16.7-8.93,25.63-23.32,25.63-11.73,0-19-8.43-22-15.54l-16.7,6.94c4.79,11.57,17.52,25.79,38.68,25.79,22.49,0,41.5-13.22,41.5-45.46V346.6h-18.18Zm-22,60.35c-13.23,0-24.31-11.08-24.31-26.29,0-15.38,11.08-26.62,24.31-26.62,13.06,0,23.31,11.24,23.31,26.62C1108.45,403,1098.2,414.06,1085.14,414.06Zm250.2-113.75h-45.88V428.6h19.14V380h26.74A43.85,43.85,0,0,0,1367.7,366a39.05,39.05,0,0,0,.25-51.3A43.78,43.78,0,0,0,1335.34,300.31Zm.5,61.83H1308.6v-44h27.24a22.22,22.22,0,0,1,22.44,22C1358.28,350.1,1350.15,362.14,1335.84,362.14Zm118.34-18.42c-13.87,0-28.23,6.11-34.17,19.64l17,7.1c3.63-7.1,10.4-9.41,17.5-9.41,9.9,0,20,5.94,20.13,16.5v1.33a42.2,42.2,0,0,0-20-5,46.45,46.45,0,0,0-22.31,5.49c-8.6,4.79-14.66,12.68-14.66,23.4a26.41,26.41,0,0,0,11.15,21.75,35.13,35.13,0,0,0,20.71,6.47c12.87,0,20-5.78,24.42-12.54h.66v9.9h18.49V379.21c0-13.53-6-23.5-15.45-29.37C1471.2,345.82,1463.1,343.72,1454.18,343.72ZM1451.87,414c-6.28,0-15-3.13-15-10.89,0-9.9,10.89-13.7,20.3-13.7,8.42,0,12.38,1.81,17.49,4.29A23.2,23.2,0,0,1,1451.87,414Zm108.6-67.5-9.09,23-12.86,32.6h-.66l-22.78-55.62h-20.63L1510.93,384l17.68,40.24-19.47,43.25h20l37.35-85.83,15.3-35.15ZM1388,428.6h19.15V300.31H1388Z"/><path class="cls-3" d="M566.59,277.6l-152.5-89.48a16.6,16.6,0,0,0-21.78,4.48L521.46,322.51Z"/><path class="cls-4" d="M389.09,441.83a16.41,16.41,0,0,0,2.94,9.48l129.43-128.8L392.31,192.6a16.34,16.34,0,0,0-3.22,9.84Z"/><path class="cls-5" d="M565.82,367.12l52.27-30.66a16.61,16.61,0,0,0,0-28.64l-51.5-30.22-45.13,44.91Z"/><path class="cls-6" d="M392,451.31a16.62,16.62,0,0,0,22.06,4.84l151.73-89-44.36-44.61Z"/></svg>