<svg id="Layer_1" data-name="Layer 1" xmlns="http://www.w3.org/2000/svg" xmlns:xlink="http://www.w3.org/1999/xlink" viewBox="0 0 105.28 105.28"><defs><style>.cls-1{fill:url(#linear-gradient);}.cls-2{fill:url(#linear-gradient-2);}.cls-3{fill:url(#linear-gradient-3);}.cls-4{fill:url(#linear-gradient-4);}.cls-5{fill:url(#linear-gradient-5);}.cls-6{fill:url(#linear-gradient-6);}.cls-7{fill:url(#linear-gradient-7);}.cls-8{fill:url(#linear-gradient-8);}.cls-9{fill:url(#linear-gradient-9);}.cls-10{fill:url(#linear-gradient-10);}.cls-11{fill:url(#linear-gradient-11);}.cls-12{fill:url(#linear-gradient-12);}.cls-13{fill:url(#linear-gradient-13);}.cls-14{fill:url(#linear-gradient-14);}.cls-15{fill:url(#linear-gradient-15);}.cls-16{fill:url(#linear-gradient-16);}.cls-17{fill:url(#linear-gradient-17);}.cls-18{fill:url(#linear-gradient-18);}.cls-19{fill:url(#linear-gradient-19);}.cls-20{fill:url(#linear-gradient-20);}.cls-21{fill:url(#linear-gradient-21);}.cls-22{fill:url(#linear-gradient-22);}.cls-23{fill:none;clip-rule:evenodd;}.cls-24{clip-path:url(#clip-path);}.cls-25{fill:url(#linear-gradient-23);}.cls-26{clip-path:url(#clip-path-2);}.cls-27{fill:url(#linear-gradient-24);}.cls-28{clip-path:url(#clip-path-3);}.cls-29{fill:url(#linear-gradient-25);}.cls-30{clip-path:url(#clip-path-4);}.cls-31{fill:url(#linear-gradient-26);}.cls-32{mask:url(#mask);}.cls-33{fill:#f1c20f;}.cls-33,.cls-35,.cls-37,.cls-39,.cls-41,.cls-43,.cls-45,.cls-47,.cls-49,.cls-51,.cls-53,.cls-55,.cls-61,.cls-65,.cls-67,.cls-70{fill-rule:evenodd;}.cls-34{mask:url(#mask-2);}.cls-35{fill:#6e248d;}.cls-36{mask:url(#mask-3);}.cls-37{fill:#0a4792;}.cls-38{mask:url(#mask-4);}.cls-39{fill:#22b6f2;}.cls-40{mask:url(#mask-5);}.cls-41{fill:#003780;}.cls-42{mask:url(#mask-6);}.cls-43{fill:#a70c00;}.cls-44{mask:url(#mask-7);}.cls-45{fill:#34326d;}.cls-46{mask:url(#mask-8);}.cls-47{fill:#102770;}.cls-48{mask:url(#mask-9);}.cls-49{fill:#fde3a7;}.cls-50{mask:url(#mask-10);}.cls-51{fill:#ffbcd8;}.cls-52{mask:url(#mask-11);}.cls-53{fill:#dcc6e0;}.cls-54{mask:url(#mask-12);}.cls-55{fill:#39d5ff;}.cls-56{mask:url(#mask-13);}.cls-57{mask:url(#mask-14);}.cls-58{mask:url(#mask-15);}.cls-59{mask:url(#mask-16);}.cls-60{mask:url(#mask-17);}.cls-61{fill:#ffcf4b;}.cls-62{clip-path:url(#clip-path-5);}.cls-63{fill:url(#linear-gradient-27);}.cls-64{mask:url(#mask-18);}.cls-65{fill:#290391;}.cls-66{mask:url(#mask-19);}.cls-67{fill:#ffc2ff;}.cls-68{mask:url(#mask-20);}.cls-69{mask:url(#mask-21);}.cls-70{fill:#fff;}.cls-71{clip-path:url(#clip-path-6);}.cls-72{mask:url(#mask-22);}.cls-73{fill:url(#linear-gradient-28);}</style><linearGradient id="linear-gradient" x1="-809.13" y1="1048.97" x2="-770.66" y2="1085.76" gradientTransform="translate(840.04 -1039.21)" gradientUnits="userSpaceOnUse"><stop offset="0" stop-color="#fff"/><stop offset="1"/></linearGradient><linearGradient id="linear-gradient-2" x1="-842.42" y1="939.3" x2="-821" y2="908.97" gradientTransform="translate(897.54 -877.13)" xlink:href="#linear-gradient"/><linearGradient id="linear-gradient-3" x1="-796.7" y1="913.62" x2="-853.5" y2="920.99" gradientTransform="translate(897.54 -848)" xlink:href="#linear-gradient"/><linearGradient id="linear-gradient-4" x1="-687.91" y1="819.99" x2="-686.86" y2="853.05" gradientTransform="translate(723 -771.03)" xlink:href="#linear-gradient"/><linearGradient id="linear-gradient-5" x1="-824.3" y1="1305.04" x2="-774.47" y2="1326.47" gradientTransform="translate(840.04 -1293.55)" xlink:href="#linear-gradient"/><linearGradient id="linear-gradient-6" x1="-1096.35" y1="1001.04" x2="-1107.21" y2="1033.88" gradientTransform="translate(1183.57 -973.72)" xlink:href="#linear-gradient"/><linearGradient id="linear-gradient-7" x1="-606.33" y1="985.98" x2="-597.37" y2="960.68" gradientTransform="translate(628.61 -911.64)" xlink:href="#linear-gradient"/><linearGradient id="linear-gradient-8" x1="-772.03" y1="829.55" x2="-808.66" y2="815.75" gradientTransform="translate(854.05 -739.82)" xlink:href="#linear-gradient"/><linearGradient id="linear-gradient-9" x1="-568.62" y1="1307.05" x2="-534.29" y2="1348.36" gradientTransform="translate(585.28 -1313.05)" xlink:href="#linear-gradient"/><linearGradient id="linear-gradient-10" x1="-3771.8" y1="81.25" x2="-3812.77" y2="149.23" gradientTransform="translate(3862.08 -88.96)" xlink:href="#linear-gradient"/><linearGradient id="linear-gradient-11" x1="-3757.11" y1="267.12" x2="-3810.37" y2="163.9" gradientTransform="translate(3862.08 -118.05)" xlink:href="#linear-gradient"/><linearGradient id="linear-gradient-12" x1="-3843.21" y1="232.03" x2="-3818.56" y2="164.08" gradientTransform="translate(3874.68 -118.67)" xlink:href="#linear-gradient"/><linearGradient id="linear-gradient-13" x1="-710.32" y1="778.28" x2="-664.63" y2="807.41" gradientTransform="translate(740.56 -726.95)" xlink:href="#linear-gradient"/><linearGradient id="linear-gradient-14" x1="-3810.16" y1="180.79" x2="-3822.79" y2="144.85" gradientTransform="translate(3875.2 -100.08)" xlink:href="#linear-gradient"/><linearGradient id="linear-gradient-15" x1="-3810.32" y1="185.57" x2="-3823.98" y2="146.98" gradientTransform="translate(3875.2 -106.69)" xlink:href="#linear-gradient"/><linearGradient id="linear-gradient-16" x1="-506.45" y1="982.24" x2="-471.13" y2="947.86" gradientTransform="translate(521.57 -911.64)" xlink:href="#linear-gradient"/><linearGradient id="linear-gradient-17" x1="-581.35" y1="1278.67" x2="-607.59" y2="1280.06" gradientTransform="translate(634.26 -1243.71)" xlink:href="#linear-gradient"/><linearGradient id="linear-gradient-18" x1="-1032.48" y1="1095.95" x2="-1031.66" y2="1056.86" gradientTransform="translate(1102.03 -1039.21)" xlink:href="#linear-gradient"/><linearGradient id="linear-gradient-19" x1="-844.89" y1="922.91" x2="-811.34" y2="921.97" gradientTransform="translate(897.54 -852.45)" xlink:href="#linear-gradient"/><linearGradient id="linear-gradient-20" x1="-687.1" y1="842.13" x2="-692.65" y2="871.62" gradientTransform="translate(727.5 -793.35)" xlink:href="#linear-gradient"/><linearGradient id="linear-gradient-21" x1="-614.24" y1="1282.77" x2="-573.96" y2="1276.82" gradientTransform="translate(629.99 -1243.71)" xlink:href="#linear-gradient"/><linearGradient id="linear-gradient-22" x1="-1034.38" y1="1050.62" x2="-1030.5" y2="1094.86" gradientTransform="translate(1102.03 -1039.21)" xlink:href="#linear-gradient"/><clipPath id="clip-path"><path class="cls-23" d="M35.17,56.08V49.2l3.52-.61a14.61,14.61,0,0,1,1.23-3l-2.07-2.92,4.87-4.87,2.92,2.07a14.61,14.61,0,0,1,3-1.23l.61-3.52h6.88C41.69,30,25.66,37.8,25.66,37.8a30.6,30.6,0,0,0-2.59,6.26l-7.48,1.29V59.93l7.48,1.29a30.54,30.54,0,0,0,2.6,6.26l-4.38,6.2L31.6,84l6.2-4.38S37,75.27,36.33,67.86c-.27-3.26-2.3-8.14-1.16-11.78"/></clipPath><linearGradient id="linear-gradient-23" x1="24.06" y1="83.47" x2="46.13" y2="33.85" gradientUnits="userSpaceOnUse"><stop offset="0" stop-color="#29c5ff"/><stop offset="1" stop-color="#0067b0"/></linearGradient><clipPath id="clip-path-2"><path class="cls-23" d="M79.61,67.48s-5.17,2.59-14.35,3.29c-4.44.35-10.43,1.71-16.06-.66l-.61-3.53a14.57,14.57,0,0,1-3-1.22l-2.92,2.06-4.87-4.86,2.07-2.92a14.45,14.45,0,0,1-1.23-3l-3.52-.6C31.45,68,37.8,79.61,37.8,79.61a30.08,30.08,0,0,0,6.26,2.6l1.29,7.48H59.93l1.29-7.48a30.54,30.54,0,0,0,6.26-2.6L73.68,84,84,73.68Z"/></clipPath><linearGradient id="linear-gradient-24" x1="27.22" y1="49.6" x2="78.13" y2="88.46" gradientUnits="userSpaceOnUse"><stop offset="0" stop-color="#004790"/><stop offset="1" stop-color="#da3dbd"/></linearGradient><clipPath id="clip-path-3"><path class="cls-23" d="M25.66,37.8s16-7.79,30.42-2.63l.6,3.52a14.45,14.45,0,0,1,3,1.23l2.92-2.07,4.86,4.87-2.06,2.92a14.57,14.57,0,0,1,1.22,3l3.53.61v6.88c2.06-6,6.09-10.44,5.69-15-.8-9-8.32-15.44-8.32-15.44a30.54,30.54,0,0,0-6.26-2.6l-1.29-7.48H45.35l-1.29,7.48a30.08,30.08,0,0,0-6.26,2.6l-6.2-4.38L21.29,31.6Z"/></clipPath><linearGradient id="linear-gradient-25" x1="27.27" y1="25.47" x2="70.74" y2="46.46" gradientUnits="userSpaceOnUse"><stop offset="0" stop-color="#f1c40f"/><stop offset="1" stop-color="#db321f"/></linearGradient><clipPath id="clip-path-4"><path class="cls-23" d="M67.48,25.67s8.78,12.53,2.63,30.41l-3.53.6a14.42,14.42,0,0,1-1.22,3l2.06,2.92-4.86,4.86-2.92-2.06a15,15,0,0,1-3,1.22l-.6,3.53H49.2a31.94,31.94,0,0,0,30.41-2.63,30.54,30.54,0,0,0,2.6-6.26l7.48-1.29V45.35l-7.48-1.29a30.08,30.08,0,0,0-2.6-6.26L84,31.6,73.68,21.29Z"/></clipPath><linearGradient id="linear-gradient-26" x1="72.25" y1="32.08" x2="65.75" y2="72.05" gradientUnits="userSpaceOnUse"><stop offset="0" stop-color="#fa5c98"/><stop offset="1" stop-color="#6e248d"/></linearGradient><mask id="mask" x="44.06" y="15.59" width="28.23" height="40.48" maskUnits="userSpaceOnUse"><rect class="cls-1" x="44.06" y="15.59" width="28.23" height="40.48"/></mask><mask id="mask-2" x="49.2" y="21.29" width="34.79" height="49.28" maskUnits="userSpaceOnUse"><rect class="cls-2" x="49.2" y="21.29" width="34.79" height="49.28"/></mask><mask id="mask-3" x="35.17" y="56.08" width="48.82" height="27.91" maskUnits="userSpaceOnUse"><rect class="cls-13" x="35.17" y="56.08" width="48.82" height="27.91"/></mask><mask id="mask-4" x="15.59" y="33.4" width="40.48" height="34.08" maskUnits="userSpaceOnUse"><rect class="cls-16" x="15.59" y="33.4" width="40.48" height="34.08"/></mask><mask id="mask-5" x="25.66" y="33.4" width="30.41" height="4.4" maskUnits="userSpaceOnUse"><rect class="cls-17" x="25.66" y="33.4" width="30.41" height="4.4"/></mask><mask id="mask-6" x="67.48" y="25.67" width="4.81" height="30.41" maskUnits="userSpaceOnUse"><rect class="cls-18" x="67.48" y="25.67" width="4.81" height="30.41"/></mask><mask id="mask-7" x="49.2" y="67.48" width="30.41" height="5.29" maskUnits="userSpaceOnUse"><rect class="cls-19" x="49.2" y="67.48" width="30.41" height="5.29"/></mask><mask id="mask-8" x="34" y="56.08" width="5.92" height="21.98" maskUnits="userSpaceOnUse"><rect class="cls-20" x="34" y="56.08" width="5.92" height="21.98"/></mask><mask id="mask-9" x="25.28" y="32.96" width="30.79" height="4.83" maskUnits="userSpaceOnUse"><rect class="cls-21" x="25.28" y="32.96" width="30.79" height="4.83"/></mask><mask id="mask-10" x="67.48" y="25.16" width="5.47" height="30.91" maskUnits="userSpaceOnUse"><rect class="cls-22" x="67.48" y="25.16" width="5.47" height="30.91"/></mask><mask id="mask-11" x="49.2" y="67.48" width="30.8" height="5.69" maskUnits="userSpaceOnUse"><rect class="cls-3" x="49.2" y="67.48" width="30.8" height="5.69"/></mask><mask id="mask-12" x="33.6" y="56.08" width="4.2" height="23.97" maskUnits="userSpaceOnUse"><rect class="cls-4" x="33.6" y="56.08" width="4.2" height="23.97"/></mask><mask id="mask-13" x="44.06" y="22.47" width="19.69" height="10.87" maskUnits="userSpaceOnUse"><rect class="cls-5" x="44.06" y="22.47" width="19.69" height="10.87"/></mask><mask id="mask-14" x="74.77" y="44.06" width="7.92" height="17.87" maskUnits="userSpaceOnUse"><rect class="cls-6" x="74.77" y="44.06" width="7.92" height="17.87"/></mask><mask id="mask-15" x="25.16" y="43.15" width="7.72" height="24.33" maskUnits="userSpaceOnUse"><rect class="cls-7" x="25.16" y="43.15" width="7.72" height="24.33"/></mask><mask id="mask-16" x="45.31" y="74.95" width="15.9" height="7.89" maskUnits="userSpaceOnUse"><rect class="cls-8" x="45.31" y="74.95" width="15.9" height="7.89"/></mask><mask id="mask-17" x="21.29" y="15.59" width="39.93" height="16.01" maskUnits="userSpaceOnUse"><rect class="cls-9" x="21.29" y="15.59" width="39.93" height="16.01"/></mask><clipPath id="clip-path-5"><path class="cls-23" d="M52.65,58.61h0m2.83-14.53a9.66,9.66,0,0,1,1.23.52l1.48-.8,1.36,1.36c2.15-.8,4.54-1.59,4.54-1.59a41.55,41.55,0,0,1-3.34,5.12,7.28,7.28,0,0,1,.45,1.12l1.67.49V55l-1.67.49a8.37,8.37,0,0,1-.51,1.23l.8,1.47-3.3,3.31-1.48-.8a8.37,8.37,0,0,1-1.23.51L55,62.86H50.31l-.49-1.67a8.37,8.37,0,0,1-1.23-.51l-1.47.8q-1.66-1.65-3.31-3.31l.8-1.47a8.37,8.37,0,0,1-.51-1.23L42.43,55V50.3l1.67-.49a8.37,8.37,0,0,1,.51-1.23l-.8-1.48,3.31-3.3,1.47.8a9.66,9.66,0,0,1,1.23-.52l.49-1.66H55Z"/></clipPath><linearGradient id="linear-gradient-27" x1="60.47" y1="70.71" x2="46.65" y2="36.9" gradientUnits="userSpaceOnUse"><stop offset="0" stop-color="#0049e7"/><stop offset="0.49" stop-color="#9d15f8"/><stop offset="1" stop-color="#ff4cf9"/></linearGradient><mask id="mask-18" x="42.43" y="49.52" width="18.67" height="13.34" maskUnits="userSpaceOnUse"><rect class="cls-10" x="42.43" y="49.52" width="18.67" height="13.34"/></mask><mask id="mask-19" x="42.43" y="42.42" width="21.66" height="12.86" maskUnits="userSpaceOnUse"><rect class="cls-11" x="42.43" y="42.42" width="21.66" height="12.86"/></mask><mask id="mask-20" x="45.71" y="42.42" width="18.38" height="12.7" maskUnits="userSpaceOnUse"><rect class="cls-12" x="45.71" y="42.42" width="18.38" height="12.7"/></mask><mask id="mask-21" x="45.85" y="43.78" width="18.12" height="16.18" maskUnits="userSpaceOnUse"><rect class="cls-14" x="45.85" y="43.78" width="18.12" height="16.18"/></mask><clipPath id="clip-path-6"><path class="cls-23" d="M64.09,43.57c.35.2-8.61,6.81-11.6,14.67a73.13,73.13,0,0,0-6.64-7.42c2.76,1.31,4.72,3.62,6.3,5.36,3.68-6.52,11.94-12.61,11.94-12.61"/></clipPath><mask id="mask-22" x="45.85" y="43.57" width="18.59" height="14.67" maskUnits="userSpaceOnUse"><rect class="cls-15" x="45.85" y="43.57" width="18.25" height="14.67"/></mask><linearGradient id="linear-gradient-28" x1="59.44" y1="64.68" x2="51.22" y2="38.32" xlink:href="#linear-gradient-27"/></defs><g class="cls-24"><rect class="cls-25" x="15.59" y="30.01" width="40.48" height="53.98"/></g><g class="cls-26"><rect class="cls-27" x="31.45" y="56.08" width="52.54" height="33.61"/></g><g class="cls-28"><rect class="cls-29" x="21.29" y="15.59" width="54.92" height="40.48"/></g><g class="cls-30"><rect class="cls-31" x="49.2" y="21.29" width="40.48" height="56.08"/></g><g class="cls-32"><path class="cls-33" d="M44.06,23.07c31.64,6.84,26.05,33,26.05,33,6.15-17.88-2.63-30.41-2.63-30.41a30.54,30.54,0,0,0-6.26-2.6l-1.29-7.48H45.35Z"/></g><g class="cls-34"><path class="cls-35" d="M65.36,59.64l2.06,2.92-4.86,4.86-2.92-2.06a15,15,0,0,1-3,1.22l-.6,3.53H49.2s28.11,6.07,33-26a30.08,30.08,0,0,0-2.6-6.26L84,31.6,73.68,21.29l-6.2,4.38s8.78,12.53,2.63,30.41l-3.53.6a14.42,14.42,0,0,1-1.22,3"/></g><g class="cls-36"><path class="cls-37" d="M35.17,56.08c-.12,20.56,26.05,26.13,26.05,26.13a30.54,30.54,0,0,0,6.26-2.6L73.68,84,84,73.68l-4.38-6.2A31.94,31.94,0,0,1,49.2,70.11l-.61-3.53a14.57,14.57,0,0,1-3-1.22l-2.92,2.06-4.87-4.86,2.07-2.92a14.45,14.45,0,0,1-1.23-3Z"/></g><g class="cls-38"><path class="cls-39" d="M25.67,67.48s-1-36.78,30.41-32.31C41.69,30,25.66,37.8,25.66,37.8a30.6,30.6,0,0,0-2.59,6.26l-7.48,1.29V59.93l7.48,1.29a30.54,30.54,0,0,0,2.6,6.26"/></g><g class="cls-40"><path class="cls-41" d="M25.66,37.8A93.83,93.83,0,0,1,42,36.34a59.91,59.91,0,0,1,6.93.41l.27-1.58h6.88C41.69,30,25.66,37.8,25.66,37.8"/></g><g class="cls-42"><path class="cls-43" d="M67.48,25.67s3.44,8.93,2,18.3a25.86,25.86,0,0,1-1.23,4.92l1.83.31v6.88c6.15-17.88-2.63-30.41-2.63-30.41"/></g><g class="cls-44"><path class="cls-45" d="M61.58,69.77a18,18,0,0,1-5.23-1.24l-.27,1.58H49.2a31.94,31.94,0,0,0,30.41-2.63s-9.79,3.09-18,2.29"/></g><g class="cls-46"><path class="cls-47" d="M37.06,65.17A15.58,15.58,0,0,1,38,62.66l-.1-.1c.7-1,1.35-1.91,2.07-2.92a14.45,14.45,0,0,1-1.23-3l-3.52-.6c-2.91,9.29.33,18.42,1.88,22a35.1,35.1,0,0,1-.61-9,21.37,21.37,0,0,1,.62-3.87"/></g><g class="cls-48"><path class="cls-49" d="M25.66,37.8s16-7.79,30.42-2.63c0,0-11.56-6.15-30.8,2.09Z"/></g><g class="cls-50"><path class="cls-51" d="M67.48,25.67s8.78,12.53,2.63,30.41a17.75,17.75,0,0,0,1.56-3.71c1.45-4.65,2.71-13.4-2.38-24.88-.34-.76-.7-1.54-1.1-2.33Z"/></g><g class="cls-52"><path class="cls-53" d="M79.61,67.48A31.94,31.94,0,0,1,49.2,70.11S63.15,78.22,80,68Z"/></g><g class="cls-54"><path class="cls-55" d="M37.05,78.05c-1.55-3.55-4.79-12.68-1.88-22,0,0-4.63,9.25,2,24l.62-.44s-.31-.56-.75-1.56"/></g><g class="cls-56"><path class="cls-49" d="M63.75,33.34c-6-8.29-19.59-10.87-19.59-10.87l-.1.6C53.64,25.14,59.81,29,63.75,33.34"/></g><g class="cls-57"><path class="cls-51" d="M74.77,61.93c6.62-7,7.92-17.79,7.92-17.79l-.48-.08c-1.25,8.2-4,13.91-7.44,17.87"/></g><g class="cls-58"><path class="cls-55" d="M32.88,43.15c-8,10-7.72,23.38-7.72,23.38.16.32.33.64.51,1,0,0-.39-14.64,7.21-24.33"/></g><g class="cls-59"><path class="cls-53" d="M45.31,75a41.58,41.58,0,0,0,15.8,7.89l.11-.63A46.26,46.26,0,0,1,45.31,75"/></g><g class="cls-60"><path class="cls-61" d="M61.22,23.07l-1.29-7.48H45.35l-1.29,7.48a30.08,30.08,0,0,0-6.26,2.6l-6.2-4.38L21.29,31.6c34.07-.22,39.93-8.53,39.93-8.53"/></g><g class="cls-62"><rect class="cls-63" x="33.61" y="42.42" width="38.94" height="20.45"/></g><g class="cls-64"><path class="cls-65" d="M52.65,58.61h0m8.45,0-2.91,2.92-1.48-.8a8.37,8.37,0,0,1-1.23.51L55,62.86H50.31l-.49-1.67a8.37,8.37,0,0,1-1.23-.51l-1.47.8q-1.66-1.65-3.31-3.31l.8-1.47a8.37,8.37,0,0,1-.51-1.23L42.43,55V50.3l1.67-.49a2.47,2.47,0,0,1,.1-.29A52.33,52.33,0,0,0,61.1,58.56Z"/></g><g class="cls-66"><path class="cls-67" d="M55.48,44.08a9.66,9.66,0,0,1,1.23.52l1.48-.8,1.36,1.36c2.15-.8,4.54-1.59,4.54-1.59a48,48,0,0,1-2.87,4.51c-5.34.71-13.15,2.53-17.77,7.2l-1-.3V50.3l1.67-.49a8.37,8.37,0,0,1,.51-1.23l-.8-1.48,3.31-3.3,1.47.8a9.66,9.66,0,0,1,1.23-.52l.49-1.66H55Z"/></g><g class="cls-68"><path class="cls-67" d="M55.48,44.08a9.66,9.66,0,0,1,1.23.52l1.48-.8,1.36,1.36c2.15-.8,4.54-1.59,4.54-1.59a41.55,41.55,0,0,1-3.34,5.12,7.28,7.28,0,0,1,.45,1.12l1.67.49V55l-.48.14c-6.74-7.44-13.63-9.4-16.68-9.92l1.41-1.4,1.47.8a9.66,9.66,0,0,1,1.23-.52l.49-1.66H55Z"/></g><g class="cls-69"><path class="cls-65" d="M45.85,50.82c3.24,1.4,3.67,2.16,6.11,3.54,0,0,6.6-8.52,12-10.58-3.6,4.63-8.22,8-11.16,16.18,0,0-3.34-4.86-6.95-9.14"/></g><path class="cls-70" d="M45.85,50.82c2.22-.07,3.54.45,6,1.88,0,0,6.82-7.07,12.22-9.13.35.2-8.61,6.81-11.6,14.67a73.13,73.13,0,0,0-6.64-7.42"/><g class="cls-71"><g class="cls-72"><rect class="cls-73" x="45.85" y="43.57" width="18.59" height="14.67"/></g></g></svg>