<svg id="Layer_1" data-name="Layer 1" xmlns="http://www.w3.org/2000/svg" xmlns:xlink="http://www.w3.org/1999/xlink" viewBox="0 0 105.28 105.28"><defs><style>.cls-1,.cls-10,.cls-2,.cls-3,.cls-4,.cls-5,.cls-6,.cls-7,.cls-8,.cls-9{fill-rule:evenodd;}.cls-1{fill:url(#linear-gradient);}.cls-2{fill:url(#linear-gradient-2);}.cls-3{fill:url(#linear-gradient-3);}.cls-4{fill:url(#linear-gradient-4);}.cls-5{fill:url(#linear-gradient-5);}.cls-6{fill:url(#linear-gradient-6);}.cls-7{fill:url(#linear-gradient-7);}.cls-8{fill:url(#linear-gradient-8);}.cls-9{fill:url(#linear-gradient-9);}.cls-10{fill:url(#linear-gradient-10);}</style><linearGradient id="linear-gradient" x1="84.61" y1="36.16" x2="36.57" y2="108.18" gradientUnits="userSpaceOnUse"><stop offset="0" stop-color="#ec2227"/><stop offset="0.09" stop-color="#ec2927"/><stop offset="0.22" stop-color="#ee3c26"/><stop offset="0.37" stop-color="#f05c26"/><stop offset="0.55" stop-color="#f38825"/><stop offset="0.73" stop-color="#f6c024"/><stop offset="0.87" stop-color="#f9ec23"/></linearGradient><linearGradient id="linear-gradient-2" x1="98.67" y1="52.44" x2="234.16" y2="52.44" xlink:href="#linear-gradient"/><linearGradient id="linear-gradient-3" x1="22.65" y1="42.23" x2="97.15" y2="42.23" gradientUnits="userSpaceOnUse"><stop offset="0.19" stop-color="#983fff"/><stop offset="0.53" stop-color="#7415ff"/><stop offset="0.69" stop-color="#4f00aa"/><stop offset="0.87" stop-color="#31006a"/></linearGradient><linearGradient id="linear-gradient-4" x1="14.93" y1="42.53" x2="73.56" y2="42.53" xlink:href="#linear-gradient-3"/><linearGradient id="linear-gradient-5" x1="11.64" y1="53.31" x2="55.05" y2="53.31" xlink:href="#linear-gradient-3"/><linearGradient id="linear-gradient-6" x1="8.98" y1="53.19" x2="17.2" y2="53.19" xlink:href="#linear-gradient-3"/><linearGradient id="linear-gradient-7" x1="9.9" y1="46.57" x2="16" y2="46.57" xlink:href="#linear-gradient-3"/><linearGradient id="linear-gradient-8" x1="3.77" y1="56.42" x2="9.86" y2="56.42" xlink:href="#linear-gradient-3"/><linearGradient id="linear-gradient-9" x1="34.64" y1="79.65" x2="18.22" y2="72.97" xlink:href="#linear-gradient"/><linearGradient id="linear-gradient-10" x1="27.08" y1="73.95" x2="12.57" y2="68.09" xlink:href="#linear-gradient"/></defs><path class="cls-1" d="M93.09,28.39A39.12,39.12,0,0,1,37.22,82.57c-.93-.31-3.94-.62-4.88-.91-2.42-.72-1.71-3.3.7-2.65,2.08.55,2.83-1.53.7-2.36-3-1.19-4.39-1.43-7.37-3.32-2.13-1.35-.73-3.64,1.4-2.37a44.79,44.79,0,0,0,5.76,3c16.73,6.7,38.06-5.32,48.39-19.61,2.63,1.61,6.39,3.8,9,5.41,1.14-8.34,1.92-21.61,2.15-31.33Z"/><path class="cls-2" d="M35.61,74.65l.16,0-.18,0Zm.52.16c16.29,4.57,36-6.94,45.79-20.5,2.63,1.61,6.39,3.8,9,5.41,1.14-8.34,1.92-21.61,2.15-31.33,2.65,12,.91,27.2,0,37.56L82.88,60C70.34,72.83,54.21,80,36.13,74.81Z"/><path class="cls-3" d="M62.39,13.54a39,39,0,0,1,27,10.85C79.69,32,65,41.72,53.74,46.31c4.16,1,9.87,2.21,14,3.17C59,65.35,48,74.24,32.16,69.77,27.38,68.42,21.59,65.2,16,61.48c-2.16-1.45-.86-3.71,1.4-2.36.88.52,10.13,5.66,10.13,5.69l1.33.7c2.33,1.19,3.53-1.27,1.37-2.42q-2.3-1.2-4.52-2.49c-2.28-1.22-4.44-2.44-6.67-3.84s-.76-3.64,1.4-2.37c1.56.91,3.09,1.82,4.68,2.68,2.31,1.19,3.53-1.28,1.35-2.42C24,53.3,21.41,51.87,19,50.34,16.83,49,18.24,46.7,20.37,48l3,1.76a39.07,39.07,0,0,1,39-36.2Z"/><path class="cls-4" d="M73.56,35.56A132,132,0,0,1,53.74,46.31c4.16,1,9.87,2.21,14,3.17C59,65.35,48,74.24,32.16,69.77,27.38,68.42,21.59,65.2,16,61.48c-2.16-1.45-.86-3.71,1.4-2.36.88.52,10.13,5.66,10.13,5.69l1.33.7c2.33,1.19,3.53-1.27,1.37-2.42q-2.3-1.2-4.52-2.49c-2.28-1.22-4.44-2.44-6.67-3.84s-.76-3.64,1.4-2.37c1.56.91,3.09,1.82,4.68,2.68,2.31,1.19,3.53-1.28,1.35-2.42C24,53.3,21.41,51.87,19,50.34,16.83,49,18.24,46.7,20.37,48l3,1.76A39.07,39.07,0,0,1,55.48,14.13a12.64,12.64,0,0,1,.18,3c-.23,4.75-8.88,12.21,6.32,14,3.68.44,9.32-.33,11.58,4.47Z"/><path class="cls-5" d="M58.34,62.57c-7.07,7.17-15.48,10.21-26.18,7.2C27.38,68.42,21.59,65.2,16,61.48c-2.16-1.45-.86-3.71,1.4-2.36.88.52,10.13,5.66,10.13,5.69l1.33.7c2.33,1.19,3.53-1.27,1.37-2.42q-2.3-1.2-4.52-2.49c-2.28-1.22-4.44-2.44-6.67-3.84s-.76-3.64,1.4-2.37c1.56.91,3.09,1.82,4.68,2.68,2.31,1.19,3.53-1.28,1.35-2.42C24,53.3,21.41,51.87,19,50.34,16.83,49,18.24,46.7,20.37,48l3,1.76a39,39,0,0,1,3.71-14c3.38.08,6.47,0,8.44-.05,8.31-.1,5,4.6,2.55,8.78-2.91,5.06-1.64,8.34,3.45,11.58a28.73,28.73,0,0,0,12.18,4,6.58,6.58,0,0,1,4.6,2.49Z"/><path class="cls-6" d="M13.67,55.35A34.28,34.28,0,0,1,10,53.43c-2.1-1.35-.73-3.61,1.4-2.36,1.35.8,2.29,1.19,3.61,1.89,2.16,1.15,1,3.61-1.37,2.39Z"/><path class="cls-7" d="M13.51,48.42c-.91-.5-1.64-.7-2.55-1.28-2.13-1.35-.75-3.63,1.41-2.36.83.49,1.66.78,2.49,1.22,2.18,1.14,1,3.61-1.35,2.42Z"/><path class="cls-8" d="M7.38,58.26c-.94-.49-1.64-.7-2.55-1.27-2.13-1.35-.75-3.64,1.41-2.36.83.49,1.63.77,2.49,1.22,2.16,1.14,1,3.61-1.35,2.41Z"/><path class="cls-9" d="M26.5,77.87a11.66,11.66,0,0,1-1.38-.67c-2.13-1.35-.75-3.64,1.4-2.37.31.21.94.44,1.33.65,2.18,1.14,1,3.61-1.35,2.39Z"/><path class="cls-10" d="M20.73,73c-.91-.47-1.64-.7-2.55-1.27-2.13-1.35-.72-3.64,1.41-2.37.85.5,1.66.78,2.49,1.22,2.18,1.17,1,3.61-1.35,2.42Z"/></svg>