<svg id="Layer_1" data-name="Layer 1" xmlns="http://www.w3.org/2000/svg" xmlns:xlink="http://www.w3.org/1999/xlink" viewBox="0 0 700 700"><defs><style>.cls-1{fill:url(#linear-gradient);}.cls-2{fill:url(#linear-gradient-2);}.cls-3{fill:url(#linear-gradient-3);}.cls-4{fill:url(#linear-gradient-4);}.cls-5{fill:url(#linear-gradient-5);}.cls-6{fill:url(#linear-gradient-6);}.cls-7{fill:url(#linear-gradient-7);}.cls-10,.cls-11,.cls-8,.cls-9{opacity:0.5;}.cls-8{fill:url(#linear-gradient-8);}.cls-9{fill:url(#linear-gradient-9);}.cls-10{fill:url(#linear-gradient-10);}.cls-11{fill:url(#linear-gradient-11);}.cls-12{fill:url(#linear-gradient-12);}.cls-13{fill:url(#linear-gradient-13);}.cls-14{fill:url(#linear-gradient-14);}</style><linearGradient id="linear-gradient" x1="3331.95" y1="-3933.29" x2="2622.98" y2="-3266.03" gradientTransform="translate(3626.48 2904.49) rotate(-90)" gradientUnits="userSpaceOnUse"><stop offset="0" stop-color="#3d0056"/><stop offset="1" stop-color="#ff0ba2"/></linearGradient><linearGradient id="linear-gradient-2" x1="965.2" y1="-1828.66" x2="310.94" y2="-1212.88" gradientTransform="matrix(1, 0, 0, -1, 0, -824.25)" xlink:href="#linear-gradient"/><linearGradient id="linear-gradient-3" x1="3190.81" y1="1831.65" x2="2536.55" y2="2447.42" gradientTransform="matrix(0, -1, -1, 0, 2864.99, 2876.74)" xlink:href="#linear-gradient"/><linearGradient id="linear-gradient-4" x1="4701.48" y1="-3997.74" x2="4047.22" y2="-3381.96" gradientTransform="matrix(0, 1, 1, 0, 3693.44, -3640.08)" xlink:href="#linear-gradient"/><linearGradient id="linear-gradient-5" x1="1131.74" y1="-1787.16" x2="477.48" y2="-1171.39" gradientTransform="matrix(1, 0, 0, -1, 0, -824.25)" xlink:href="#linear-gradient"/><linearGradient id="linear-gradient-6" x1="123.81" y1="238.22" x2="372.07" y2="486.48" gradientTransform="matrix(1, 0, 0, 1, 0, 0)" xlink:href="#linear-gradient"/><linearGradient id="linear-gradient-7" x1="571.43" y1="545.72" x2="402.07" y2="151.6" gradientTransform="matrix(1, 0, 0, 1, 0, 0)" xlink:href="#linear-gradient"/><linearGradient id="linear-gradient-8" x1="122.92" y1="239.11" x2="234.32" y2="350.51" gradientTransform="matrix(1, 0, 0, 1, 0, 0)" xlink:href="#linear-gradient"/><linearGradient id="linear-gradient-9" x1="160.69" y1="417.07" x2="301.08" y2="557.46" gradientTransform="matrix(1, 0, 0, 1, 0, 0)" xlink:href="#linear-gradient"/><linearGradient id="linear-gradient-10" x1="518.72" y1="575.87" x2="395.58" y2="427.33" gradientTransform="matrix(1, 0, 0, 1, 0, 0)" xlink:href="#linear-gradient"/><linearGradient id="linear-gradient-11" x1="631.03" y1="187.51" x2="437.48" y2="406.04" gradientTransform="matrix(1, 0, 0, 1, 0, 0)" xlink:href="#linear-gradient"/><linearGradient id="linear-gradient-12" x1="781.58" y1="29.2" x2="527.87" y2="236.33" gradientTransform="matrix(1, 0, 0, 1, 0, 0)" xlink:href="#linear-gradient"/><linearGradient id="linear-gradient-13" x1="756.1" y1="-2.01" x2="502.39" y2="205.12" gradientTransform="matrix(1, 0, 0, 1, 0, 0)" xlink:href="#linear-gradient"/><linearGradient id="linear-gradient-14" x1="802.01" y1="54.22" x2="548.29" y2="261.35" gradientTransform="matrix(1, 0, 0, 1, 0, 0)" xlink:href="#linear-gradient"/></defs><path class="cls-1" d="M419.28,346a3.77,3.77,0,0,0,3.78,3.78h18.06a11.61,11.61,0,0,1,11.65,11.66,11.39,11.39,0,0,1-11.38,11.15H423.11a3.78,3.78,0,0,0,0,7.56h18.28a19,19,0,0,0,19-18.62c.18-10.6-8.76-19.31-19.4-19.31H423.06A3.77,3.77,0,0,0,419.28,346Z"/><path class="cls-2" d="M291.73,380.14a17.4,17.4,0,0,1-14.18-7.07,17.46,17.46,0,0,1-13.73,7.07c-9.78.17-17.82-8.08-17.82-17.91V345.7a3.49,3.49,0,1,1,7,0v16.66a10.72,10.72,0,0,0,10.76,10.76A10.51,10.51,0,0,0,274,363.69c.07-.49-.06-18-.06-18a3.47,3.47,0,0,1,3.49-3.49,3.39,3.39,0,0,1,1.15.2,3.47,3.47,0,0,1,2.45,3.33s0,15.82,0,17.78l0,.32a10.68,10.68,0,0,0,10.65,9.28,10.52,10.52,0,0,0,10.3-10.51V345.74a3.49,3.49,0,1,1,7,0v16.87A17.52,17.52,0,0,1,291.73,380.14Z"/><path class="cls-3" d="M409.07,359.39A17.39,17.39,0,0,1,402,373.57a17.45,17.45,0,0,1,7.06,13.73c.17,9.78-8.08,17.82-17.9,17.82H374.63a3.49,3.49,0,0,1,0-7H391.3a10.72,10.72,0,0,0,10.76-10.76,10.52,10.52,0,0,0-9.43-10.23c-.49-.07-18,.06-18,.06a3.47,3.47,0,0,1-3.48-3.49,3.65,3.65,0,0,1,.19-1.15,3.48,3.48,0,0,1,3.34-2.45l17.78,0,.32,0a10.69,10.69,0,0,0,9.28-10.65,10.52,10.52,0,0,0-10.51-10.29H374.68a3.49,3.49,0,0,1,0-7h16.87A17.51,17.51,0,0,1,409.07,359.39Z"/><path class="cls-4" d="M320,387.94A17.4,17.4,0,0,1,327,373.76,17.46,17.46,0,0,1,320,360c-.17-9.78,8.08-17.82,17.91-17.82h16.53a3.49,3.49,0,0,1,0,7H337.75A10.71,10.71,0,0,0,327,360a10.51,10.51,0,0,0,9.42,10.23c.5.07,18-.06,18-.06a3.47,3.47,0,0,1,3.49,3.48,3.41,3.41,0,0,1-.2,1.16,3.48,3.48,0,0,1-3.33,2.45l-17.78,0-.32,0A10.68,10.68,0,0,0,327,387.85a10.51,10.51,0,0,0,10.5,10.29h16.88a3.49,3.49,0,0,1,0,7H337.49A17.52,17.52,0,0,1,320,387.94Z"/><path class="cls-5" d="M488.4,380.14c-9.78.17-17.81-8.08-17.81-17.91V345.7a3.49,3.49,0,1,1,7,0v16.66a10.72,10.72,0,0,0,10.76,10.76,10.51,10.51,0,0,0,10.29-10.51V345.74a3.49,3.49,0,1,1,7,0v16.87A17.52,17.52,0,0,1,488.4,380.14Z"/><path class="cls-6" d="M205.71,568.38l-168-168a53.81,53.81,0,0,1,0-76.12l168-168a59.73,59.73,0,0,1,84.46,0h0a59.72,59.72,0,0,1,0,84.47l-106,106a22,22,0,0,0,0,31l106.05,106a59.72,59.72,0,0,1,0,84.47h0A59.73,59.73,0,0,1,205.71,568.38Z"/><path class="cls-7" d="M614.73,302.11a59.9,59.9,0,0,0-29.35,7.65L496.72,221.1A60.11,60.11,0,1,0,469.41,252l89,89a59.38,59.38,0,0,0,0,42.59l-89,89A60.22,60.22,0,1,0,414,579.59l3.53,1.59,1.1.48a60.16,60.16,0,0,0,78.05-78.06l88.66-88.66a60.23,60.23,0,1,0,29.35-112.83Z"/><path class="cls-8" d="M115.57,347.52C180.38,286.12,248,227.52,276.33,146a59.72,59.72,0,0,0-70.62,10.29l-168,168a53.81,53.81,0,0,0,0,76.12l73.33,73.34a267.35,267.35,0,0,1-14-55,105.52,105.52,0,0,1,3.59-46.22C103.93,362.19,108,355.07,115.57,347.52Z"/><path class="cls-9" d="M192,385.75C179.79,454,229.89,510.27,259.73,570a80,80,0,0,1,4.77,13.57,59.71,59.71,0,0,0,25.67-99.61Z"/><path class="cls-10" d="M449.21,520.52c31.2-24.51,53.93-56.27,63-90.69l-42.83,42.83A60.22,60.22,0,1,0,414,579.59l3.53,1.59h0C419.78,556.89,427.89,536.51,449.21,520.52Z"/><path class="cls-11" d="M614.73,302.11a59.9,59.9,0,0,0-29.35,7.65L496.72,221.1a60.11,60.11,0,0,0-42.91-80.79c.32,23.12,3.29,45.7,11.87,67.17,33,70,135.93,90.61,140.05,164.76a461.89,461.89,0,0,1,1.15,49.84,60.24,60.24,0,1,0,7.85-120Z"/><polygon class="cls-12" points="629.24 196.24 629.24 208.58 573.04 208.58 573.04 196.24 593.96 196.24 593.96 154.92 575.32 154.92 575.32 142.58 610.2 142.58 610.2 196.24 629.24 196.24"/><path class="cls-13" d="M611.5,124.52a10.45,10.45,0,0,1-.78,4,9.94,9.94,0,0,1-2.17,3.28,10.59,10.59,0,0,1-3.28,2.21,10.27,10.27,0,0,1-4.1.81,10.48,10.48,0,0,1-4.12-.81,10.27,10.27,0,0,1-3.31-2.21,9.81,9.81,0,0,1-2.18-3.28,10.52,10.52,0,0,1,2.18-11.37,10,10,0,0,1,3.31-2.24,10.48,10.48,0,0,1,4.12-.81,10.15,10.15,0,0,1,7.38,3.05,10.43,10.43,0,0,1,3,7.34Z"/><path class="cls-14" d="M664.6,154.94v30.8a6.26,6.26,0,0,0,6.26,6.26H678v17h-7.16a23.25,23.25,0,0,1-23.25-23.25v-30.8H634.18V142.59a21.92,21.92,0,0,0,21.93-21.92v-.89h8.49v22.81H678v12.35Z"/></svg>