<svg id="Layer_1" data-name="Layer 1" xmlns="http://www.w3.org/2000/svg" viewBox="0 0 1982.49 632.88"><defs><style>.cls-1{fill:#f0f5f7;stroke:#1d1d1b;stroke-miterlimit:10;stroke-width:10px;}.cls-2{fill:#333;}</style></defs><rect class="cls-1" x="72.52" y="33.57" width="1837.46" height="565.73" rx="134.96"/><path class="cls-2" d="M796.21,178.24c20.34,0,32.36,12.69,32.36,34.26s-12,34.29-32.36,34.29h-23V178.24ZM781.73,239.1h13.91c15.54,0,24.18-9.5,24.18-26.51s-8.59-26.65-24.18-26.65H781.73Z"/><path class="cls-2" d="M840.32,222.09c0-15.77,9.21-25.56,22.89-25.56s22.85,9.79,22.85,25.56-9.21,25.56-22.85,25.56S840.32,237.82,840.32,222.09Zm37.34,0c0-11.64-5.7-18.29-14.45-18.29s-14.49,6.65-14.49,18.29,5.75,18.29,14.49,18.29S877.66,233.73,877.66,222.09Z"/><path class="cls-2" d="M948.31,246.79h-8.4l-11.17-38.24h-.19l-11.11,38.24H909l-13.83-49.4h8.22l9.88,40.19h.19l11.17-40.19h8l11.21,40.19H944l9.88-40.19h8.17Z"/><path class="cls-2" d="M973.7,197.39h7.79v7.88h.19c2.76-5.32,8-8.74,15.68-8.74,10.83,0,17.1,7,17.1,18.2v32.06h-8.27V216.2c0-8-3.75-12.35-11.35-12.35-7.79,0-12.87,5.51-12.87,13.87v29.07H973.7Z"/><path class="cls-2" d="M1030.25,178.24h8.26v68.55h-8.26Z"/><path class="cls-2" d="M1052.12,222.09c0-15.77,9.22-25.56,22.9-25.56s22.85,9.79,22.85,25.56-9.22,25.56-22.85,25.56S1052.12,237.82,1052.12,222.09Zm37.34,0c0-11.64-5.7-18.29-14.44-18.29s-14.49,6.65-14.49,18.29,5.75,18.29,14.49,18.29S1089.46,233.73,1089.46,222.09Z"/><path class="cls-2" d="M1109.05,232.83c0-8.46,6.51-13.78,17.91-14.44l14.15-.81v-4.13c0-6-4-9.65-10.83-9.65-6.36,0-10.35,3-11.4,7.84h-8c.57-8.55,7.89-15.11,19.57-15.11s18.91,6.27,18.91,16.11v34.15h-7.84v-8.5h-.19a18,18,0,0,1-15.86,9.36C1115.65,247.65,1109.05,241.71,1109.05,232.83Zm32.06-4.8v-4l-13.2.81c-6.65.43-10.45,3.37-10.45,8s3.94,7.79,9.88,7.79C1135.13,240.62,1141.11,235.16,1141.11,228Z"/><path class="cls-2" d="M1162.32,222.09c0-15.49,8.5-25.56,21-25.56,7.08,0,12.78,3.47,15.72,8.89h.19V178.24h8.27v68.55h-7.89v-8.36h-.14a17.67,17.67,0,0,1-16,9.22C1170.87,247.65,1162.32,237.58,1162.32,222.09Zm8.46,0c0,11.21,5.51,18.29,14.25,18.29,8.5,0,14.2-7.22,14.2-18.29s-5.7-18.29-14.2-18.29C1176.29,203.8,1170.78,210.93,1170.78,222.09Z"/><path class="cls-2" d="M1245.87,222.09c0-15.77,9.22-25.56,22.9-25.56s22.85,9.79,22.85,25.56-9.22,25.56-22.85,25.56S1245.87,237.82,1245.87,222.09Zm37.34,0c0-11.64-5.7-18.29-14.44-18.29s-14.49,6.65-14.49,18.29,5.75,18.29,14.49,18.29S1283.21,233.73,1283.21,222.09Z"/><path class="cls-2" d="M1304.79,197.39h7.8v7.88h.19c2.75-5.32,8-8.74,15.67-8.74,10.83,0,17.1,7,17.1,18.2v32.06h-8.26V216.2c0-8-3.75-12.35-11.36-12.35-7.79,0-12.87,5.51-12.87,13.87v29.07h-8.27Z"/><path class="cls-2" d="M1396.66,185.46v11.93h9.59v6.79h-9.59v29.36c0,4.51,1.9,6.56,6.13,6.56a33.46,33.46,0,0,0,3.42-.24v6.93a29.27,29.27,0,0,1-5.23.38c-9.07,0-12.59-3.7-12.59-13.2V204.18H1381v-6.79h7.36V185.46Z"/><path class="cls-2" d="M1420.33,178.24h8.27v27h.19c2.76-5.51,8.17-8.74,15.68-8.74,10.83,0,17.38,7.32,17.38,18.34v31.92h-8.26v-30.4c0-7.84-3.94-12.54-11.69-12.54-8.22,0-13.3,5.6-13.3,14.16v28.78h-8.27Z"/><path class="cls-2" d="M1518.12,232.64c-1.43,8.64-9.79,15-20.57,15-14.16,0-22.76-9.83-22.76-25.37,0-15.34,8.74-25.75,22.38-25.75,13.35,0,21.57,9.69,21.57,24.66v3.13H1483.3v.48c0,9.45,5.55,15.68,14.44,15.68,6.27,0,10.88-3.19,12.25-7.84Zm-34.78-14.78h26.85c-.2-8.26-5.37-14.15-13.16-14.15S1483.87,209.65,1483.34,217.86Z"/><path class="cls-2" d="M815.73,301.72h21.38l46.31,127.51H862.65L851,394.77H801.85L790.1,429.23H769.34Zm-8.57,77.14H845.6l-19-56h-.36Z"/><path class="cls-2" d="M904.22,336.27h19.09v16h.44c5.57-11,15.82-17.77,29.08-17.77,23.68,0,38.88,18.56,38.88,48.25v.09c0,29.6-15.29,48.25-38.62,48.25-13.17,0-23.86-6.72-29.34-17.5h-.44v46.57H904.22Zm68,46.57v-.09c0-19.79-9.46-31.9-24.39-31.9-14.5,0-24.66,12.55-24.66,31.9v.09c0,19.26,10.25,31.81,24.66,31.81C962.9,414.65,972.27,402.46,972.27,382.84Z"/><path class="cls-2" d="M1015.52,336.27h19.09v16h.44c5.56-11,15.81-17.77,29.07-17.77,23.68,0,38.88,18.56,38.88,48.25v.09c0,29.6-15.29,48.25-38.62,48.25-13.16,0-23.85-6.72-29.33-17.5h-.44v46.57h-19.09Zm68,46.57v-.09c0-19.79-9.46-31.9-24.39-31.9-14.49,0-24.65,12.55-24.65,31.9v.09c0,19.26,10.25,31.81,24.65,31.81C1074.19,414.65,1083.56,402.46,1083.56,382.84Z"/><path class="cls-2" d="M1169.18,395.3l-.09-1.33h19.26l.18,1.15c1.77,11.76,13.52,19.09,30.57,19.09s27.84-7.69,27.84-19.62v-.08c0-10.26-7-15.82-23.86-19.53l-13.87-2.92c-25-5.3-37.12-16.79-37.12-35.7v-.09c.09-21.74,19.27-36.67,46.22-36.67,26.6,0,44.8,14.49,46.13,35.88l.08,1.5h-19.26l-.09-1.24c-1.77-11.84-12-19-27.13-19-15.81.09-25.89,7.6-25.89,18.74v.08c0,9.55,7.25,15.38,23.15,18.83l14,2.91c26.33,5.57,37.64,16.26,37.64,36v.09c0,23.24-18.38,38-48.6,38C1189.68,431.35,1170.77,417.75,1169.18,395.3Z"/><path class="cls-2" d="M1296.82,404.76V351.47h-13.34v-15.2h13.34V312.06h19.53v24.21h17.41v15.2h-17.41v52.14c0,9.45,4.24,12.28,12.28,12.28a41.47,41.47,0,0,0,5.13-.35v14.75a63,63,0,0,1-9.72.8C1305.66,431.09,1296.82,423.31,1296.82,404.76Z"/><path class="cls-2" d="M1352.17,382.75v-.17c0-29.7,17.59-48.08,44-48.08s44.18,18.3,44.18,48.08v.17c0,30-17.49,48.34-44.09,48.34S1352.17,412.62,1352.17,382.75Zm68.67,0v-.17c0-20.33-9.72-32.08-24.66-32.08-14.67,0-24.48,11.75-24.48,32.08v.17c0,20.59,9.72,32.35,24.66,32.35S1420.84,403.25,1420.84,382.75Z"/><path class="cls-2" d="M1464.18,336.27h19.08v15.91h.44c3-10.87,10.78-17.68,21.39-17.68a37.44,37.44,0,0,1,6.63.71V353a27.34,27.34,0,0,0-8.58-1.06c-12.28,0-19.88,8-19.88,21.92v55.4h-19.08Z"/><path class="cls-2" d="M1524.48,383.11V383c0-29.07,16.79-48.52,42.86-48.52s42.06,18.74,42.06,46.66v6.45h-65.83c.35,17.59,10,27.84,25.18,27.84,11.31,0,18.82-5.83,21.21-12.82l.26-.7h18.12l-.18,1c-3,14.76-17.32,28.19-39.85,28.19C1541,431.09,1524.48,412.44,1524.48,383.11Zm19.35-9h46.66c-1.59-16.08-10.6-23.94-23.06-23.94S1545.51,358.54,1543.83,374.09Z"/><path class="cls-2" d="M599.27,276.45Q581.42,288.86,575,301.38a58.39,58.39,0,0,0-6.42,27.1,56.4,56.4,0,0,0,3.81,21.11,69.28,69.28,0,0,0,10.77,18.18q7,8.61,23.29,17.09-6.32,18.51-19.59,37.77T562.81,450Q552,458,542.24,458q-7.85,0-21.12-5L517,451.47l-6.74-2.83a54.72,54.72,0,0,0-15.9-2.18,60.9,60.9,0,0,0-20,3.92l-5.23,2L462.56,455A42.79,42.79,0,0,1,446.89,458q-16.54,0-35.48-23.18A170.51,170.51,0,0,1,382.78,385a156.74,156.74,0,0,1-9.68-53.88q0-35,19.91-58.34t54.1-23.29A59.5,59.5,0,0,1,470.4,254l5,2,5.22,2.18q7,2.82,11.1,2.83a33.06,33.06,0,0,0,12.19-2.4l7-2.61,5-2a76.24,76.24,0,0,1,27-4.57Q577.93,249.46,599.27,276.45ZM544,172.72q.43,4.78.43,7.4,0,13.5-7.83,27.86a59.15,59.15,0,0,1-20.47,22.31,51.22,51.22,0,0,1-27.86,8,67.57,67.57,0,0,1-.65-7.62q0-11.53,6.85-24.27a66.65,66.65,0,0,1,18.62-21.66,58.73,58.73,0,0,1,26.55-11.32C540.49,173.23,541.94,173,544,172.72Z"/></svg>