<svg id="Layer_1" data-name="Layer 1" xmlns="http://www.w3.org/2000/svg" xmlns:xlink="http://www.w3.org/1999/xlink" viewBox="0 0 1366 768"><defs><style>.cls-1{fill:url(#linear-gradient);}.cls-2{fill:url(#linear-gradient-2);}.cls-3,.cls-4,.cls-5,.cls-6{opacity:0.5;}.cls-3{fill:url(#linear-gradient-3);}.cls-4{fill:url(#linear-gradient-4);}.cls-5{fill:url(#linear-gradient-5);}.cls-6{fill:url(#linear-gradient-6);}.cls-7{fill:url(#linear-gradient-7);}.cls-8{fill:url(#linear-gradient-8);}.cls-9{fill:url(#linear-gradient-9);}.cls-10{fill:url(#linear-gradient-10);}.cls-11{fill:url(#linear-gradient-11);}.cls-12{fill:url(#linear-gradient-12);}.cls-13{fill:url(#linear-gradient-13);}.cls-14{fill:url(#linear-gradient-14);}</style><linearGradient id="linear-gradient" x1="136.78" y1="302.83" x2="317.06" y2="483.11" gradientUnits="userSpaceOnUse"><stop offset="0" stop-color="#3d0056"/><stop offset="1" stop-color="#ff0ba2"/></linearGradient><linearGradient id="linear-gradient-2" x1="461.82" y1="526.12" x2="338.85" y2="239.93" xlink:href="#linear-gradient"/><linearGradient id="linear-gradient-3" x1="136.14" y1="303.48" x2="217.03" y2="384.37" xlink:href="#linear-gradient"/><linearGradient id="linear-gradient-4" x1="163.56" y1="432.7" x2="265.51" y2="534.65" xlink:href="#linear-gradient"/><linearGradient id="linear-gradient-5" x1="423.55" y1="548.02" x2="334.13" y2="440.15" xlink:href="#linear-gradient"/><linearGradient id="linear-gradient-6" x1="505.11" y1="266.01" x2="364.56" y2="424.69" xlink:href="#linear-gradient"/><linearGradient id="linear-gradient-7" x1="3075.4" y1="-988.77" x2="1138.89" y2="833.83" gradientTransform="translate(72.92 1314.78) rotate(-90)" xlink:href="#linear-gradient"/><linearGradient id="linear-gradient-8" x1="2558.56" y1="-1010.84" x2="771.49" y2="671.11" gradientTransform="matrix(1, 0, 0, -1, 0, 1139.61)" xlink:href="#linear-gradient"/><linearGradient id="linear-gradient-9" x1="2737.94" y1="-1469.41" x2="950.87" y2="212.54" gradientTransform="matrix(0, -1, -1, 0, 1275.29, 1287.03)" xlink:href="#linear-gradient"/><linearGradient id="linear-gradient-10" x1="2392.65" y1="-1048.86" x2="605.58" y2="633.09" gradientTransform="matrix(0, 1, 1, 0, 139.87, -86.51)" xlink:href="#linear-gradient"/><linearGradient id="linear-gradient-11" x1="3013.46" y1="-897.5" x2="1226.39" y2="784.45" gradientTransform="matrix(1, 0, 0, -1, 0, 1139.61)" xlink:href="#linear-gradient"/><linearGradient id="linear-gradient-12" x1="614.43" y1="151.05" x2="430.19" y2="301.46" xlink:href="#linear-gradient"/><linearGradient id="linear-gradient-13" x1="595.93" y1="128.39" x2="411.69" y2="278.8" xlink:href="#linear-gradient"/><linearGradient id="linear-gradient-14" x1="629.26" y1="169.22" x2="445.02" y2="319.63" xlink:href="#linear-gradient"/></defs><path class="cls-1" d="M196.25,542.58l-122-122a39.08,39.08,0,0,1,0-55.28l122-122a43.39,43.39,0,0,1,61.34,0h0a43.39,43.39,0,0,1,0,61.34l-77,77a16,16,0,0,0,0,22.54l77,77a43.39,43.39,0,0,1,0,61.34h0A43.39,43.39,0,0,1,196.25,542.58Z"/><path class="cls-2" d="M493.26,349.22A43.51,43.51,0,0,0,472,354.78L407.57,290.4a43.6,43.6,0,1,0-19.82,22.47l64.63,64.64a43.22,43.22,0,0,0,0,30.92l-64.63,64.64a43.73,43.73,0,1,0-40.22,77.65l2.57,1.15.79.35a43.68,43.68,0,0,0,56.68-56.68L472,431.16a43.74,43.74,0,1,0,21.31-81.94Z"/><path class="cls-3" d="M130.8,382.2c47.06-44.59,96.15-87.14,116.74-146.32a43.38,43.38,0,0,0-51.29,7.48l-122,122a39.08,39.08,0,0,0,0,55.28l53.25,53.25a193.86,193.86,0,0,1-10.13-40,76.83,76.83,0,0,1,2.6-33.56A40.57,40.57,0,0,1,130.8,382.2Z"/><path class="cls-4" d="M186.3,410c-8.86,49.53,27.52,90.42,49.18,133.76a58.29,58.29,0,0,1,3.47,9.85,43.35,43.35,0,0,0,18.64-72.33Z"/><path class="cls-5" d="M373.07,507.82C395.73,490,412.23,467,418.84,442l-31.1,31.1a43.73,43.73,0,1,0-40.21,77.65l2.57,1.15h0C351.7,534.24,357.59,519.43,373.07,507.82Z"/><path class="cls-6" d="M493.26,349.22A43.51,43.51,0,0,0,472,354.78L407.57,290.4a43.65,43.65,0,0,0-31.15-58.67c.23,16.79,2.38,33.19,8.62,48.78,23.92,50.84,98.7,65.8,101.69,119.64a337.24,337.24,0,0,1,.84,36.19,42.71,42.71,0,0,0,5.69.38,43.75,43.75,0,0,0,0-87.5Z"/><path class="cls-7" d="M1067.42,352a10.29,10.29,0,0,0,10.32,10.32h49.32c17.5,0,32.23,14.35,31.85,31.85a31.12,31.12,0,0,1-31.09,30.46h-50a10.32,10.32,0,1,0,0,20.64h50a51.82,51.82,0,0,0,51.86-50.85c.5-28.95-23.92-52.75-53-52.75h-49A10.29,10.29,0,0,0,1067.42,352Z"/><path class="cls-8" d="M719,445.29A47.47,47.47,0,0,1,680.29,426a47.7,47.7,0,0,1-37.49,19.29c-26.72.47-48.68-22.07-48.68-48.9V351.23a9.53,9.53,0,0,1,19.06,0v45.51c0,16.15,13.24,29.74,29.38,29.39a28.73,28.73,0,0,0,28-25.74c.18-1.36-.18-49.16-.18-49.16a9.5,9.5,0,0,1,9.52-9.53,9.66,9.66,0,0,1,3.16.54,9.51,9.51,0,0,1,6.7,9.11s-.09,43.22-.1,48.57l.06.87c2,14.3,14.32,25.66,29.1,25.34a28.71,28.71,0,0,0,28.11-28.69V351.35a9.53,9.53,0,1,1,19.05,0v46.09A47.82,47.82,0,0,1,719,445.29Z"/><path class="cls-9" d="M1039.54,388.63a47.47,47.47,0,0,1-19.3,38.74,47.67,47.67,0,0,1,19.3,37.49c.47,26.72-22.07,48.67-48.9,48.67H945.47a9.53,9.53,0,0,1,0-19H991c16.15,0,29.74-13.24,29.39-29.39a28.71,28.71,0,0,0-25.74-28c-1.35-.19-49.16.18-49.16.18a9.49,9.49,0,0,1-9.52-9.53,9.6,9.6,0,0,1,.54-3.15,9.49,9.49,0,0,1,9.1-6.7l48.57.09.88,0c14.3-2,25.65-14.33,25.33-29.1a28.7,28.7,0,0,0-28.69-28.11H945.59a9.53,9.53,0,0,1,0-19.06h46.09A47.82,47.82,0,0,1,1039.54,388.63Z"/><path class="cls-10" d="M796.17,466.6a47.51,47.51,0,0,1,19.3-38.73,47.68,47.68,0,0,1-19.3-37.49c-.46-26.72,22.07-48.68,48.91-48.68h45.16a9.53,9.53,0,0,1,0,19.06H844.73c-16.15,0-29.74,13.24-29.39,29.38a28.72,28.72,0,0,0,25.74,28c1.35.18,49.16-.18,49.16-.18a9.69,9.69,0,0,1-.12,19.38l-48.57-.1-.88.06c-14.3,2-25.65,14.33-25.33,29.1A28.71,28.71,0,0,0,844,494.48h46.09a9.53,9.53,0,0,1,0,19H844A47.82,47.82,0,0,1,796.17,466.6Z"/><path class="cls-11" d="M1256.23,445.29c-26.72.47-48.67-22.07-48.67-48.9V351.23a9.53,9.53,0,1,1,19,0v45.51c0,16.15,13.24,29.74,29.39,29.39a28.71,28.71,0,0,0,28.11-28.69V351.35a9.53,9.53,0,1,1,19.05,0v46.09A47.82,47.82,0,0,1,1256.23,445.29Z"/><polygon class="cls-12" points="503.8 272.35 503.8 281.31 463 281.31 463 272.35 478.19 272.35 478.19 242.34 464.65 242.34 464.65 233.38 489.98 233.38 489.98 272.35 503.8 272.35"/><path class="cls-13" d="M490.92,220.27a7.48,7.48,0,0,1-.56,2.92,7.23,7.23,0,0,1-1.58,2.38,7.45,7.45,0,0,1-5.36,2.2,7.63,7.63,0,0,1-3-.59,7.44,7.44,0,0,1-2.41-1.61,7.08,7.08,0,0,1-1.58-2.38,7.48,7.48,0,0,1-.56-2.92,7.57,7.57,0,0,1,.56-2.93,7.39,7.39,0,0,1,4-4,7.63,7.63,0,0,1,3-.59,7.36,7.36,0,0,1,5.36,2.22,7.65,7.65,0,0,1,1.58,2.4A7.57,7.57,0,0,1,490.92,220.27Z"/><path class="cls-14" d="M529.48,242.36v22.36a4.55,4.55,0,0,0,4.55,4.55h5.2V281.6H534a16.89,16.89,0,0,1-16.89-16.88V242.36h-9.75v-9a15.92,15.92,0,0,0,15.92-15.92v-.64h6.17v16.56h9.75v9Z"/></svg>