<svg xmlns="http://www.w3.org/2000/svg" xmlns:xlink="http://www.w3.org/1999/xlink" viewBox="0 0 105.28 105.28"><defs><style>.cls-1{isolation:isolate;}.cls-2{fill:#ffcf4b;}.cls-3{fill:url(#linear-gradient);}.cls-4{fill:url(#linear-gradient-2);}.cls-5{fill:url(#linear-gradient-3);}.cls-6{fill:#454545;}.cls-7{fill:#fff;}.cls-8{fill:url(#linear-gradient-4);}.cls-9{fill:red;}.cls-10,.cls-12{fill:#d0d3d4;}.cls-11,.cls-13{fill:#646464;}.cls-11,.cls-12{mix-blend-mode:multiply;opacity:0.59;}.cls-14{fill:#ff0;}.cls-15{fill:#ff161f;}.cls-16{fill:url(#linear-gradient-5);}.cls-17{fill:url(#linear-gradient-6);}</style><linearGradient id="linear-gradient" x1="61.51" y1="83" x2="62.3" y2="83" gradientUnits="userSpaceOnUse"><stop offset="0.02" stop-color="#ffbc00"/><stop offset="0.67" stop-color="#ff4d00"/><stop offset="0.98" stop-color="#ff2404"/></linearGradient><linearGradient id="linear-gradient-2" x1="65.73" y1="82.5" x2="67.9" y2="82.5" xlink:href="#linear-gradient"/><linearGradient id="linear-gradient-3" x1="69.75" y1="81.14" x2="73.25" y2="81.14" xlink:href="#linear-gradient"/><linearGradient id="linear-gradient-4" x1="54.96" y1="70.29" x2="79.92" y2="42.21" xlink:href="#linear-gradient"/><linearGradient id="linear-gradient-5" x1="62.05" y1="133.28" x2="149.74" y2="133.28" gradientTransform="matrix(0.89, 0.11, -0.12, 0.99, -30.6, -82.11)" xlink:href="#linear-gradient"/><linearGradient id="linear-gradient-6" x1="44.58" y1="74.14" x2="78.79" y2="35.65" xlink:href="#linear-gradient"/></defs><g class="cls-1"><g id="Layer_1" data-name="Layer 1"><path class="cls-2" d="M59.35,89.6C47,92.15,32.77,89.11,23.52,80.71,8.57,68,5.18,47.1,15,29a38.84,38.84,0,0,0,9.41,40,32.24,32.24,0,0,1-4.13-31,37.17,37.17,0,0,0,6.61,21A37,37,0,0,1,24,49.27a37.88,37.88,0,0,1-.43-6.07,32.9,32.9,0,0,0,3.54,9.17C27,53.3,27,54.25,27,55.21A34.45,34.45,0,0,0,59.35,89.6Z"/><path class="cls-3" d="M62.22,83h-.71v0l.59,0Z"/><path class="cls-4" d="M67.69,82.31c-.65.15-1.3.28-2,.38C66.39,82.59,67,82.46,67.69,82.31Z"/><path class="cls-5" d="M72.91,80.54a26.74,26.74,0,0,1-3.16,1.21A28.61,28.61,0,0,0,72.91,80.54Z"/><path class="cls-6" d="M91.15,36.41a3.62,3.62,0,0,1-.58.47A34.56,34.56,0,0,0,79.74,26.05a3.23,3.23,0,0,1,.47-.58,3.61,3.61,0,0,1,5.11,0l5.83,5.82A3.63,3.63,0,0,1,91.15,36.41Z"/><path class="cls-6" d="M43.07,26.05A34.56,34.56,0,0,0,32.24,36.88a4.26,4.26,0,0,1-.58-.47,3.62,3.62,0,0,1,0-5.12l5.83-5.82a3.62,3.62,0,0,1,5.11,0A3.23,3.23,0,0,1,43.07,26.05Z"/><path class="cls-6" d="M67.43,28.05c-.56-.12-1.13-.22-1.7-.32C66.3,27.82,66.87,27.93,67.43,28.05Z"/><path class="cls-6" d="M69.32,21.68a34.51,34.51,0,0,0-15.83,0,8,8,0,0,1,15.83,0Z"/><path class="cls-7" d="M61.5,55.47h0v-.07A.13.13,0,0,1,61.5,55.47Zm1.87-2.11s0,0,0-.06l0,.06.1.1Zm-.5,4.13a2.54,2.54,0,0,0,.81-.82A2.75,2.75,0,0,1,62.87,57.49Zm-1.37-2h0v-.07A.13.13,0,0,1,61.5,55.47Zm0,0h0v-.07A.13.13,0,0,1,61.5,55.47Zm0,0h0v-.07A.13.13,0,0,1,61.5,55.47Zm1.87-2.11s0,0,0-.06l0,.06.1.1Zm-.5,4.13a2.54,2.54,0,0,0,.81-.82A2.75,2.75,0,0,1,62.87,57.49Zm-1.37-2h0v-.07A.13.13,0,0,1,61.5,55.47Zm0,0h0v-.07A.13.13,0,0,1,61.5,55.47Zm0,0h0v-.07A.13.13,0,0,1,61.5,55.47Zm1.87-2.11s0,0,0-.06l0,.06.1.1Zm-.5,4.13a2.54,2.54,0,0,0,.81-.82A2.75,2.75,0,0,1,62.87,57.49Zm-1.37-2h0v-.07A.13.13,0,0,1,61.5,55.47Zm0,0h0v-.07A.13.13,0,0,1,61.5,55.47Zm0,0h0v-.07A.13.13,0,0,1,61.5,55.47Zm1.87-2.11s0,0,0-.06l0,.06.1.1Zm-.5,4.13a2.54,2.54,0,0,0,.81-.82A2.75,2.75,0,0,1,62.87,57.49Zm-1.37-2h0v-.07A.13.13,0,0,1,61.5,55.47Zm0,0h0v-.07A.13.13,0,0,1,61.5,55.47ZM62.1,83l-.59,0v0h.59Zm3.63-.32c.66-.1,1.31-.23,2-.38C67,82.46,66.39,82.59,65.73,82.69Zm4-.94a26.74,26.74,0,0,0,3.16-1.21A28.61,28.61,0,0,1,69.75,81.75ZM61.5,55.47h0v-.07A.13.13,0,0,1,61.5,55.47Zm1.87-2.11s0,0,0-.06l0,.06.1.1Zm-.5,4.13a2.54,2.54,0,0,0,.81-.82A2.75,2.75,0,0,1,62.87,57.49Zm-1.37-2h0v-.07A.13.13,0,0,1,61.5,55.47Zm0,0h0v-.07A.13.13,0,0,1,61.5,55.47Zm0,0h0v-.07A.13.13,0,0,1,61.5,55.47Zm1.87-2.11s0,0,0-.06l0,.06.1.1Zm-.5,4.13a2.54,2.54,0,0,0,.81-.82A2.75,2.75,0,0,1,62.87,57.49Zm-1.37-2h0v-.07A.13.13,0,0,1,61.5,55.47Zm0,0h0v-.07A.13.13,0,0,1,61.5,55.47Zm8.25,26.28a26.74,26.74,0,0,0,3.16-1.21A28.61,28.61,0,0,1,69.75,81.75Zm-4,.94c.66-.1,1.31-.23,2-.38C67,82.46,66.39,82.59,65.73,82.69ZM62.1,83l-.59,0v0h.59Zm0,0-.59,0v0h.59Zm3.63-55.28c.57.1,1.14.2,1.7.32C66.87,27.93,66.3,27.82,65.73,27.73Zm0,55c.66-.1,1.31-.23,2-.38C67,82.46,66.39,82.59,65.73,82.69Zm4-.94a26.74,26.74,0,0,0,3.16-1.21A28.61,28.61,0,0,1,69.75,81.75ZM61.5,55.47h0v-.07A.13.13,0,0,1,61.5,55.47Zm1.87-2.11s0,0,0-.06l0,.06.1.1Zm-.5,4.13a2.54,2.54,0,0,0,.81-.82A2.75,2.75,0,0,1,62.87,57.49Zm-1.37-2h0v-.07A.13.13,0,0,1,61.5,55.47Zm0,0h0v-.07A.13.13,0,0,1,61.5,55.47Zm0,0h0v-.07A.13.13,0,0,1,61.5,55.47Zm1.87-2.11s0,0,0-.06l0,.06.1.1Zm-.5,4.13a2.54,2.54,0,0,0,.81-.82A2.75,2.75,0,0,1,62.87,57.49Zm-1.37-2h0v-.07A.13.13,0,0,1,61.5,55.47Zm0,0h0v-.07A.13.13,0,0,1,61.5,55.47Zm8.25,26.28a26.74,26.74,0,0,0,3.16-1.21A28.61,28.61,0,0,1,69.75,81.75Zm-4,.94c.66-.1,1.31-.23,2-.38C67,82.46,66.39,82.59,65.73,82.69Zm0-55c.57.1,1.14.2,1.7.32C66.87,27.93,66.3,27.82,65.73,27.73ZM62.1,83l-.59,0v0h.59Zm0,0-.59,0v0h.59Zm3.63-55.28c.57.1,1.14.2,1.7.32C66.87,27.93,66.3,27.82,65.73,27.73Zm0,55c.66-.1,1.31-.23,2-.38C67,82.46,66.39,82.59,65.73,82.69Zm4-.94a26.74,26.74,0,0,0,3.16-1.21A28.61,28.61,0,0,1,69.75,81.75ZM61.5,55.47h0v-.07A.13.13,0,0,1,61.5,55.47Zm1.87-2.11s0,0,0-.06l0,.06.1.1Zm-.5,4.13a2.54,2.54,0,0,0,.81-.82A2.75,2.75,0,0,1,62.87,57.49Zm-1.37-2h0v-.07A.13.13,0,0,1,61.5,55.47Zm0,0h0v-.07A.13.13,0,0,1,61.5,55.47Zm0,0h0v-.07A.13.13,0,0,1,61.5,55.47Zm1.87-2.11s0,0,0-.06l0,.06.1.1Zm-.5,4.13a2.54,2.54,0,0,0,.81-.82A2.75,2.75,0,0,1,62.87,57.49Zm-1.37-2h0v-.07A.13.13,0,0,1,61.5,55.47Zm0,0h0v-.07A.13.13,0,0,1,61.5,55.47Zm8.25,26.28a26.74,26.74,0,0,0,3.16-1.21A28.61,28.61,0,0,1,69.75,81.75Zm-4,.94c.66-.1,1.31-.23,2-.38C67,82.46,66.39,82.59,65.73,82.69Zm0-55c.57.1,1.14.2,1.7.32C66.87,27.93,66.3,27.82,65.73,27.73ZM62.1,83l-.59,0v0h.59Zm0,0-.59,0v0h.59Zm3.63-55.28c.57.1,1.14.2,1.7.32C66.87,27.93,66.3,27.82,65.73,27.73Zm0,55c.66-.1,1.31-.23,2-.38C67,82.46,66.39,82.59,65.73,82.69Zm4-.94a26.74,26.74,0,0,0,3.16-1.21A28.61,28.61,0,0,1,69.75,81.75ZM61.5,55.47h0v-.07A.13.13,0,0,1,61.5,55.47Zm1.87-2.11s0,0,0-.06l0,.06.1.1Zm-.5,4.13a2.54,2.54,0,0,0,.81-.82A2.75,2.75,0,0,1,62.87,57.49Zm-1.37-2h0v-.07A.13.13,0,0,1,61.5,55.47Zm0,0h0v-.07A.13.13,0,0,1,61.5,55.47Zm0,0h0v-.07A.13.13,0,0,1,61.5,55.47Zm1.87-2.11s0,0,0-.06l0,.06.1.1Zm-.5,4.13a2.54,2.54,0,0,0,.81-.82A2.75,2.75,0,0,1,62.87,57.49Zm-1.37-2h0v-.07A.13.13,0,0,1,61.5,55.47Zm0,0h0v-.07A.13.13,0,0,1,61.5,55.47Zm8.25,26.28a26.74,26.74,0,0,0,3.16-1.21A28.61,28.61,0,0,1,69.75,81.75Zm-4,.94c.66-.1,1.31-.23,2-.38C67,82.46,66.39,82.59,65.73,82.69Zm0-55c.57.1,1.14.2,1.7.32C66.87,27.93,66.3,27.82,65.73,27.73ZM62.1,83l-.59,0v0h.59Zm0,0-.59,0v0h.59Zm3.63-55.28c.57.1,1.14.2,1.7.32C66.87,27.93,66.3,27.82,65.73,27.73Zm0,55c.66-.1,1.31-.23,2-.38C67,82.46,66.39,82.59,65.73,82.69Zm4-.94a26.74,26.74,0,0,0,3.16-1.21A28.61,28.61,0,0,1,69.75,81.75ZM61.5,55.47h0v-.07A.13.13,0,0,1,61.5,55.47Zm1.87-2.11s0,0,0-.06l0,.06.1.1Zm-.5,4.13a2.54,2.54,0,0,0,.81-.82A2.75,2.75,0,0,1,62.87,57.49Zm-1.37-2h0v-.07A.13.13,0,0,1,61.5,55.47Zm0,0h0v-.07A.13.13,0,0,1,61.5,55.47Zm0,0h0v-.07A.13.13,0,0,1,61.5,55.47Zm1.87-2.11s0,0,0-.06l0,.06.1.1Zm-.5,4.13a2.54,2.54,0,0,0,.81-.82A2.75,2.75,0,0,1,62.87,57.49Zm-1.37-2h0v-.07A.13.13,0,0,1,61.5,55.47Zm8.25,26.28a26.74,26.74,0,0,0,3.16-1.21A28.61,28.61,0,0,1,69.75,81.75Zm-4,.94c.66-.1,1.31-.23,2-.38C67,82.46,66.39,82.59,65.73,82.69Zm0-55c.57.1,1.14.2,1.7.32C66.87,27.93,66.3,27.82,65.73,27.73ZM62.1,83l-.59,0v0h.59Zm-.6-27.54h0v-.07A.13.13,0,0,1,61.5,55.47Zm0,0h0v-.07A.13.13,0,0,1,61.5,55.47ZM62.1,83l-.59,0v0h.59Zm3.63-55.28c.57.1,1.14.2,1.7.32C66.87,27.93,66.3,27.82,65.73,27.73Zm0,55c.66-.1,1.31-.23,2-.38C67,82.46,66.39,82.59,65.73,82.69Zm4-.94a26.74,26.74,0,0,0,3.16-1.21A28.61,28.61,0,0,1,69.75,81.75ZM63.37,53.36s0,0,0-.06l0,.06.1.1Zm-.5,4.13a2.54,2.54,0,0,0,.81-.82A2.75,2.75,0,0,1,62.87,57.49Zm6.88,24.26a26.74,26.74,0,0,0,3.16-1.21A28.61,28.61,0,0,1,69.75,81.75Zm-4,.94c.66-.1,1.31-.23,2-.38C67,82.46,66.39,82.59,65.73,82.69Zm0-55c.57.1,1.14.2,1.7.32C66.87,27.93,66.3,27.82,65.73,27.73ZM63.37,53.36s0,0,0-.06l0,.06.1.1Zm-.5,4.13a2.54,2.54,0,0,0,.81-.82A2.75,2.75,0,0,1,62.87,57.49ZM62.1,83l-.59,0v0h.59Zm-.6-27.54h0v-.07A.13.13,0,0,1,61.5,55.47Zm0,0h0v-.07A.13.13,0,0,1,61.5,55.47ZM62.1,83l-.59,0v0h.59Zm.77-25.52a2.54,2.54,0,0,0,.81-.82A2.75,2.75,0,0,1,62.87,57.49Zm.5-4.13s0,0,0-.06l0,.06.1.1Zm2.36-25.63c.57.1,1.14.2,1.7.32C66.87,27.93,66.3,27.82,65.73,27.73Zm0,55c.66-.1,1.31-.23,2-.38C67,82.46,66.39,82.59,65.73,82.69Zm4-.94a26.74,26.74,0,0,0,3.16-1.21A28.61,28.61,0,0,1,69.75,81.75Zm0,0a26.74,26.74,0,0,0,3.16-1.21A28.61,28.61,0,0,1,69.75,81.75Zm-4,.94c.66-.1,1.31-.23,2-.38C67,82.46,66.39,82.59,65.73,82.69Zm0-55c.57.1,1.14.2,1.7.32C66.87,27.93,66.3,27.82,65.73,27.73ZM63.37,53.36s0,0,0-.06l0,.06.1.1Zm-.5,4.13a2.54,2.54,0,0,0,.81-.82A2.75,2.75,0,0,1,62.87,57.49ZM62.1,83l-.59,0v0h.59Zm-.6-27.54h0v-.07A.13.13,0,0,1,61.5,55.47Zm0,0h0v-.07A.13.13,0,0,1,61.5,55.47ZM62.1,83l-.59,0v0h.59Zm.77-25.52a2.54,2.54,0,0,0,.81-.82A2.75,2.75,0,0,1,62.87,57.49Zm.5-4.13s0,0,0-.06l0,.06.1.1Zm2.36-25.63c.57.1,1.14.2,1.7.32C66.87,27.93,66.3,27.82,65.73,27.73Zm0,55c.66-.1,1.31-.23,2-.38C67,82.46,66.39,82.59,65.73,82.69Zm4-.94a26.74,26.74,0,0,0,3.16-1.21A28.61,28.61,0,0,1,69.75,81.75Zm0,0a26.74,26.74,0,0,0,3.16-1.21A28.61,28.61,0,0,1,69.75,81.75Zm-4,.94c.66-.1,1.31-.23,2-.38C67,82.46,66.39,82.59,65.73,82.69Zm0-55c.57.1,1.14.2,1.7.32C66.87,27.93,66.3,27.82,65.73,27.73ZM63.37,53.36s0,0,0-.06l0,.06.1.1Zm-.5,4.13a2.54,2.54,0,0,0,.81-.82A2.75,2.75,0,0,1,62.87,57.49ZM62.1,83l-.59,0v0h.59Zm-.6-27.54h0v-.07A.13.13,0,0,1,61.5,55.47Zm0,0h0v-.07A.13.13,0,0,1,61.5,55.47ZM62.1,83l-.59,0v0h.59Zm.77-25.52a2.54,2.54,0,0,0,.81-.82A2.75,2.75,0,0,1,62.87,57.49Zm.5-4.13s0,0,0-.06l0,.06.1.1Zm2.36-25.63c.57.1,1.14.2,1.7.32C66.87,27.93,66.3,27.82,65.73,27.73Zm0,55c.66-.1,1.31-.23,2-.38C67,82.46,66.39,82.59,65.73,82.69Zm4-.94a26.74,26.74,0,0,0,3.16-1.21A28.61,28.61,0,0,1,69.75,81.75Zm0,0a26.74,26.74,0,0,0,3.16-1.21A28.61,28.61,0,0,1,69.75,81.75Zm-4,.94c.66-.1,1.31-.23,2-.38C67,82.46,66.39,82.59,65.73,82.69Zm0-55c.57.1,1.14.2,1.7.32C66.87,27.93,66.3,27.82,65.73,27.73ZM63.37,53.36s0,0,0-.06l0,.06.1.1Zm-.5,4.13a2.54,2.54,0,0,0,.81-.82A2.75,2.75,0,0,1,62.87,57.49ZM62.1,83l-.59,0v0h.59Zm-.6-27.54h0v-.07A.13.13,0,0,1,61.5,55.47Zm0,0h0v-.07A.13.13,0,0,1,61.5,55.47ZM62.1,83l-.59,0v0h.59Zm.77-25.52a2.54,2.54,0,0,0,.81-.82A2.75,2.75,0,0,1,62.87,57.49Zm.5-4.13s0,0,0-.06l0,.06.1.1Zm2.36-25.63c.57.1,1.14.2,1.7.32C66.87,27.93,66.3,27.82,65.73,27.73Zm0,55c.66-.1,1.31-.23,2-.38C67,82.46,66.39,82.59,65.73,82.69Zm4-.94a26.74,26.74,0,0,0,3.16-1.21A28.61,28.61,0,0,1,69.75,81.75Zm0-53.08a26.79,26.79,0,0,1,3.16,1.22A26.79,26.79,0,0,0,69.75,28.67Zm0,0a26.79,26.79,0,0,1,3.16,1.22A26.79,26.79,0,0,0,69.75,28.67Zm0,53.08a26.74,26.74,0,0,0,3.16-1.21A28.61,28.61,0,0,1,69.75,81.75Zm-4,.94c.66-.1,1.31-.23,2-.38C67,82.46,66.39,82.59,65.73,82.69Zm0-55c.57.1,1.14.2,1.7.32C66.87,27.93,66.3,27.82,65.73,27.73ZM63.37,53.36s0,0,0-.06l0,.06.1.1Zm-.5,4.13a2.54,2.54,0,0,0,.81-.82A2.75,2.75,0,0,1,62.87,57.49ZM62.1,83l-.59,0v0h.59Zm-.6-27.54h0v-.07A.13.13,0,0,1,61.5,55.47Zm8.25-26.8a26.79,26.79,0,0,1,3.16,1.22A26.79,26.79,0,0,0,69.75,28.67Zm0,53.08a26.74,26.74,0,0,0,3.16-1.21A28.61,28.61,0,0,1,69.75,81.75Zm-4,.94c.66-.1,1.31-.23,2-.38C67,82.46,66.39,82.59,65.73,82.69Zm0-55c.57.1,1.14.2,1.7.32C66.87,27.93,66.3,27.82,65.73,27.73ZM63.37,53.36s0,0,0-.06l0,.06.1.1Zm-.5,4.13a2.54,2.54,0,0,0,.81-.82A2.75,2.75,0,0,1,62.87,57.49ZM62.1,83l-.59,0v0h.59Zm-.6-27.54h0v-.07A.13.13,0,0,1,61.5,55.47Zm0,0h0v-.07A.13.13,0,0,1,61.5,55.47ZM62.1,83l-.59,0v0h.59Zm.77-25.52a2.54,2.54,0,0,0,.81-.82A2.75,2.75,0,0,1,62.87,57.49Zm.5-4.13s0,0,0-.06l0,.06.1.1Zm2.36-25.63c.57.1,1.14.2,1.7.32C66.87,27.93,66.3,27.82,65.73,27.73Zm0,55c.66-.1,1.31-.23,2-.38C67,82.46,66.39,82.59,65.73,82.69Zm4-.94a26.74,26.74,0,0,0,3.16-1.21A28.61,28.61,0,0,1,69.75,81.75Zm0-53.08a26.79,26.79,0,0,1,3.16,1.22A26.79,26.79,0,0,0,69.75,28.67Zm0,0a26.79,26.79,0,0,1,3.16,1.22A26.79,26.79,0,0,0,69.75,28.67Zm0,53.08a26.74,26.74,0,0,0,3.16-1.21A28.61,28.61,0,0,1,69.75,81.75Zm-4,.94c.66-.1,1.31-.23,2-.38C67,82.46,66.39,82.59,65.73,82.69Zm0-55c.57.1,1.14.2,1.7.32C66.87,27.93,66.3,27.82,65.73,27.73ZM63.37,53.36s0,0,0-.06l0,.06.1.1Zm-.5,4.13a2.54,2.54,0,0,0,.81-.82A2.75,2.75,0,0,1,62.87,57.49ZM62.1,83l-.59,0v0h.59Zm-.6-27.54h0v-.07A.13.13,0,0,1,61.5,55.47Zm0,0h0v-.07A.13.13,0,0,1,61.5,55.47ZM62.1,83l-.59,0v0h.59Zm.77-25.52a2.54,2.54,0,0,0,.81-.82A2.75,2.75,0,0,1,62.87,57.49Zm.5-4.13s0,0,0-.06l0,.06.1.1Zm2.36-25.63c.57.1,1.14.2,1.7.32C66.87,27.93,66.3,27.82,65.73,27.73Zm0,55c.66-.1,1.31-.23,2-.38C67,82.46,66.39,82.59,65.73,82.69Zm4-.94a26.74,26.74,0,0,0,3.16-1.21A28.61,28.61,0,0,1,69.75,81.75Zm0,0a26.74,26.74,0,0,0,3.16-1.21A28.61,28.61,0,0,1,69.75,81.75Zm-4,.94c.66-.1,1.31-.23,2-.38C67,82.46,66.39,82.59,65.73,82.69Zm0-55c.57.1,1.14.2,1.7.32C66.87,27.93,66.3,27.82,65.73,27.73ZM63.37,53.36s0,0,0-.06l0,.06.1.1Zm-.5,4.13a2.54,2.54,0,0,0,.81-.82A2.75,2.75,0,0,1,62.87,57.49ZM62.1,83l-.59,0v0h.59Zm-.6-27.54h0v-.07A.13.13,0,0,1,61.5,55.47Zm0,0h0v-.07A.13.13,0,0,1,61.5,55.47ZM62.1,83l-.59,0v0h.59Zm.77-25.52a2.54,2.54,0,0,0,.81-.82A2.75,2.75,0,0,1,62.87,57.49Zm.5-4.13s0,0,0-.06l0,.06.1.1Zm2.36-25.63c.57.1,1.14.2,1.7.32C66.87,27.93,66.3,27.82,65.73,27.73Zm0,55c.66-.1,1.31-.23,2-.38C67,82.46,66.39,82.59,65.73,82.69Zm4-.94a26.74,26.74,0,0,0,3.16-1.21A28.61,28.61,0,0,1,69.75,81.75Zm0,0a26.74,26.74,0,0,0,3.16-1.21A28.61,28.61,0,0,1,69.75,81.75Zm-4,.94c.66-.1,1.31-.23,2-.38C67,82.46,66.39,82.59,65.73,82.69Zm0-55c.57.1,1.14.2,1.7.32C66.87,27.93,66.3,27.82,65.73,27.73ZM63.37,53.36s0,0,0-.06l0,.06.1.1Zm-.5,4.13a2.54,2.54,0,0,0,.81-.82A2.75,2.75,0,0,1,62.87,57.49ZM62.1,83l-.59,0v0h.59Zm-.6-27.54h0v-.07A.13.13,0,0,1,61.5,55.47Zm0,0h0v-.07A.13.13,0,0,1,61.5,55.47ZM62.1,83l-.59,0v0h.59Zm.77-25.52a2.54,2.54,0,0,0,.81-.82A2.75,2.75,0,0,1,62.87,57.49Zm.5-4.13s0,0,0-.06l0,.06.1.1Zm2.36-25.63c.57.1,1.14.2,1.7.32C66.87,27.93,66.3,27.82,65.73,27.73Zm0,55c.66-.1,1.31-.23,2-.38C67,82.46,66.39,82.59,65.73,82.69Zm4-.94a26.74,26.74,0,0,0,3.16-1.21A28.61,28.61,0,0,1,69.75,81.75Zm0,0a26.74,26.74,0,0,0,3.16-1.21A28.61,28.61,0,0,1,69.75,81.75Zm-4,.94c.66-.1,1.31-.23,2-.38C67,82.46,66.39,82.59,65.73,82.69Zm0-55c.57.1,1.14.2,1.7.32C66.87,27.93,66.3,27.82,65.73,27.73ZM63.37,53.36s0,0,0-.06l0,.06.1.1Zm-.5,4.13a2.54,2.54,0,0,0,.81-.82A2.75,2.75,0,0,1,62.87,57.49ZM62.1,83l-.59,0v0h.59Zm-.6-27.54h0v-.07A.13.13,0,0,1,61.5,55.47Zm0,0h0v-.07A.13.13,0,0,1,61.5,55.47ZM62.1,83l-.59,0v0h.59Zm3.63-55.28c.57.1,1.14.2,1.7.32C66.87,27.93,66.3,27.82,65.73,27.73Zm0,55c.66-.1,1.31-.23,2-.38C67,82.46,66.39,82.59,65.73,82.69Zm4-.94a26.74,26.74,0,0,0,3.16-1.21A28.61,28.61,0,0,1,69.75,81.75ZM63.37,53.36s0,0,0-.06l0,.06.1.1Zm-.5,4.13a2.54,2.54,0,0,0,.81-.82A2.75,2.75,0,0,1,62.87,57.49Zm-1.37-2h0v-.07A.13.13,0,0,1,61.5,55.47Zm1.87-2.11s0,0,0-.06l0,.06.1.1Zm-.5,4.13a2.54,2.54,0,0,0,.81-.82A2.75,2.75,0,0,1,62.87,57.49Zm-1.37-2h0v-.07A.13.13,0,0,1,61.5,55.47Zm8.25,26.28a26.74,26.74,0,0,0,3.16-1.21A28.61,28.61,0,0,1,69.75,81.75Zm-4,.94c.66-.1,1.31-.23,2-.38C67,82.46,66.39,82.59,65.73,82.69Zm0-55c.57.1,1.14.2,1.7.32C66.87,27.93,66.3,27.82,65.73,27.73ZM62.1,83l-.59,0v0h.59Zm-.6-27.54h0v-.07A.13.13,0,0,1,61.5,55.47ZM62.1,83l-.59,0v0h.59Zm3.63-55.28c.57.1,1.14.2,1.7.32C66.87,27.93,66.3,27.82,65.73,27.73Zm0,55c.66-.1,1.31-.23,2-.38C67,82.46,66.39,82.59,65.73,82.69Zm4-.94a26.74,26.74,0,0,0,3.16-1.21A28.61,28.61,0,0,1,69.75,81.75ZM61.5,55.47h0v-.07A.13.13,0,0,1,61.5,55.47Zm1.87-2.11s0,0,0-.06l0,.06.1.1Zm-.5,4.13a2.54,2.54,0,0,0,.81-.82A2.75,2.75,0,0,1,62.87,57.49Zm-1.37-2h0v-.07A.13.13,0,0,1,61.5,55.47Zm0,0h0v-.07A.13.13,0,0,1,61.5,55.47Zm0,0h0v-.07A.13.13,0,0,1,61.5,55.47Zm1.87-2.11s0,0,0-.06l0,.06.1.1Zm-.5,4.13a2.54,2.54,0,0,0,.81-.82A2.75,2.75,0,0,1,62.87,57.49Zm-1.37-2h0v-.07A.13.13,0,0,1,61.5,55.47Zm0,0h0v-.07A.13.13,0,0,1,61.5,55.47Zm8.25,26.28a26.74,26.74,0,0,0,3.16-1.21A28.61,28.61,0,0,1,69.75,81.75Zm-4,.94c.66-.1,1.31-.23,2-.38C67,82.46,66.39,82.59,65.73,82.69Zm0-55c.57.1,1.14.2,1.7.32C66.87,27.93,66.3,27.82,65.73,27.73ZM62.1,83l-.59,0v0h.59Zm0,0-.59,0v0h.59Zm3.63-55.28c.57.1,1.14.2,1.7.32C66.87,27.93,66.3,27.82,65.73,27.73Zm0,55c.66-.1,1.31-.23,2-.38C67,82.46,66.39,82.59,65.73,82.69Zm4-.94a26.74,26.74,0,0,0,3.16-1.21A28.61,28.61,0,0,1,69.75,81.75ZM61.5,55.47h0v-.07A.13.13,0,0,1,61.5,55.47Zm1.87-2.11s0,0,0-.06l0,.06.1.1Zm-.5,4.13a2.54,2.54,0,0,0,.81-.82A2.75,2.75,0,0,1,62.87,57.49Zm-1.37-2h0v-.07A.13.13,0,0,1,61.5,55.47Zm0,0h0v-.07A.13.13,0,0,1,61.5,55.47Zm0,0h0v-.07A.13.13,0,0,1,61.5,55.47Zm1.87-2.11s0,0,0-.06l0,.06.1.1Zm-.5,4.13a2.54,2.54,0,0,0,.81-.82A2.75,2.75,0,0,1,62.87,57.49Zm-1.37-2h0v-.07A.13.13,0,0,1,61.5,55.47Zm0,0h0v-.07A.13.13,0,0,1,61.5,55.47Zm8.25,26.28a26.74,26.74,0,0,0,3.16-1.21A28.61,28.61,0,0,1,69.75,81.75Zm-4,.94c.66-.1,1.31-.23,2-.38C67,82.46,66.39,82.59,65.73,82.69Zm0-55c.57.1,1.14.2,1.7.32C66.87,27.93,66.3,27.82,65.73,27.73ZM62.1,83l-.59,0v0h.59Zm0,0-.59,0v0h.59Zm3.63-55.28c.57.1,1.14.2,1.7.32C66.87,27.93,66.3,27.82,65.73,27.73Zm0,55c.66-.1,1.31-.23,2-.38C67,82.46,66.39,82.59,65.73,82.69Zm4-.94a26.74,26.74,0,0,0,3.16-1.21A28.61,28.61,0,0,1,69.75,81.75ZM61.5,55.47h0v-.07A.13.13,0,0,1,61.5,55.47Zm1.87-2.11s0,0,0-.06l0,.06.1.1Zm-.5,4.13a2.54,2.54,0,0,0,.81-.82A2.75,2.75,0,0,1,62.87,57.49Zm-1.37-2h0v-.07A.13.13,0,0,1,61.5,55.47Zm0,0h0v-.07A.13.13,0,0,1,61.5,55.47Zm0,0h0v-.07A.13.13,0,0,1,61.5,55.47Zm1.87-2.11s0,0,0-.06l0,.06.1.1Zm-.5,4.13a2.54,2.54,0,0,0,.81-.82A2.75,2.75,0,0,1,62.87,57.49Zm-1.37-2h0v-.07A.13.13,0,0,1,61.5,55.47Zm0,0h0v-.07A.13.13,0,0,1,61.5,55.47Zm8.25,26.28a26.74,26.74,0,0,0,3.16-1.21A28.61,28.61,0,0,1,69.75,81.75Zm-4,.94c.66-.1,1.31-.23,2-.38C67,82.46,66.39,82.59,65.73,82.69Zm0-55c.57.1,1.14.2,1.7.32C66.87,27.93,66.3,27.82,65.73,27.73ZM62.1,83l-.59,0v0h.59Zm0,0-.59,0v0h.59Zm3.63-.32c.66-.1,1.31-.23,2-.38C67,82.46,66.39,82.59,65.73,82.69Zm4-.94a26.74,26.74,0,0,0,3.16-1.21A28.61,28.61,0,0,1,69.75,81.75ZM61.5,55.47h0v-.07A.13.13,0,0,1,61.5,55.47Zm1.87-2.11s0,0,0-.06l0,.06.1.1Zm-.5,4.13a2.54,2.54,0,0,0,.81-.82A2.75,2.75,0,0,1,62.87,57.49Zm-1.37-2h0v-.07A.13.13,0,0,1,61.5,55.47Zm0,0h0v-.07A.13.13,0,0,1,61.5,55.47Zm0,0h0v-.07A.13.13,0,0,1,61.5,55.47Zm1.87-2.11s0,0,0-.06l0,.06.1.1Zm-.5,4.13a2.54,2.54,0,0,0,.81-.82A2.75,2.75,0,0,1,62.87,57.49Zm-1.37-2h0v-.07A.13.13,0,0,1,61.5,55.47Zm0,0h0v-.07A.13.13,0,0,1,61.5,55.47Zm8.25,26.28a26.74,26.74,0,0,0,3.16-1.21A28.61,28.61,0,0,1,69.75,81.75Zm-4,.94c.66-.1,1.31-.23,2-.38C67,82.46,66.39,82.59,65.73,82.69ZM62.1,83l-.59,0v0h.59Zm-.6-27.54h0v-.07A.13.13,0,0,1,61.5,55.47Zm1.87-2.11s0,0,0-.06l0,.06.1.1Zm-.5,4.13a2.54,2.54,0,0,0,.81-.82A2.75,2.75,0,0,1,62.87,57.49Zm-1.37-2h0v-.07A.13.13,0,0,1,61.5,55.47Zm0,0h0v-.07A.13.13,0,0,1,61.5,55.47Zm0,0h0v-.07A.13.13,0,0,1,61.5,55.47Zm1.87-2.11s0,0,0-.06l0,.06.1.1Zm-.5,4.13a2.54,2.54,0,0,0,.81-.82A2.75,2.75,0,0,1,62.87,57.49Zm-1.37-2h0v-.07A.13.13,0,0,1,61.5,55.47Zm0,0h0v-.07A.13.13,0,0,1,61.5,55.47Zm0,0h0v-.07A.13.13,0,0,1,61.5,55.47Zm1.87-2.11s0,0,0-.06l0,.06.1.1Zm-.5,4.13a2.54,2.54,0,0,0,.81-.82A2.75,2.75,0,0,1,62.87,57.49Zm-1.37-2h0v-.07A.13.13,0,0,1,61.5,55.47Zm0,0h0v-.07A.13.13,0,0,1,61.5,55.47Zm0,0h0v-.07A.13.13,0,0,1,61.5,55.47Zm1.87-2.11s0,0,0-.06l0,.06.1.1Zm-.5,4.13a2.54,2.54,0,0,0,.81-.82A2.75,2.75,0,0,1,62.87,57.49Zm-1.37-2h0v-.07A.13.13,0,0,1,61.5,55.47Zm0,0h0v-.07A.13.13,0,0,1,61.5,55.47Z"/><path class="cls-8" d="M61.5,55.47h0v-.07A.13.13,0,0,1,61.5,55.47Zm1.87-2.11s0,0,0-.06l0,.06.1.1Zm-.5,4.13a2.54,2.54,0,0,0,.81-.82A2.75,2.75,0,0,1,62.87,57.49Zm-1.37-2h0v-.07A.13.13,0,0,1,61.5,55.47Zm0,0h0v-.07A.13.13,0,0,1,61.5,55.47Zm0,0h0v-.07A.13.13,0,0,1,61.5,55.47Zm1.87-2.11s0,0,0-.06l0,.06.1.1Zm-.5,4.13a2.54,2.54,0,0,0,.81-.82A2.75,2.75,0,0,1,62.87,57.49Zm-1.37-2h0v-.07A.13.13,0,0,1,61.5,55.47Zm0,0h0v-.07A.13.13,0,0,1,61.5,55.47Zm0,0h0v-.07A.13.13,0,0,1,61.5,55.47Zm1.87-2.11s0,0,0-.06l0,.06.1.1Zm-.5,4.13a2.54,2.54,0,0,0,.81-.82A2.75,2.75,0,0,1,62.87,57.49Zm-1.37-2h0v-.07A.13.13,0,0,1,61.5,55.47Zm0,0h0v-.07A.13.13,0,0,1,61.5,55.47Zm0,0h0v-.07A.13.13,0,0,1,61.5,55.47Zm1.87-2.11s0,0,0-.06l0,.06.1.1Zm-.5,4.13a2.54,2.54,0,0,0,.81-.82A2.75,2.75,0,0,1,62.87,57.49Zm-1.37-2h0v-.07A.13.13,0,0,1,61.5,55.47Zm0,0h0v-.07A.13.13,0,0,1,61.5,55.47Zm0,0h0v-.07A.13.13,0,0,1,61.5,55.47Zm1.87-2.11s0,0,0-.06l0,.06.1.1Zm-.5,4.13a2.54,2.54,0,0,0,.81-.82A2.75,2.75,0,0,1,62.87,57.49Zm-1.37-2h0v-.07A.13.13,0,0,1,61.5,55.47Zm0,0h0v-.07A.13.13,0,0,1,61.5,55.47ZM62.1,83l-.59,0v0h.59Zm3.63-.32c.66-.1,1.31-.23,2-.38C67,82.46,66.39,82.59,65.73,82.69Zm4-.94a26.74,26.74,0,0,0,3.16-1.21A28.61,28.61,0,0,1,69.75,81.75ZM61.5,55.47h0v-.07A.13.13,0,0,1,61.5,55.47Zm1.87-2.11s0,0,0-.06l0,.06.1.1Zm-.5,4.13a2.54,2.54,0,0,0,.81-.82A2.75,2.75,0,0,1,62.87,57.49Zm-1.37-2h0v-.07A.13.13,0,0,1,61.5,55.47Zm0,0h0v-.07A.13.13,0,0,1,61.5,55.47ZM62.1,83l-.59,0v0h.59Zm3.63-55.28c.57.1,1.14.2,1.7.32C66.87,27.93,66.3,27.82,65.73,27.73Zm0,55c.66-.1,1.31-.23,2-.38C67,82.46,66.39,82.59,65.73,82.69Zm4-.94a26.74,26.74,0,0,0,3.16-1.21A28.61,28.61,0,0,1,69.75,81.75ZM61.5,55.47h0v-.07A.13.13,0,0,1,61.5,55.47Zm1.87-2.11s0,0,0-.06l0,.06.1.1Zm-.5,4.13a2.54,2.54,0,0,0,.81-.82A2.75,2.75,0,0,1,62.87,57.49Zm-1.37-2h0v-.07A.13.13,0,0,1,61.5,55.47Zm0,0h0v-.07A.13.13,0,0,1,61.5,55.47ZM62.1,83l-.59,0v0h.59Zm3.63-55.28c.57.1,1.14.2,1.7.32C66.87,27.93,66.3,27.82,65.73,27.73Zm0,55c.66-.1,1.31-.23,2-.38C67,82.46,66.39,82.59,65.73,82.69Zm4-.94a26.74,26.74,0,0,0,3.16-1.21A28.61,28.61,0,0,1,69.75,81.75ZM61.5,55.47h0v-.07A.13.13,0,0,1,61.5,55.47Zm1.87-2.11s0,0,0-.06l0,.06.1.1Zm-.5,4.13a2.54,2.54,0,0,0,.81-.82A2.75,2.75,0,0,1,62.87,57.49Zm-1.37-2h0v-.07A.13.13,0,0,1,61.5,55.47Zm0,0h0v-.07A.13.13,0,0,1,61.5,55.47ZM62.1,83l-.59,0v0h.59Zm3.63-55.28c.57.1,1.14.2,1.7.32C66.87,27.93,66.3,27.82,65.73,27.73Zm0,55c.66-.1,1.31-.23,2-.38C67,82.46,66.39,82.59,65.73,82.69Zm4-.94a26.74,26.74,0,0,0,3.16-1.21A28.61,28.61,0,0,1,69.75,81.75ZM62.1,83l-.59,0v0h.59Zm3.63-55.28c.57.1,1.14.2,1.7.32C66.87,27.93,66.3,27.82,65.73,27.73Zm0,55c.66-.1,1.31-.23,2-.38C67,82.46,66.39,82.59,65.73,82.69Zm4-.94a26.74,26.74,0,0,0,3.16-1.21A28.61,28.61,0,0,1,69.75,81.75ZM61.5,55.47h0v-.07A.13.13,0,0,1,61.5,55.47Zm1.87-2.11s0,0,0-.06l0,.06.1.1Zm-.5,4.13a2.54,2.54,0,0,0,.81-.82A2.75,2.75,0,0,1,62.87,57.49Zm-1.37-2h0v-.07A.13.13,0,0,1,61.5,55.47Zm0,0h0v-.07A.13.13,0,0,1,61.5,55.47Zm0,0h0v-.07A.13.13,0,0,1,61.5,55.47ZM62.1,83l-.59,0v0h.59Zm3.63-55.28c.57.1,1.14.2,1.7.32C66.87,27.93,66.3,27.82,65.73,27.73Zm0,55c.66-.1,1.31-.23,2-.38C67,82.46,66.39,82.59,65.73,82.69Zm4-.94a26.74,26.74,0,0,0,3.16-1.21A28.61,28.61,0,0,1,69.75,81.75ZM63.37,53.36s0,0,0-.06l0,.06.1.1Zm-.5,4.13a2.54,2.54,0,0,0,.81-.82A2.75,2.75,0,0,1,62.87,57.49Zm-1.37-2h0v-.07A.13.13,0,0,1,61.5,55.47ZM62.1,83l-.59,0v0h.59Zm.77-25.52a2.54,2.54,0,0,0,.81-.82A2.75,2.75,0,0,1,62.87,57.49Zm.5-4.13s0,0,0-.06l0,.06.1.1Zm2.36-25.63c.57.1,1.14.2,1.7.32C66.87,27.93,66.3,27.82,65.73,27.73Zm0,55c.66-.1,1.31-.23,2-.38C67,82.46,66.39,82.59,65.73,82.69Zm4-.94a26.74,26.74,0,0,0,3.16-1.21A28.61,28.61,0,0,1,69.75,81.75ZM61.5,55.47h0v-.07A.13.13,0,0,1,61.5,55.47ZM62.1,83l-.59,0v0h.59Zm.77-25.52a2.54,2.54,0,0,0,.81-.82A2.75,2.75,0,0,1,62.87,57.49Zm.5-4.13s0,0,0-.06l0,.06.1.1Zm2.36-25.63c.57.1,1.14.2,1.7.32C66.87,27.93,66.3,27.82,65.73,27.73Zm0,55c.66-.1,1.31-.23,2-.38C67,82.46,66.39,82.59,65.73,82.69Zm4-.94a26.74,26.74,0,0,0,3.16-1.21A28.61,28.61,0,0,1,69.75,81.75ZM61.5,55.47h0v-.07A.13.13,0,0,1,61.5,55.47ZM62.1,83l-.59,0v0h.59Zm.77-25.52a2.54,2.54,0,0,0,.81-.82A2.75,2.75,0,0,1,62.87,57.49Zm.5-4.13s0,0,0-.06l0,.06.1.1Zm2.36-25.63c.57.1,1.14.2,1.7.32C66.87,27.93,66.3,27.82,65.73,27.73Zm0,55c.66-.1,1.31-.23,2-.38C67,82.46,66.39,82.59,65.73,82.69Zm4-.94a26.74,26.74,0,0,0,3.16-1.21A28.61,28.61,0,0,1,69.75,81.75Zm0-53.08a26.79,26.79,0,0,1,3.16,1.22A26.79,26.79,0,0,0,69.75,28.67Zm0,53.08a26.74,26.74,0,0,0,3.16-1.21A28.61,28.61,0,0,1,69.75,81.75Zm-4,.94c.66-.1,1.31-.23,2-.38C67,82.46,66.39,82.59,65.73,82.69Zm0-55c.57.1,1.14.2,1.7.32C66.87,27.93,66.3,27.82,65.73,27.73ZM63.37,53.36s0,0,0-.06l0,.06.1.1Zm-.5,4.13a2.54,2.54,0,0,0,.81-.82A2.75,2.75,0,0,1,62.87,57.49ZM62.1,83l-.59,0v0h.59Zm-.6-27.54h0v-.07A.13.13,0,0,1,61.5,55.47Zm8.25,26.28a26.74,26.74,0,0,0,3.16-1.21A28.61,28.61,0,0,1,69.75,81.75Zm-4,.94c.66-.1,1.31-.23,2-.38C67,82.46,66.39,82.59,65.73,82.69Zm0-55c.57.1,1.14.2,1.7.32C66.87,27.93,66.3,27.82,65.73,27.73ZM63.37,53.36s0,0,0-.06l0,.06.1.1Zm-.5,4.13a2.54,2.54,0,0,0,.81-.82A2.75,2.75,0,0,1,62.87,57.49ZM62.1,83l-.59,0v0h.59Zm-.6-27.54h0v-.07A.13.13,0,0,1,61.5,55.47Zm8.25,26.28a26.74,26.74,0,0,0,3.16-1.21A28.61,28.61,0,0,1,69.75,81.75Zm-4,.94c.66-.1,1.31-.23,2-.38C67,82.46,66.39,82.59,65.73,82.69Zm0-55c.57.1,1.14.2,1.7.32C66.87,27.93,66.3,27.82,65.73,27.73ZM63.37,53.36s0,0,0-.06l0,.06.1.1Zm-.5,4.13a2.54,2.54,0,0,0,.81-.82A2.75,2.75,0,0,1,62.87,57.49ZM62.1,83l-.59,0v0h.59Zm-.6-27.54h0v-.07A.13.13,0,0,1,61.5,55.47Zm0,0h0v-.07A.13.13,0,0,1,61.5,55.47Zm1.87-2.11s0,0,0-.06l0,.06.1.1Zm-.5,4.13a2.54,2.54,0,0,0,.81-.82A2.75,2.75,0,0,1,62.87,57.49Zm-1.37-2h0v-.07A.13.13,0,0,1,61.5,55.47Zm8.25,26.28a26.74,26.74,0,0,0,3.16-1.21A28.61,28.61,0,0,1,69.75,81.75Zm-4,.94c.66-.1,1.31-.23,2-.38C67,82.46,66.39,82.59,65.73,82.69Zm0-55c.57.1,1.14.2,1.7.32C66.87,27.93,66.3,27.82,65.73,27.73ZM62.1,83l-.59,0v0h.59Zm-.6-27.54h0v-.07A.13.13,0,0,1,61.5,55.47Zm0,0h0v-.07A.13.13,0,0,1,61.5,55.47Zm1.87-2.11s0,0,0-.06l0,.06.1.1Zm-.5,4.13a2.54,2.54,0,0,0,.81-.82A2.75,2.75,0,0,1,62.87,57.49Zm-1.37-2h0v-.07A.13.13,0,0,1,61.5,55.47Zm0,0h0v-.07A.13.13,0,0,1,61.5,55.47Zm8.25,26.28a26.74,26.74,0,0,0,3.16-1.21A28.61,28.61,0,0,1,69.75,81.75Zm-4,.94c.66-.1,1.31-.23,2-.38C67,82.46,66.39,82.59,65.73,82.69Zm0-55c.57.1,1.14.2,1.7.32C66.87,27.93,66.3,27.82,65.73,27.73ZM62.1,83l-.59,0v0h.59Zm7.65-1.26a26.74,26.74,0,0,0,3.16-1.21A28.61,28.61,0,0,1,69.75,81.75Zm-4,.94c.66-.1,1.31-.23,2-.38C67,82.46,66.39,82.59,65.73,82.69Zm0-55c.57.1,1.14.2,1.7.32C66.87,27.93,66.3,27.82,65.73,27.73ZM62.1,83l-.59,0v0h.59Zm-.6-27.54h0v-.07A.13.13,0,0,1,61.5,55.47Zm1.87-2.11s0,0,0-.06l0,.06.1.1Zm-.5,4.13a2.54,2.54,0,0,0,.81-.82A2.75,2.75,0,0,1,62.87,57.49Zm-1.37-2h0v-.07A.13.13,0,0,1,61.5,55.47Zm0,0h0v-.07A.13.13,0,0,1,61.5,55.47Zm8.25,26.28a26.74,26.74,0,0,0,3.16-1.21A28.61,28.61,0,0,1,69.75,81.75Zm-4,.94c.66-.1,1.31-.23,2-.38C67,82.46,66.39,82.59,65.73,82.69ZM62.1,83l-.59,0v0h.59Zm-.6-27.54h0v-.07A.13.13,0,0,1,61.5,55.47Zm1.87-2.11s0,0,0-.06l0,.06.1.1Zm-.5,4.13a2.54,2.54,0,0,0,.81-.82A2.75,2.75,0,0,1,62.87,57.49Zm-1.37-2h0v-.07A.13.13,0,0,1,61.5,55.47Zm0,0h0v-.07A.13.13,0,0,1,61.5,55.47Zm8.25,26.28a26.74,26.74,0,0,0,3.16-1.21A28.61,28.61,0,0,1,69.75,81.75Zm-4,.94c.66-.1,1.31-.23,2-.38C67,82.46,66.39,82.59,65.73,82.69ZM62.1,83l-.59,0v0h.59Zm-.6-27.54h0v-.07A.13.13,0,0,1,61.5,55.47Zm1.87-2.11s0,0,0-.06l0,.06.1.1Zm-.5,4.13a2.54,2.54,0,0,0,.81-.82A2.75,2.75,0,0,1,62.87,57.49Zm-1.37-2h0v-.07A.13.13,0,0,1,61.5,55.47Zm0,0h0v-.07A.13.13,0,0,1,61.5,55.47Zm0,0h0v-.07A.13.13,0,0,1,61.5,55.47Zm1.87-2.11s0,0,0-.06l0,.06.1.1Zm-.5,4.13a2.54,2.54,0,0,0,.81-.82A2.75,2.75,0,0,1,62.87,57.49Zm-1.37-2h0v-.07A.13.13,0,0,1,61.5,55.47Zm0,0h0v-.07A.13.13,0,0,1,61.5,55.47Zm0,0h0v-.07A.13.13,0,0,1,61.5,55.47Zm1.87-2.11s0,0,0-.06l0,.06.1.1Zm-.5,4.13a2.54,2.54,0,0,0,.81-.82A2.75,2.75,0,0,1,62.87,57.49Zm-1.37-2h0v-.07A.13.13,0,0,1,61.5,55.47Zm0,0h0v-.07A.13.13,0,0,1,61.5,55.47Zm0,0h0v-.07A.13.13,0,0,1,61.5,55.47Zm1.87-2.11s0,0,0-.06l0,.06.1.1Zm-.5,4.13a2.54,2.54,0,0,0,.81-.82A2.75,2.75,0,0,1,62.87,57.49Zm-1.37-2h0v-.07A.13.13,0,0,1,61.5,55.47Zm0,0h0v-.07A.13.13,0,0,1,61.5,55.47Zm0,0h0v-.07A.13.13,0,0,1,61.5,55.47Zm1.87-2.11s0,0,0-.06l0,.06.1.1Zm-.5,4.13a2.54,2.54,0,0,0,.81-.82A2.75,2.75,0,0,1,62.87,57.49Zm-1.37-2h0v-.07A.13.13,0,0,1,61.5,55.47Zm0,0h0v-.07A.13.13,0,0,1,61.5,55.47Z"/><path class="cls-9" d="M88.53,37.46a32.46,32.46,0,0,0-9.38-9.37,32,32,0,0,0-9.81-4.31,32.61,32.61,0,0,0-15.87,0A32.44,32.44,0,0,0,29,55.21v.16A32.42,32.42,0,0,0,61.41,87.63a33,33,0,0,0,5.66-.49A32.43,32.43,0,0,0,88.53,37.46Zm.67,18.42A27.66,27.66,0,0,1,87,66c-.08.2-.18.41-.27.61-.27.62-.57,1.22-.9,1.81a4.67,4.67,0,0,1-.27.49,26.57,26.57,0,0,1-2.47,3.65c-.09.11-.17.22-.26.32-.43.51-.87,1-1.33,1.5l-.47.48a27.59,27.59,0,0,1-5.9,4.5l-.94.52c-.43.22-.87.43-1.32.64a26.74,26.74,0,0,1-3.16,1.21l-1.32.38-.74.18c-.65.15-1.3.28-2,.38l-1,.14-1,.1c-.47,0-.94.06-1.42.08H62l-.57,0a27.82,27.82,0,1,1,0-55.63h.81c.48,0,1,0,1.42.08l1,.1,1,.14c.57.09,1.14.2,1.7.32h0a1.22,1.22,0,0,0,.26.06l.74.18,1.32.38a26.79,26.79,0,0,1,3.16,1.22q.68.3,1.32.63l.49.27a27.69,27.69,0,0,1,6.35,4.76c.16.15.32.31.47.47.46.49.9,1,1.33,1.5l.26.32A26.67,26.67,0,0,1,85.6,41.5a4.53,4.53,0,0,1,.27.48c.33.59.63,1.19.9,1.81.09.2.19.41.27.62a27.74,27.74,0,0,1,2.18,10.8c0,.12,0,.24,0,.35S89.21,55.77,89.2,55.88Z"/><path class="cls-7" d="M62.1,83l-.59,0v0h.59Zm3.63-.32c.66-.1,1.31-.23,2-.38C67,82.46,66.39,82.59,65.73,82.69Zm4-.94a26.74,26.74,0,0,0,3.16-1.21A28.61,28.61,0,0,1,69.75,81.75ZM61.5,55.47h0v-.07A.13.13,0,0,1,61.5,55.47Zm1.87-2.11s0,0,0-.06l0,.06.1.1Zm-.5,4.13a2.54,2.54,0,0,0,.81-.82A2.75,2.75,0,0,1,62.87,57.49Zm-1.37-2h0v-.07A.13.13,0,0,1,61.5,55.47Zm0,0h0v-.07A.13.13,0,0,1,61.5,55.47Zm8.25-26.8a26.79,26.79,0,0,1,3.16,1.22A26.79,26.79,0,0,0,69.75,28.67Zm-4-.94c.57.1,1.14.2,1.7.32C66.87,27.93,66.3,27.82,65.73,27.73Z"/><path class="cls-10" d="M62.1,83h-.59v0Z"/><path class="cls-10" d="M67.43,28.05c-.56-.12-1.13-.22-1.7-.32C66.3,27.82,66.87,27.93,67.43,28.05Z"/><path class="cls-10" d="M72.91,29.89a26.79,26.79,0,0,0-3.16-1.22A26.79,26.79,0,0,1,72.91,29.89Z"/><path class="cls-11" d="M61.93,33.15v2.51a.52.52,0,0,1-.42.51h-.1a.52.52,0,0,1-.53-.52V33.15a.53.53,0,0,1,.53-.52h.1A.52.52,0,0,1,61.93,33.15Z"/><path class="cls-12" d="M62.1,83h-.59v0Z"/><path class="cls-12" d="M63.68,56.67a2.54,2.54,0,0,1-.81.82A2.75,2.75,0,0,0,63.68,56.67Z"/><path class="cls-12" d="M63.47,53.46l-.1-.1,0-.06s0,0,0,.06Z"/><path class="cls-6" d="M61.51,55.41v.07h0A.13.13,0,0,0,61.51,55.41Z"/><path class="cls-9" d="M61.5,55.47h0v-.07A.13.13,0,0,1,61.5,55.47Zm1.87-2.11s0,0,0-.06l0,.06.1.1Zm-.5,4.13a2.54,2.54,0,0,0,.81-.82A2.75,2.75,0,0,1,62.87,57.49Zm-1.37-2h0v-.07A.13.13,0,0,1,61.5,55.47Zm0,0h0v-.07A.13.13,0,0,1,61.5,55.47Z"/><path class="cls-9" d="M73.56,55.21A12.16,12.16,0,0,1,61.51,67.36h-.1A12.11,12.11,0,0,1,54.24,65L60,57.51h0a2.72,2.72,0,0,0,1.44.41h.1a2.55,2.55,0,0,0,1.19-.32l.17-.1a2.54,2.54,0,0,0,.81-.82l.11-.16a2.72,2.72,0,0,0,.32-1.3,1.09,1.09,0,0,0,0-.18l8.6-4.29A11.94,11.94,0,0,1,73.56,55.21Z"/><path class="cls-9" d="M72.24,49.71l-8.87,3.65s0,0,0-.06a2.65,2.65,0,0,0-1.81-.79h-.1a2.65,2.65,0,0,0-1.57.51L54.33,49.2a.68.68,0,0,0-.38-.12.63.63,0,0,0-.51.25.65.65,0,0,0,.13.89l5.22,4.28a2.74,2.74,0,0,0,.7,2.62l.08.07-5.73,7.52a12.14,12.14,0,0,1,7.57-21.65h.1A12.16,12.16,0,0,1,72.24,49.71Z"/><path class="cls-6" d="M61.51,55.41v.07h0A.13.13,0,0,0,61.51,55.41Z"/><path class="cls-6" d="M63.47,53.46l-.1-.1h0Z"/><path class="cls-13" d="M61.93,74.72v2.5a.53.53,0,0,1-.42.52h-.1a.53.53,0,0,1-.53-.53v-2.5a.53.53,0,0,1,.53-.53h.1A.53.53,0,0,1,61.93,74.72Z"/><path class="cls-13" d="M84,55.19a.52.52,0,0,1-.52.52H80.93a.52.52,0,0,1-.52-.52.52.52,0,0,1,.52-.52h2.51A.51.51,0,0,1,84,55.19Z"/><path class="cls-13" d="M42.4,55.19a.52.52,0,0,1-.52.52H39.37a.52.52,0,0,1-.52-.52.51.51,0,0,1,.52-.52h2.51A.52.52,0,0,1,42.4,55.19Z"/><path class="cls-6" d="M61.51,55.41v.07h0A.13.13,0,0,0,61.51,55.41Z"/><path class="cls-6" d="M62.87,57.49a2.54,2.54,0,0,0,.81-.82A2.75,2.75,0,0,1,62.87,57.49Zm.5-4.13s0,0,0-.06l0,.06.1.1Z"/><path class="cls-14" d="M76.46,48.6a.45.45,0,0,1-.25.39L72.7,50.74,64.1,55a1.09,1.09,0,0,1,0,.18,2.72,2.72,0,0,1-.32,1.3l-.11.16a2.75,2.75,0,0,1-.81.82l-.17.1a2.55,2.55,0,0,1-1.19.32h-.1A2.72,2.72,0,0,1,60,57.51l.57-.76a1.82,1.82,0,0,0,.87.23h.1a1.76,1.76,0,0,0,1.64-1.52,1.94,1.94,0,0,0,0-.24,1.77,1.77,0,0,0-1.66-1.76h-.1a1.8,1.8,0,0,0-.73.15,1.77,1.77,0,0,0-1,1.59v0a1.8,1.8,0,0,0,.5,1.23l-.57.75-.08-.07a2.74,2.74,0,0,1-.7-2.62l-5.22-4.28a.65.65,0,0,1-.13-.89.63.63,0,0,1,.51-.25.68.68,0,0,1,.38.12L59.84,53a2.65,2.65,0,0,1,1.57-.51h.1a2.65,2.65,0,0,1,1.81.79l0,.06.1.1-.1-.1,8.87-3.65,3.62-1.49a.43.43,0,0,1,.56.2A.58.58,0,0,1,76.46,48.6Z"/><path class="cls-15" d="M61.51,55.41v.07h0A.13.13,0,0,0,61.51,55.41Z"/><path d="M62.45,53.79a1.76,1.76,0,0,0-.94-.34h-.1a1.8,1.8,0,0,0-.73.15,1.77,1.77,0,0,0-1,1.59v0a1.8,1.8,0,0,0,.5,1.23l-.57.75-5.73,7.52L51.7,67.52a.23.23,0,0,0-.05.15.25.25,0,0,0,.1.21.25.25,0,0,0,.35,0L54.24,65,60,57.51h0l.57-.76a1.82,1.82,0,0,0,.87.23h.1a1.76,1.76,0,0,0,1.64-1.52,1.94,1.94,0,0,0,0-.24A1.75,1.75,0,0,0,62.45,53.79Zm-.94,1.69h0a.13.13,0,0,0,0-.06Z"/><path class="cls-16" d="M63.33,71.33C44,72.61,27.19,59.8,23.54,43.2A39.16,39.16,0,0,0,24,49.27,37,37,0,0,0,26.85,59a37.09,37.09,0,0,1-6.61-21,32.22,32.22,0,0,0,4.13,31A38.84,38.84,0,0,1,15,29C5.17,47.1,8.57,68,23.52,80.71c14.26,13,40.37,13.16,53.19-.24C76.9,80.42,67.67,74.59,63.33,71.33Z"/><path class="cls-6" d="M86,36.41l-5.83-5.83a3.62,3.62,0,0,1,0-5.11h0a3.63,3.63,0,0,1,5.12,0l5.82,5.82a3.62,3.62,0,0,1,0,5.11h0A3.61,3.61,0,0,1,86,36.41Z"/><path class="cls-6" d="M42.6,30.58l-5.82,5.83a3.63,3.63,0,0,1-5.12,0h0a3.63,3.63,0,0,1,0-5.12l5.82-5.82a3.63,3.63,0,0,1,5.12,0h0A3.62,3.62,0,0,1,42.6,30.58Z"/><circle class="cls-6" cx="61.41" cy="22.8" r="7.99"/><path class="cls-7" d="M95.85,55.21A34.45,34.45,0,1,1,61.4,20.77,34.45,34.45,0,0,1,95.85,55.21Z"/><path class="cls-17" d="M93.82,55.21A32.42,32.42,0,1,1,61.41,22.8,32.42,32.42,0,0,1,93.82,55.21Z"/><path class="cls-7" d="M89.22,55.21A27.82,27.82,0,1,1,61.4,27.4,27.81,27.81,0,0,1,89.22,55.21Z"/><path class="cls-10" d="M36.36,56.6a26.42,26.42,0,0,1,52.84-.7c0-.23,0-.46,0-.69A27.82,27.82,0,1,0,61.4,83h.7A26.43,26.43,0,0,1,36.36,56.6Z"/><path class="cls-12" d="M61.51,27.4a27.81,27.81,0,0,1,0,55.62Z"/><path class="cls-6" d="M64.11,55.21a2.71,2.71,0,1,1-2.7-2.71A2.7,2.7,0,0,1,64.11,55.21Z"/><path class="cls-10" d="M61.41,67.36A12.15,12.15,0,1,1,73.56,55.21,12.17,12.17,0,0,1,61.41,67.36Z"/><path class="cls-6" d="M63.8,55.19c-1.09.54-2.23.6-2.46.1h0c-.23-.51.57-1.33,1.69-1.79l12.83-5.29a.44.44,0,0,1,.56.21h0a.45.45,0,0,1-.21.57Z"/><path class="cls-6" d="M60.67,53.59c.68.48,1,1.25.67,1.7h0c-.33.44-1.16.34-1.81-.19l-6-4.88a.65.65,0,0,1-.13-.89h0a.64.64,0,0,1,.89-.12Z"/><path d="M61.93,35.66a.52.52,0,0,1-.52.52h0a.52.52,0,0,1-.53-.52v-2.5a.53.53,0,0,1,.53-.53h0a.53.53,0,0,1,.52.53Z"/><path d="M61.93,77.22a.53.53,0,0,1-.52.53h0a.53.53,0,0,1-.53-.53v-2.5a.53.53,0,0,1,.53-.53h0a.53.53,0,0,1,.52.53Z"/><path d="M80.93,55.71a.52.52,0,0,1-.52-.52h0a.53.53,0,0,1,.52-.53h2.51a.52.52,0,0,1,.52.53h0a.52.52,0,0,1-.52.52Z"/><path d="M39.37,55.71a.52.52,0,0,1-.52-.52h0a.52.52,0,0,1,.52-.53h2.51a.53.53,0,0,1,.52.53h0a.52.52,0,0,1-.52.52Z"/><path class="cls-6" d="M64.11,55.21A2.71,2.71,0,1,1,61.4,52.5,2.71,2.71,0,0,1,64.11,55.21Z"/><path class="cls-15" d="M63.17,55.21a1.77,1.77,0,1,1-1.76-1.76A1.76,1.76,0,0,1,63.17,55.21Z"/><path class="cls-15" d="M61.05,55.26a.27.27,0,0,1,.36,0h0a.24.24,0,0,1,0,.35L52.1,67.83a.24.24,0,0,1-.35,0h0a.25.25,0,0,1,0-.35Z"/></g></g></svg>