<svg xmlns="http://www.w3.org/2000/svg" xmlns:xlink="http://www.w3.org/1999/xlink" viewBox="0 0 700 700"><defs><style>.cls-1{isolation:isolate;}.cls-2,.cls-22,.cls-26,.cls-32,.cls-33,.cls-36,.cls-4,.cls-40{fill:#fff;}.cls-2{filter:url(#filter);}.cls-3{fill:url(#linear-gradient);}.cls-14,.cls-15,.cls-21,.cls-32,.cls-4{mix-blend-mode:screen;}.cls-5{fill:url(#linear-gradient-2);}.cls-6{fill:url(#linear-gradient-3);}.cls-7{fill:url(#linear-gradient-4);}.cls-10,.cls-11,.cls-16,.cls-8{mix-blend-mode:overlay;}.cls-8{fill:url(#linear-gradient-5);}.cls-9{fill:url(#linear-gradient-6);}.cls-10{fill:url(#linear-gradient-7);}.cls-11{fill:url(#linear-gradient-8);}.cls-12{fill:url(#linear-gradient-9);}.cls-13{mix-blend-mode:multiply;fill:url(#linear-gradient-10);}.cls-14{fill:url(#linear-gradient-11);}.cls-15{fill:url(#linear-gradient-12);}.cls-16{fill:url(#linear-gradient-13);}.cls-17{fill:url(#linear-gradient-14);}.cls-18{fill:url(#linear-gradient-15);}.cls-19{fill:url(#linear-gradient-16);}.cls-20{fill:url(#linear-gradient-17);}.cls-21{fill:url(#radial-gradient);}.cls-23{fill:url(#linear-gradient-18);}.cls-24{fill:url(#linear-gradient-19);}.cls-25{fill:url(#linear-gradient-20);}.cls-26{font-size:23.67px;}.cls-26,.cls-36,.cls-40{font-family:SFUIDisplay-Regular, SF UI Display;}.cls-27{letter-spacing:-0.04em;}.cls-28{letter-spacing:0em;}.cls-29{letter-spacing:-0.01em;}.cls-30{letter-spacing:0em;}.cls-31{letter-spacing:-0.04em;}.cls-32{font-size:10.78px;font-family:SFUIDisplay-Semibold, SF UI Display;font-weight:600;letter-spacing:0.1em;}.cls-33{font-size:11.18px;font-family:SFUIDisplay-Thin, SF UI Display;font-weight:200;}.cls-34{letter-spacing:-0.04em;}.cls-35{letter-spacing:-0.02em;}.cls-36,.cls-40{font-size:9.29px;}.cls-36,.cls-42{letter-spacing:0.1em;}.cls-37{letter-spacing:0em;}.cls-38{letter-spacing:0.08em;}.cls-39{letter-spacing:0.07em;}.cls-40{letter-spacing:0.1em;}.cls-41{letter-spacing:0.07em;}</style><filter id="filter" x="13.63" y="121.28" width="692" height="478" filterUnits="userSpaceOnUse"><feOffset dx="10" dy="10" input="SourceAlpha"/><feGaussianBlur stdDeviation="20" result="blur"/><feFlood flood-color="#1e1e1e"/><feComposite operator="in" in2="blur"/><feComposite in="SourceGraphic"/></filter><linearGradient id="linear-gradient" x1="350" y1="427.94" x2="350" y2="101.92" gradientUnits="userSpaceOnUse"><stop offset="0" stop-color="#7bffff"/><stop offset="0.06" stop-color="#79f2fd"/><stop offset="0.16" stop-color="#74d0f9"/><stop offset="0.3" stop-color="#6b98f3"/><stop offset="0.46" stop-color="#5f4dea"/><stop offset="0.6" stop-color="#5509e2"/><stop offset="1" stop-color="#0b2349"/></linearGradient><linearGradient id="linear-gradient-2" x1="158.58" y1="268.16" x2="158.58" y2="212.09" gradientUnits="userSpaceOnUse"><stop offset="0" stop-color="#fff" stop-opacity="0"/><stop offset="0.09" stop-color="#fff" stop-opacity="0.05"/><stop offset="0.26" stop-color="#fff" stop-opacity="0.18"/><stop offset="0.48" stop-color="#fff" stop-opacity="0.4"/><stop offset="0.75" stop-color="#fff" stop-opacity="0.7"/><stop offset="1" stop-color="#fff"/></linearGradient><linearGradient id="linear-gradient-3" x1="550.73" y1="239.72" x2="550.73" y2="197.74" xlink:href="#linear-gradient-2"/><linearGradient id="linear-gradient-4" x1="350.45" y1="436.73" x2="346.74" y2="247.99" xlink:href="#linear-gradient"/><linearGradient id="linear-gradient-5" x1="176.14" y1="412.3" x2="203.96" y2="337.19" xlink:href="#linear-gradient-2"/><linearGradient id="linear-gradient-6" x1="354.19" y1="471.86" x2="331.32" y2="327.22" xlink:href="#linear-gradient"/><linearGradient id="linear-gradient-7" x1="426.94" y1="417.26" x2="407.16" y2="333.81" xlink:href="#linear-gradient-2"/><linearGradient id="linear-gradient-8" x1="530.46" y1="374.9" x2="515.63" y2="338.63" xlink:href="#linear-gradient-2"/><linearGradient id="linear-gradient-9" x1="68.97" y1="484.08" x2="656.37" y2="484.08" gradientUnits="userSpaceOnUse"><stop offset="0" stop-color="#5509e2"/><stop offset="0.08" stop-color="#531fe5"/><stop offset="0.39" stop-color="#4a6bf0"/><stop offset="0.65" stop-color="#44a2f8"/><stop offset="0.84" stop-color="#40c4fd"/><stop offset="0.94" stop-color="#3fd1ff"/></linearGradient><linearGradient id="linear-gradient-10" x1="424.85" y1="487.92" x2="5.58" y2="471.1" gradientUnits="userSpaceOnUse"><stop offset="0" stop-color="#fff"/><stop offset="1" stop-color="#0b2349"/></linearGradient><linearGradient id="linear-gradient-11" x1="351.14" y1="485.22" x2="367.83" y2="365.31" gradientUnits="userSpaceOnUse"><stop offset="0.06"/><stop offset="1" stop-color="#3ff1ff"/></linearGradient><linearGradient id="linear-gradient-12" x1="349.1" y1="512.09" x2="354.05" y2="444.71" xlink:href="#linear-gradient-11"/><linearGradient id="linear-gradient-13" x1="172.81" y1="497.72" x2="728.2" y2="407.78" xlink:href="#linear-gradient-2"/><linearGradient id="linear-gradient-14" x1="1146.86" y1="1342.39" x2="609.79" y2="553.84" gradientUnits="userSpaceOnUse"><stop offset="0"/><stop offset="1" stop-color="#0b2349"/></linearGradient><linearGradient id="linear-gradient-15" x1="136.28" y1="625.32" x2="321.1" y2="288.44" xlink:href="#linear-gradient-14"/><linearGradient id="linear-gradient-16" x1="628.26" y1="557.88" x2="561.92" y2="497.1" gradientUnits="userSpaceOnUse"><stop offset="0"/><stop offset="0.08" stop-color="#02050b"/><stop offset="0.3" stop-color="#061226"/><stop offset="0.53" stop-color="#091c3a"/><stop offset="0.76" stop-color="#0a2145"/><stop offset="1" stop-color="#0b2349"/></linearGradient><linearGradient id="linear-gradient-17" x1="661.07" y1="594.46" x2="560.72" y2="502.53" xlink:href="#linear-gradient-16"/><radialGradient id="radial-gradient" cx="606.57" cy="245.27" r="219.18" gradientUnits="userSpaceOnUse"><stop offset="0" stop-color="#ffbd55"/><stop offset="0.09" stop-color="#f2b351"/><stop offset="0.26" stop-color="#d09a45"/><stop offset="0.48" stop-color="#987133"/><stop offset="0.75" stop-color="#4d391a"/><stop offset="1"/></radialGradient><linearGradient id="linear-gradient-18" x1="97.61" y1="497.9" x2="101.11" y2="497.9" xlink:href="#linear-gradient-14"/><linearGradient id="linear-gradient-19" x1="151.12" y1="497.9" x2="158.31" y2="497.9" xlink:href="#linear-gradient-14"/><linearGradient id="linear-gradient-20" x1="123.22" y1="497.9" x2="131.39" y2="497.9" xlink:href="#linear-gradient-14"/></defs><g class="cls-1"><g id="Layer_1" data-name="Layer 1"><rect class="cls-2" x="64.55" y="171.44" width="570.91" height="357.11"/><rect class="cls-3" x="64.03" y="171.27" width="571.93" height="357.47"/><circle class="cls-4" cx="560.05" cy="292.71" r="42.38"/><path class="cls-5" d="M106,234.5c-12.11-14.22-29.28-9.09-41.92-1.94v30.81h189.1c-12.11-21.42-61.48,0-82-21.42S127.38,259.65,106,234.5Z"/><path class="cls-6" d="M636,214.82c-9.8-3.55-19.67-4.68-27,.11-21.42,14-34.46-18.62-60.54,1.87s-71.73-2.8-82.91,19.56c0,0,110.69-.27,170.47.15Z"/><path class="cls-7" d="M636,299.07c-25-21.51-54-35-77.32-13.34-52.16,48.43-57.75,123-120.16,59.61S326.71,270.82,273.62,335.1,197.24,387.26,159.05,337c-22.59-29.75-54.44-61.35-95-44.63v236.4H636Z"/><path class="cls-8" d="M306.11,439.42H64V337c20-2,44.49,2,67.07,23.29C177.56,404.08,271.89,380.25,306.11,439.42Z"/><path class="cls-9" d="M636,362.05c-38.61-28-102.82-64.61-156.49-46.51-63.93,21.54-71.73,99.66-109.92,70.79s-61.48-53.1-134.6,6.05c-69.21,56-96.41-17.23-170.93,14.44V528.73H636Z"/><path class="cls-10" d="M636,320.92c-26.52-11-64.29-12.48-113.72,18.76-108.91,68.82-139.65,105.15-198.33,80s-119.39,37.44-119.39,37.44H636Z"/><path class="cls-11" d="M636,420.79v-79c-26.52-11-64.29-12.48-113.72,18.76-39.15,24.74-68.19,45.28-92.07,60.27Z"/><rect class="cls-12" x="64.03" y="439.42" width="571.93" height="89.31"/><rect class="cls-13" x="64.03" y="439.42" width="530.01" height="89.31"/><rect class="cls-14" x="64.03" y="458.05" width="571.93" height="70.68"/><polygon class="cls-15" points="64.03 470.96 64.03 528.73 635.97 528.73 635.97 501.33 64.03 470.96"/><polygon class="cls-16" points="198.62 457.92 198.62 477.02 635.97 458.34 198.62 457.92"/><path class="cls-17" d="M618.32,394.45l-11.81-39.79L596.63,396q-6.89.58-14.23,1.3l-8-27-6.83,28.58c-3.78.43-7.64.9-11.55,1.39l-6.35-21.39-5.49,23-4.23.61-8.52-28.72L524,404.93c-3,.49-6,1-9,1.54l-9.85-33.18L496.33,410q-7.23,1.47-14.53,3.1l-7.12-24-6.49,27.18q-6.31,1.56-12.62,3.26l-4.89-16.47-4.56,19.1c-3,.88-6,1.77-9.05,2.7l-4-13.41-3.79,15.87c-1.54.5-3.09,1-4.62,1.53L419,409.61l-5.55,23.22q-8.57,3.14-16.9,6.59H636V393.53C630.66,393.75,624.74,394.05,618.32,394.45Z"/><path class="cls-18" d="M164.63,454.33C138.06,420.16,97.47,388.9,64,366.45V528.73H403.54C350.7,462.73,214.41,518.32,164.63,454.33Z"/><path class="cls-19" d="M636,519.53V473c-66.11,1.62-150,46.57-150,46.57Z"/><path class="cls-20" d="M565,470.16a37.25,37.25,0,0,0-11.55,13.24c-.28.55-.53,1.1-.76,1.65,0-1.29,0-2.63-.07-4a49.26,49.26,0,0,0-6-19.94,49.19,49.19,0,0,0-3.33,20.56c.09,1.34.25,2.64.45,3.9a59,59,0,0,0-6-8.62,64.17,64.17,0,0,0-21.78-16.24,64.22,64.22,0,0,0,12.48,24.13,60,60,0,0,0,10.26,9.47,44.22,44.22,0,0,0-6.89-2,49.84,49.84,0,0,0-21.06.67A49.8,49.8,0,0,0,530,501.63a50.32,50.32,0,0,0,19.2-.23l.13.21.11-.26c1-.22,1.62-.39,1.62-.39s-.28-.22-.79-.59A34.55,34.55,0,0,0,565,470.16Z"/><path class="cls-21" d="M636,171.27v293a210.56,210.56,0,0,1-66.14,10.6c-116.27,0-210.52-94.25-210.52-210.52a209.54,209.54,0,0,1,21.63-93Z"/><path class="cls-22" d="M106.39,497.9a7,7,0,1,1-7-7A7,7,0,0,1,106.39,497.9Z"/><path class="cls-23" d="M101.11,495.44h-.83c-.29,0-.35.12-.35.42v.73h1.18l-.12,1.28H99.93v3.82H98.41v-3.81h-.8v-1.29h.8v-1c0-1,.51-1.46,1.64-1.46h1.06Z"/><path class="cls-22" d="M161.75,497.9a7,7,0,1,1-7-7A7,7,0,0,1,161.75,497.9Z"/><path class="cls-24" d="M158.29,496.42a2.59,2.59,0,0,0-.16-.87,1.87,1.87,0,0,0-.42-.64,1.73,1.73,0,0,0-.64-.42,2.62,2.62,0,0,0-.87-.17c-.38,0-.5,0-1.48,0s-1.1,0-1.48,0a2.68,2.68,0,0,0-.88.17,1.73,1.73,0,0,0-.64.42,1.71,1.71,0,0,0-.41.64,2.56,2.56,0,0,0-.17.87c0,.38,0,.5,0,1.48s0,1.1,0,1.48a2.68,2.68,0,0,0,.17.88,1.75,1.75,0,0,0,.41.63,1.73,1.73,0,0,0,.64.42,2.68,2.68,0,0,0,.88.17c.38,0,.5,0,1.48,0s1.1,0,1.48,0a2.62,2.62,0,0,0,.87-.17,1.73,1.73,0,0,0,.64-.42,1.93,1.93,0,0,0,.42-.63,2.71,2.71,0,0,0,.16-.88c0-.38,0-.5,0-1.48S158.31,496.8,158.29,496.42Zm-.64,2.94a1.93,1.93,0,0,1-.13.66,1,1,0,0,1-.27.42,1.17,1.17,0,0,1-.41.27,2.51,2.51,0,0,1-.67.12c-.38,0-.49,0-1.45,0s-1.08,0-1.46,0a2.33,2.33,0,0,1-.66-.12,1.18,1.18,0,0,1-.69-.69,1.77,1.77,0,0,1-.12-.66c0-.38,0-.5,0-1.46s0-1.07,0-1.45a1.84,1.84,0,0,1,.12-.67,1.17,1.17,0,0,1,.27-.41,1,1,0,0,1,.42-.27,1.93,1.93,0,0,1,.66-.13c.38,0,.5,0,1.46,0s1.07,0,1.45,0a2.07,2.07,0,0,1,.67.13,1.22,1.22,0,0,1,.68.68,2,2,0,0,1,.13.67c0,.38,0,.49,0,1.45S157.66,499,157.65,499.36Zm-1-3.81a.43.43,0,1,0,.43.43A.43.43,0,0,0,156.64,495.55Zm-1.92.5a1.85,1.85,0,1,0,1.85,1.85A1.85,1.85,0,0,0,154.72,496.05Zm0,3.05a1.2,1.2,0,1,1,1.2-1.2A1.2,1.2,0,0,1,154.72,499.1Z"/><path class="cls-22" d="M134.34,497.9a7,7,0,1,1-7-7A7,7,0,0,1,134.34,497.9Z"/><path class="cls-25" d="M127.15,496.63a4.45,4.45,0,0,1-3.24-1.65,1.71,1.71,0,0,0,.39,2.12,2.1,2.1,0,0,1-.72-.28,1.75,1.75,0,0,0,1.28,1.71,3.76,3.76,0,0,1-.73,0,1.59,1.59,0,0,0,1.52,1.17,2.91,2.91,0,0,1-2.43.6,4.72,4.72,0,0,0,4.53.46,4.63,4.63,0,0,0,2.69-4.57,4.44,4.44,0,0,0,.95-.79,9.23,9.23,0,0,1-.92.21,4.57,4.57,0,0,0,.56-.86,4.52,4.52,0,0,1-1.06.35,1.65,1.65,0,0,0-1.52-.44,1.73,1.73,0,0,0-1.27,1.39A2.46,2.46,0,0,0,127.15,496.63Z"/><text class="cls-26" transform="translate(244.03 266.57)"><tspan class="cls-27">W</tspan><tspan class="cls-28" x="20.83" y="0">elcome </tspan><tspan class="cls-29" x="101.42" y="0">t</tspan><tspan class="cls-30" x="108.4" y="0">o My </tspan><tspan class="cls-31" x="164.25" y="0">P</tspan><tspan x="177.23" y="0">age</tspan></text><path class="cls-22" d="M280.57,283.4h-3.44v-5.67h.71v5h2.73Z"/><path class="cls-22" d="M282.27,282.85a2.59,2.59,0,0,1,0-3.14,2,2,0,0,1,2.85,0,2.59,2.59,0,0,1,0,3.14,2,2,0,0,1-2.85,0Zm2.35-.43a1.8,1.8,0,0,0,.33-1.14,1.76,1.76,0,0,0-.33-1.14,1.25,1.25,0,0,0-1.85,0,1.76,1.76,0,0,0-.33,1.14,1.8,1.8,0,0,0,.33,1.14,1.15,1.15,0,0,0,.93.41A1.13,1.13,0,0,0,284.62,282.42Z"/><path class="cls-22" d="M287.17,279.16h.65v.69h0a1,1,0,0,1,.37-.53,1.14,1.14,0,0,1,.66-.2,1,1,0,0,1,.26,0v.68a.78.78,0,0,0-.35-.05.84.84,0,0,0-.66.27,1,1,0,0,0-.25.73v2.62h-.69Z"/><path class="cls-22" d="M293.82,282.19a1.3,1.3,0,0,1-.59.89,1.93,1.93,0,0,1-1.17.35,1.85,1.85,0,0,1-1.42-.57,2.63,2.63,0,0,1,0-3.14,1.75,1.75,0,0,1,1.39-.6,1.71,1.71,0,0,1,1.34.56,2.21,2.21,0,0,1,.5,1.52v.27h-3v0a1.33,1.33,0,0,0,.34,1,1.2,1.2,0,0,0,.91.36,1.34,1.34,0,0,0,.68-.17.87.87,0,0,0,.38-.47Zm-2.63-2.14a1.28,1.28,0,0,0-.36.87h2.33a1.26,1.26,0,0,0-.33-.87,1.07,1.07,0,0,0-.81-.33A1.12,1.12,0,0,0,291.19,280.05Z"/><path class="cls-22" d="M295.39,279.16H296v.69h0a1.23,1.23,0,0,1,.47-.54,1.47,1.47,0,0,1,.73-.19,1.15,1.15,0,0,1,1.19.8h0a1.4,1.4,0,0,1,.54-.59,1.52,1.52,0,0,1,.8-.21,1.35,1.35,0,0,1,1,.38,1.37,1.37,0,0,1,.37,1v2.89h-.68v-2.74a1,1,0,0,0-.23-.68.86.86,0,0,0-.66-.25,1,1,0,0,0-.7.28,1,1,0,0,0-.27.72v2.67h-.68v-2.82a.83.83,0,0,0-.24-.62,1,1,0,0,0-1.35.07,1,1,0,0,0-.28.74v2.63h-.68Z"/><path class="cls-22" d="M305.68,278.35a.44.44,0,0,1-.12-.3.43.43,0,0,1,.12-.31.46.46,0,0,1,.31-.13.42.42,0,0,1,.3.13.4.4,0,0,1,.13.31.41.41,0,0,1-.13.3.42.42,0,0,1-.3.13A.46.46,0,0,1,305.68,278.35Zm0,.81h.68v4.24h-.68Z"/><path class="cls-22" d="M311.45,279.72a2.34,2.34,0,0,1,.5,1.56,2.37,2.37,0,0,1-.5,1.56,1.6,1.6,0,0,1-1.3.59,1.45,1.45,0,0,1-1.35-.72h0v2.1h-.68v-5.65h.65v.69h0a1.37,1.37,0,0,1,.56-.53,1.73,1.73,0,0,1,.81-.2A1.64,1.64,0,0,1,311.45,279.72Zm-.54,2.69a1.81,1.81,0,0,0,.34-1.13,1.76,1.76,0,0,0-.34-1.12,1.09,1.09,0,0,0-.9-.43,1.07,1.07,0,0,0-.89.43,1.72,1.72,0,0,0-.34,1.12,1.74,1.74,0,0,0,.34,1.12,1.15,1.15,0,0,0,1.79,0Z"/><path class="cls-22" d="M313.84,279.47a1.77,1.77,0,0,1,1.13-.34,1.68,1.68,0,0,1,1.08.34,1.12,1.12,0,0,1,.46.87h-.66a.66.66,0,0,0-.27-.48,1.15,1.15,0,0,0-.64-.17,1.09,1.09,0,0,0-.63.17.52.52,0,0,0-.24.45q0,.42.72.6l.64.16a2.09,2.09,0,0,1,.91.42.93.93,0,0,1,.25.71,1,1,0,0,1-.47.89,2,2,0,0,1-1.2.34,1.87,1.87,0,0,1-1.13-.33,1.23,1.23,0,0,1-.51-.89H314c.07.44.41.66,1,.66a1.26,1.26,0,0,0,.69-.17.53.53,0,0,0,.25-.45.46.46,0,0,0-.15-.36,1.22,1.22,0,0,0-.51-.22l-.74-.2c-.74-.19-1.11-.56-1.11-1.13A1.07,1.07,0,0,1,313.84,279.47Z"/><path class="cls-22" d="M321.67,283.4H321v-.7h0a1.43,1.43,0,0,1-1.38.73,1.41,1.41,0,0,1-1.1-.42,1.54,1.54,0,0,1-.41-1.13v-2.72h.69v2.6a1.08,1.08,0,0,0,.26.79,1,1,0,0,0,.76.28,1.11,1.11,0,0,0,.84-.33,1.24,1.24,0,0,0,.32-.88v-2.46h.68Z"/><path class="cls-22" d="M323.4,279.16h.65v.69h0a1.19,1.19,0,0,1,.48-.54,1.44,1.44,0,0,1,.73-.19,1.15,1.15,0,0,1,1.18.8h0a1.44,1.44,0,0,1,.53-.59,1.54,1.54,0,0,1,.8-.21,1.35,1.35,0,0,1,1,.38,1.37,1.37,0,0,1,.38,1v2.89h-.69v-2.74a.92.92,0,0,0-.23-.68.83.83,0,0,0-.66-.25.94.94,0,0,0-.69.28,1,1,0,0,0-.28.72v2.67H326v-2.82a.83.83,0,0,0-.24-.62,1,1,0,0,0-1.34.07,1,1,0,0,0-.28.74v2.63h-.69Z"/><path class="cls-22" d="M333.92,282.84a2.64,2.64,0,0,1,0-3.12,1.59,1.59,0,0,1,1.29-.6,1.41,1.41,0,0,1,1.35.73h0v-2.37h.68v5.92h-.65v-.72h0a1.46,1.46,0,0,1-1.37.75A1.62,1.62,0,0,1,333.92,282.84Zm.53-2.68a1.7,1.7,0,0,0-.34,1.12,1.75,1.75,0,0,0,.34,1.13,1.15,1.15,0,0,0,1.79,0,1.74,1.74,0,0,0,.34-1.12,1.72,1.72,0,0,0-.34-1.12,1.15,1.15,0,0,0-1.79,0Z"/><path class="cls-22" d="M339.35,282.85a2.59,2.59,0,0,1,0-3.14,2,2,0,0,1,2.85,0,2.59,2.59,0,0,1,0,3.14,2,2,0,0,1-2.85,0Zm2.35-.43a1.8,1.8,0,0,0,.33-1.14,1.76,1.76,0,0,0-.33-1.14,1.25,1.25,0,0,0-1.85,0,1.76,1.76,0,0,0-.33,1.14,1.8,1.8,0,0,0,.33,1.14,1.25,1.25,0,0,0,1.85,0Z"/><path class="cls-22" d="M344.29,277.48H345v5.92h-.68Z"/><path class="cls-22" d="M347.07,282.85a2.59,2.59,0,0,1,0-3.14,2,2,0,0,1,2.84,0,2.59,2.59,0,0,1,0,3.14,2,2,0,0,1-2.84,0Zm2.34-.43a1.8,1.8,0,0,0,.33-1.14,1.76,1.76,0,0,0-.33-1.14,1.25,1.25,0,0,0-1.85,0,1.76,1.76,0,0,0-.33,1.14,1.8,1.8,0,0,0,.33,1.14,1.15,1.15,0,0,0,.93.41A1.13,1.13,0,0,0,349.41,282.42Z"/><path class="cls-22" d="M352,279.16h.65v.69h0a1,1,0,0,1,.38-.53,1.09,1.09,0,0,1,.65-.2.93.93,0,0,1,.26,0v.68a.78.78,0,0,0-.35-.05.84.84,0,0,0-.66.27,1,1,0,0,0-.25.73v2.62H352Z"/><path class="cls-22" d="M358.42,279.47a2,2,0,0,1,2.21,0,1.11,1.11,0,0,1,.45.87h-.65a.67.67,0,0,0-.28-.48,1.25,1.25,0,0,0-1.26,0,.52.52,0,0,0-.24.45c0,.28.24.48.71.6l.65.16a2.1,2.1,0,0,1,.9.42.94.94,0,0,1,.26.71,1.07,1.07,0,0,1-.47.89,2,2,0,0,1-1.2.34,1.88,1.88,0,0,1-1.14-.33,1.22,1.22,0,0,1-.5-.89h.69q.1.66,1,.66a1.26,1.26,0,0,0,.69-.17.51.51,0,0,0,.25-.45.46.46,0,0,0-.15-.36,1.22,1.22,0,0,0-.51-.22l-.74-.2c-.74-.19-1.1-.56-1.1-1.13A1,1,0,0,1,358.42,279.47Z"/><path class="cls-22" d="M362.79,278.35a.44.44,0,0,1-.12-.3.43.43,0,0,1,.12-.31.46.46,0,0,1,.31-.13.42.42,0,0,1,.3.13.4.4,0,0,1,.13.31.41.41,0,0,1-.13.3.42.42,0,0,1-.3.13A.46.46,0,0,1,362.79,278.35Zm0,.81h.68v4.24h-.68Z"/><path class="cls-22" d="M366.12,278.21v1h.82v.57h-.82v2.54c0,.38.17.56.52.56a1.32,1.32,0,0,0,.3,0v.58a1.68,1.68,0,0,1-.44,0,1.1,1.1,0,0,1-.82-.26,1.24,1.24,0,0,1-.25-.87v-2.57h-.59v-.57h.59v-1Z"/><path class="cls-22" d="M371.43,283.09a1.13,1.13,0,0,1-.39-.9,1,1,0,0,1,.41-.86,2.09,2.09,0,0,1,1.18-.36l1.18-.07v-.35a.75.75,0,0,0-.25-.61,1.09,1.09,0,0,0-.72-.21,1.05,1.05,0,0,0-.62.18.77.77,0,0,0-.32.47h-.65a1.19,1.19,0,0,1,.47-.9,1.8,1.8,0,0,1,1.13-.36,1.87,1.87,0,0,1,1.2.37,1.23,1.23,0,0,1,.45,1v2.91h-.65v-.74h0a1.29,1.29,0,0,1-.55.56,1.58,1.58,0,0,1-.81.21A1.53,1.53,0,0,1,371.43,283.09Zm2.05-.55a1,1,0,0,0,.33-.75v-.35l-1.1.07c-.65,0-1,.27-1,.68a.57.57,0,0,0,.24.48,1.1,1.1,0,0,0,.64.17A1.27,1.27,0,0,0,373.48,282.54Z"/><path class="cls-22" d="M376.21,279.16h.64v.69h0a1.23,1.23,0,0,1,.47-.54,1.47,1.47,0,0,1,.73-.19,1.16,1.16,0,0,1,1.19.8h0a1.4,1.4,0,0,1,.54-.59,1.51,1.51,0,0,1,.79-.21,1.29,1.29,0,0,1,1.38,1.39v2.89h-.68v-2.74a1,1,0,0,0-.23-.68.86.86,0,0,0-.66-.25,1,1,0,0,0-.7.28,1,1,0,0,0-.27.72v2.67h-.69v-2.82a.83.83,0,0,0-.24-.62.9.9,0,0,0-.64-.23.92.92,0,0,0-.7.3,1,1,0,0,0-.28.74v2.63h-.68Z"/><path class="cls-22" d="M387.18,282.19a1.29,1.29,0,0,1-.58.89,1.93,1.93,0,0,1-1.17.35,1.83,1.83,0,0,1-1.42-.57,2.63,2.63,0,0,1,0-3.14,1.75,1.75,0,0,1,1.39-.6,1.71,1.71,0,0,1,1.34.56,2.21,2.21,0,0,1,.49,1.52v.27h-3v0a1.33,1.33,0,0,0,.35,1,1.18,1.18,0,0,0,.9.36,1.36,1.36,0,0,0,.69-.17.87.87,0,0,0,.38-.47Zm-2.62-2.14a1.34,1.34,0,0,0-.37.87h2.33a1.25,1.25,0,0,0-.32-.87,1.08,1.08,0,0,0-.82-.33A1.11,1.11,0,0,0,384.56,280.05Z"/><path class="cls-22" d="M389.66,278.21v1h.83v.57h-.83v2.54c0,.38.18.56.53.56a1.19,1.19,0,0,0,.29,0v.58a1.55,1.55,0,0,1-.43,0,1.13,1.13,0,0,1-.83-.26,1.29,1.29,0,0,1-.24-.87v-2.57h-.59v-.57H389v-1Z"/><path class="cls-22" d="M397.61,280.54a.93.93,0,0,0-.34-.57,1.17,1.17,0,0,0-.76-.24,1.09,1.09,0,0,0-.9.43,1.7,1.7,0,0,0-.34,1.12,1.66,1.66,0,0,0,.35,1.13,1.08,1.08,0,0,0,.9.42,1,1,0,0,0,1.1-.79h.67a1.53,1.53,0,0,1-.57,1,1.94,1.94,0,0,1-1.21.38,1.82,1.82,0,0,1-1.4-.57,2.24,2.24,0,0,1-.54-1.58,2.29,2.29,0,0,1,.53-1.57,1.82,1.82,0,0,1,1.41-.59,1.85,1.85,0,0,1,1.24.43,1.48,1.48,0,0,1,.53,1Z"/><path class="cls-22" d="M400.07,282.85a2.59,2.59,0,0,1,0-3.14,1.83,1.83,0,0,1,1.42-.59,1.85,1.85,0,0,1,1.43.59,2.59,2.59,0,0,1,0,3.14,1.84,1.84,0,0,1-1.43.58A1.82,1.82,0,0,1,400.07,282.85Zm2.35-.43a1.8,1.8,0,0,0,.33-1.14,1.76,1.76,0,0,0-.33-1.14,1.25,1.25,0,0,0-1.85,0,1.76,1.76,0,0,0-.33,1.14,1.8,1.8,0,0,0,.33,1.14,1.25,1.25,0,0,0,1.85,0Z"/><path class="cls-22" d="M405,279.16h.64v.69h0a1.66,1.66,0,0,1,2.48-.31,1.58,1.58,0,0,1,.41,1.14v2.72h-.68v-2.6a1.07,1.07,0,0,0-.27-.79,1,1,0,0,0-.76-.28,1.11,1.11,0,0,0-.84.33,1.22,1.22,0,0,0-.32.88v2.46H405Z"/><path class="cls-22" d="M410.6,279.47a1.77,1.77,0,0,1,1.13-.34,1.68,1.68,0,0,1,1.08.34,1.15,1.15,0,0,1,.46.87h-.66a.66.66,0,0,0-.27-.48,1.15,1.15,0,0,0-.64-.17,1.09,1.09,0,0,0-.63.17.52.52,0,0,0-.24.45q0,.42.72.6l.64.16a2,2,0,0,1,.9.42.9.9,0,0,1,.26.71,1,1,0,0,1-.47.89,2,2,0,0,1-1.2.34,1.85,1.85,0,0,1-1.13-.33,1.23,1.23,0,0,1-.51-.89h.69c.07.44.41.66,1,.66a1.28,1.28,0,0,0,.69-.17.53.53,0,0,0,.25-.45.46.46,0,0,0-.15-.36,1.22,1.22,0,0,0-.51-.22l-.75-.2c-.73-.19-1.1-.56-1.1-1.13A1.07,1.07,0,0,1,410.6,279.47Z"/><path class="cls-22" d="M418.39,282.19a1.32,1.32,0,0,1-.58.89,1.94,1.94,0,0,1-1.18.35,1.86,1.86,0,0,1-1.42-.57,2.63,2.63,0,0,1,0-3.14,1.77,1.77,0,0,1,1.39-.6,1.7,1.7,0,0,1,1.34.56,2.21,2.21,0,0,1,.5,1.52v.27h-3v0a1.33,1.33,0,0,0,.34,1,1.2,1.2,0,0,0,.91.36,1.41,1.41,0,0,0,.69-.17.85.85,0,0,0,.37-.47Zm-2.63-2.14a1.28,1.28,0,0,0-.36.87h2.33a1.26,1.26,0,0,0-.33-.87,1.06,1.06,0,0,0-.81-.33A1.13,1.13,0,0,0,415.76,280.05Z"/><path class="cls-22" d="M422.79,280.54a.89.89,0,0,0-.34-.57,1.17,1.17,0,0,0-.76-.24,1.06,1.06,0,0,0-.89.43,2,2,0,0,0,0,2.25,1.1,1.1,0,0,0,.9.42,1,1,0,0,0,1.1-.79h.67a1.53,1.53,0,0,1-.57,1,1.91,1.91,0,0,1-1.2.38,1.82,1.82,0,0,1-1.41-.57,2.61,2.61,0,0,1,0-3.15,1.8,1.8,0,0,1,1.4-.59,1.9,1.9,0,0,1,1.25.43,1.51,1.51,0,0,1,.52,1Z"/><path class="cls-22" d="M424.9,281.48v-.64h2.58v.64Z"/><path class="cls-22" d="M272,287.86v.95h.82v.57H272v2.54c0,.38.17.57.52.57l.3,0v.58a2.44,2.44,0,0,1-.44,0,1.09,1.09,0,0,1-.82-.26,1.22,1.22,0,0,1-.25-.87v-2.57h-.59v-.57h.59v-.95Z"/><path class="cls-22" d="M277.79,291.84a1.29,1.29,0,0,1-.58.89,1.94,1.94,0,0,1-1.17.36,1.8,1.8,0,0,1-1.42-.58,2.23,2.23,0,0,1-.52-1.56,2.28,2.28,0,0,1,.52-1.58,1.74,1.74,0,0,1,1.39-.59,1.71,1.71,0,0,1,1.34.55,2.22,2.22,0,0,1,.49,1.52v.27h-3v0a1.37,1.37,0,0,0,.35,1,1.18,1.18,0,0,0,.9.36,1.27,1.27,0,0,0,.69-.18.8.8,0,0,0,.38-.47Zm-2.62-2.13a1.33,1.33,0,0,0-.37.86h2.33a1.2,1.2,0,0,0-.32-.86,1.08,1.08,0,0,0-.82-.33A1.11,1.11,0,0,0,275.17,289.71Z"/><path class="cls-22" d="M280.28,287.86v.95h.82v.57h-.82v2.54c0,.38.17.57.52.57l.3,0v.58a2.44,2.44,0,0,1-.44,0,1.09,1.09,0,0,1-.82-.26,1.22,1.22,0,0,1-.25-.87v-2.57H279v-.57h.59v-.95Z"/><path class="cls-22" d="M286.19,293.05h-.64v-.7h0a1.65,1.65,0,0,1-2.48.32,1.58,1.58,0,0,1-.41-1.14v-2.72h.69v2.6a1.11,1.11,0,0,0,.26.79,1,1,0,0,0,.77.28,1.1,1.1,0,0,0,.83-.33,1.22,1.22,0,0,0,.32-.88v-2.46h.68Z"/><path class="cls-22" d="M291.41,291.84a1.29,1.29,0,0,1-.58.89,1.94,1.94,0,0,1-1.17.36,1.8,1.8,0,0,1-1.42-.58,2.23,2.23,0,0,1-.52-1.56,2.28,2.28,0,0,1,.52-1.58,1.74,1.74,0,0,1,1.39-.59,1.71,1.71,0,0,1,1.34.55,2.22,2.22,0,0,1,.49,1.52v.27h-3v0a1.37,1.37,0,0,0,.35,1,1.18,1.18,0,0,0,.9.36,1.27,1.27,0,0,0,.69-.18.8.8,0,0,0,.38-.47Zm-2.62-2.13a1.33,1.33,0,0,0-.37.86h2.33a1.2,1.2,0,0,0-.32-.86,1.08,1.08,0,0,0-.82-.33A1.11,1.11,0,0,0,288.79,289.71Z"/><path class="cls-22" d="M293,288.81h.64v.69h0A.91.91,0,0,1,294,289a1.11,1.11,0,0,1,.65-.19,1.06,1.06,0,0,1,.27,0v.68a1.06,1.06,0,0,0-.36-.05.84.84,0,0,0-.66.28,1,1,0,0,0-.25.72v2.62H293Z"/><path class="cls-22" d="M299.27,292.75a1.15,1.15,0,0,1-.39-.91,1,1,0,0,1,.41-.85,2.08,2.08,0,0,1,1.17-.36l1.19-.08v-.35a.73.73,0,0,0-.25-.6,1.1,1.1,0,0,0-.72-.22,1,1,0,0,0-.62.18.76.76,0,0,0-.32.48h-.65a1.13,1.13,0,0,1,.47-.9,1.78,1.78,0,0,1,1.13-.36,1.87,1.87,0,0,1,1.2.36,1.27,1.27,0,0,1,.44,1v2.91h-.64v-.74h0a1.31,1.31,0,0,1-.55.57,1.63,1.63,0,0,1-.81.21A1.57,1.57,0,0,1,299.27,292.75Zm2-.55a1,1,0,0,0,.34-.76v-.34l-1.11.07c-.64,0-1,.26-1,.68a.57.57,0,0,0,.24.47,1,1,0,0,0,.63.18A1.23,1.23,0,0,0,301.31,292.2Z"/><path class="cls-22" d="M304.34,292.5a2.7,2.7,0,0,1,0-3.13,1.62,1.62,0,0,1,1.3-.59,1.42,1.42,0,0,1,1.35.72h0v-2.37h.69v5.92H307v-.72h0a1.44,1.44,0,0,1-1.37.76A1.67,1.67,0,0,1,304.34,292.5Zm.54-2.69a2,2,0,0,0,0,2.25,1.08,1.08,0,0,0,.89.42,1.09,1.09,0,0,0,.9-.43,1.78,1.78,0,0,0,.34-1.12,1.8,1.8,0,0,0-.34-1.12,1.12,1.12,0,0,0-.9-.43A1.09,1.09,0,0,0,304.88,289.81Z"/><path class="cls-22" d="M309.54,288a.38.38,0,0,1-.13-.3.42.42,0,0,1,.13-.31.41.41,0,0,1,.3-.12.41.41,0,0,1,.43.43.41.41,0,0,1-.12.3.42.42,0,0,1-.31.13A.38.38,0,0,1,309.54,288Zm0,.81h.68v4.24h-.68Z"/><path class="cls-22" d="M315.3,289.37a2.7,2.7,0,0,1,0,3.13,1.62,1.62,0,0,1-1.3.59,1.43,1.43,0,0,1-1.35-.73h0v2.1H312v-5.65h.65v.69h0a1.34,1.34,0,0,1,.55-.53,1.74,1.74,0,0,1,.82-.19A1.61,1.61,0,0,1,315.3,289.37Zm-.54,2.69a2,2,0,0,0,0-2.25,1.15,1.15,0,0,0-1.79,0,1.74,1.74,0,0,0-.34,1.12,1.72,1.72,0,0,0,.34,1.12,1.07,1.07,0,0,0,.89.43A1.11,1.11,0,0,0,314.76,292.06Z"/><path class="cls-22" d="M317.4,288a.42.42,0,0,1-.13-.3.46.46,0,0,1,.13-.31.44.44,0,0,1,.3-.12.43.43,0,0,1,.44.43.38.38,0,0,1-.13.3.39.39,0,0,1-.31.13A.41.41,0,0,1,317.4,288Zm0,.81h.69v4.24h-.69Z"/><path class="cls-22" d="M320.19,289.12a1.74,1.74,0,0,1,1.12-.34,1.66,1.66,0,0,1,1.09.35,1.08,1.08,0,0,1,.45.86h-.65a.6.6,0,0,0-.28-.47,1,1,0,0,0-.63-.18,1.09,1.09,0,0,0-.63.17.54.54,0,0,0-.24.45c0,.28.24.48.71.6l.65.16a2,2,0,0,1,.9.42,1,1,0,0,1,.26.71,1.06,1.06,0,0,1-.47.89,2,2,0,0,1-1.2.35,1.82,1.82,0,0,1-1.14-.34,1.2,1.2,0,0,1-.5-.89h.69q.1.66,1,.66a1.18,1.18,0,0,0,.69-.17.51.51,0,0,0,.25-.45.43.43,0,0,0-.15-.35,1.22,1.22,0,0,0-.51-.23l-.74-.19c-.74-.19-1.1-.57-1.1-1.13A1,1,0,0,1,320.19,289.12Z"/><path class="cls-22" d="M327.32,290.19a.93.93,0,0,0-.35-.57,1.16,1.16,0,0,0-.75-.24,1.1,1.1,0,0,0-.9.43,1.72,1.72,0,0,0-.35,1.12,1.74,1.74,0,0,0,.35,1.14,1.13,1.13,0,0,0,.9.41,1,1,0,0,0,1.1-.79H328a1.43,1.43,0,0,1-.57,1,1.84,1.84,0,0,1-1.2.39,1.8,1.8,0,0,1-1.41-.58,2.61,2.61,0,0,1,0-3.15,1.79,1.79,0,0,1,1.4-.58,1.83,1.83,0,0,1,1.25.43,1.48,1.48,0,0,1,.53,1Z"/><path class="cls-22" d="M329.53,288a.42.42,0,0,1-.13-.3.46.46,0,0,1,.13-.31.45.45,0,0,1,.31-.12.41.41,0,0,1,.3.12.42.42,0,0,1,.13.31.44.44,0,0,1-.43.43A.42.42,0,0,1,329.53,288Zm0,.81h.69v4.24h-.69Z"/><path class="cls-22" d="M332,288.81h.64v.69h0a1.67,1.67,0,0,1,2.48-.3,1.54,1.54,0,0,1,.41,1.14v2.71h-.68v-2.6a1.08,1.08,0,0,0-.27-.79,1,1,0,0,0-.76-.28,1.11,1.11,0,0,0-.84.33,1.24,1.24,0,0,0-.32.88v2.46H332Z"/><path class="cls-22" d="M337.74,294.24a1.18,1.18,0,0,1-.56-.85h.71a.69.69,0,0,0,.37.42,1.43,1.43,0,0,0,.71.16,1.34,1.34,0,0,0,.88-.27.87.87,0,0,0,.32-.71v-.67h0a1.44,1.44,0,0,1-1.36.73,1.61,1.61,0,0,1-1.29-.59,2.65,2.65,0,0,1,0-3.1,1.63,1.63,0,0,1,1.31-.58,1.51,1.51,0,0,1,1.38.72h0v-.69h.65v4.12a1.51,1.51,0,0,1-.51,1.2,2.09,2.09,0,0,1-1.4.43A2.07,2.07,0,0,1,337.74,294.24Zm2.08-2.22a1.92,1.92,0,0,0,0-2.21,1.09,1.09,0,0,0-.9-.43,1.06,1.06,0,0,0-.88.42,1.7,1.7,0,0,0-.34,1.12A1.65,1.65,0,0,0,338,292a1.06,1.06,0,0,0,.88.42A1.08,1.08,0,0,0,339.82,292Z"/><path class="cls-22" d="M348.8,291.84a1.32,1.32,0,0,1-.58.89,1.94,1.94,0,0,1-1.17.36,1.8,1.8,0,0,1-1.42-.58,2.23,2.23,0,0,1-.52-1.56,2.28,2.28,0,0,1,.52-1.58,1.74,1.74,0,0,1,1.38-.59,1.71,1.71,0,0,1,1.35.55,2.22,2.22,0,0,1,.49,1.52v.27h-3v0a1.41,1.41,0,0,0,.34,1,1.2,1.2,0,0,0,.91.36,1.29,1.29,0,0,0,.69-.18.8.8,0,0,0,.38-.47Zm-2.62-2.13a1.33,1.33,0,0,0-.37.86h2.33a1.3,1.3,0,0,0-.32-.86,1.08,1.08,0,0,0-.82-.33A1.09,1.09,0,0,0,346.18,289.71Z"/><path class="cls-22" d="M350.41,287.13h.69v5.92h-.69Z"/><path class="cls-22" d="M353,288a.38.38,0,0,1-.13-.3.42.42,0,0,1,.13-.31.41.41,0,0,1,.3-.12.41.41,0,0,1,.43.43.41.41,0,0,1-.12.3.42.42,0,0,1-.31.13A.38.38,0,0,1,353,288Zm0,.81h.68v4.24h-.68Z"/><path class="cls-22" d="M356.27,287.86v.95h.82v.57h-.82v2.54c0,.38.17.57.53.57l.29,0v.58a2.44,2.44,0,0,1-.44,0,1.1,1.1,0,0,1-.82-.26,1.27,1.27,0,0,1-.24-.87v-2.57H355v-.57h.59v-.95Z"/><path class="cls-22" d="M361.76,289.12a1.74,1.74,0,0,1,1.12-.34,1.68,1.68,0,0,1,1.09.35,1.08,1.08,0,0,1,.45.86h-.65a.63.63,0,0,0-.28-.47,1,1,0,0,0-.63-.18,1.09,1.09,0,0,0-.63.17.54.54,0,0,0-.24.45c0,.28.24.48.71.6l.65.16a2.1,2.1,0,0,1,.9.42,1,1,0,0,1,.26.71,1.06,1.06,0,0,1-.47.89,2,2,0,0,1-1.2.35,1.82,1.82,0,0,1-1.14-.34,1.2,1.2,0,0,1-.5-.89h.68c.08.44.41.66,1,.66a1.18,1.18,0,0,0,.69-.17.51.51,0,0,0,.25-.45.43.43,0,0,0-.15-.35,1.22,1.22,0,0,0-.51-.23l-.74-.19c-.74-.19-1.1-.57-1.1-1.13A1,1,0,0,1,361.76,289.12Z"/><path class="cls-22" d="M369.54,291.84a1.29,1.29,0,0,1-.58.89,1.94,1.94,0,0,1-1.17.36,1.8,1.8,0,0,1-1.42-.58,2.23,2.23,0,0,1-.52-1.56,2.28,2.28,0,0,1,.52-1.58,1.74,1.74,0,0,1,1.39-.59,1.71,1.71,0,0,1,1.34.55,2.22,2.22,0,0,1,.49,1.52v.27h-3v0a1.37,1.37,0,0,0,.35,1,1.18,1.18,0,0,0,.9.36,1.27,1.27,0,0,0,.69-.18.8.8,0,0,0,.38-.47Zm-2.62-2.13a1.33,1.33,0,0,0-.37.86h2.33a1.2,1.2,0,0,0-.32-.86,1.08,1.08,0,0,0-.82-.33A1.11,1.11,0,0,0,366.92,289.71Z"/><path class="cls-22" d="M371.42,292.5a2.66,2.66,0,0,1,0-3.13,1.58,1.58,0,0,1,1.29-.59,1.42,1.42,0,0,1,1.35.72h0v-2.37h.68v5.92h-.65v-.72h0a1.46,1.46,0,0,1-1.38.76A1.63,1.63,0,0,1,371.42,292.5Zm.53-2.69a2,2,0,0,0,0,2.25,1.1,1.1,0,0,0,.9.42,1.08,1.08,0,0,0,.89-.43,1.72,1.72,0,0,0,.34-1.12,1.74,1.74,0,0,0-.34-1.12,1.15,1.15,0,0,0-1.79,0Z"/><path class="cls-22" d="M379.56,292.5a2.66,2.66,0,0,1,0-3.13,1.58,1.58,0,0,1,1.29-.59,1.42,1.42,0,0,1,1.35.72h0v-2.37h.68v5.92h-.65v-.72h0a1.45,1.45,0,0,1-1.37.76A1.65,1.65,0,0,1,379.56,292.5Zm.53-2.69a2,2,0,0,0,0,2.25,1.11,1.11,0,0,0,.9.42,1.08,1.08,0,0,0,.89-.43,1.72,1.72,0,0,0,.34-1.12,1.74,1.74,0,0,0-.34-1.12,1.15,1.15,0,0,0-1.79,0Z"/><path class="cls-22" d="M384.75,288a.38.38,0,0,1-.13-.3.42.42,0,0,1,.13-.31.41.41,0,0,1,.3-.12.41.41,0,0,1,.43.43.41.41,0,0,1-.12.3.42.42,0,0,1-.31.13A.38.38,0,0,1,384.75,288Zm0,.81h.68v4.24h-.68Z"/><path class="cls-22" d="M387.36,292.75a1.15,1.15,0,0,1-.39-.91,1,1,0,0,1,.41-.85,2.12,2.12,0,0,1,1.18-.36l1.18-.08v-.35a.73.73,0,0,0-.25-.6,1.07,1.07,0,0,0-.72-.22,1.05,1.05,0,0,0-.62.18.74.74,0,0,0-.31.48h-.66a1.14,1.14,0,0,1,.48-.9,1.75,1.75,0,0,1,1.12-.36,1.87,1.87,0,0,1,1.2.36,1.24,1.24,0,0,1,.45,1v2.91h-.65v-.74h0a1.31,1.31,0,0,1-.55.57,1.72,1.72,0,0,1-1.85-.13Zm2.05-.55a1,1,0,0,0,.33-.76v-.34l-1.1.07c-.65,0-1,.26-1,.68a.57.57,0,0,0,.24.47,1,1,0,0,0,.64.18A1.27,1.27,0,0,0,389.41,292.2Z"/><path class="cls-22" d="M392.14,288.81h.64v.69h0a1.2,1.2,0,0,1,.47-.53,1.37,1.37,0,0,1,.73-.19,1.15,1.15,0,0,1,1.19.8h0a1.34,1.34,0,0,1,.54-.59,1.52,1.52,0,0,1,.8-.21,1.28,1.28,0,0,1,1.37,1.38v2.89h-.68v-2.73a1,1,0,0,0-.23-.69.9.9,0,0,0-.66-.25.93.93,0,0,0-.7.29,1,1,0,0,0-.27.72v2.66h-.68v-2.82a.81.81,0,0,0-.24-.61.89.89,0,0,0-.64-.24.93.93,0,0,0-.71.3,1.08,1.08,0,0,0-.28.74v2.63h-.68Z"/><path class="cls-22" d="M402.36,288.81H403v.69h0a1.44,1.44,0,0,1,1.38-.72,1.46,1.46,0,0,1,1.1.42,1.54,1.54,0,0,1,.41,1.14v2.71h-.69v-2.6a1.12,1.12,0,0,0-.26-.79,1,1,0,0,0-.77-.28,1.1,1.1,0,0,0-.83.33,1.19,1.19,0,0,0-.32.88v2.46h-.68Z"/><path class="cls-22" d="M407.94,292.5a2.59,2.59,0,0,1,0-3.14,2,2,0,0,1,2.84,0,2.59,2.59,0,0,1,0,3.14,2,2,0,0,1-2.84,0Zm2.34-.43a1.71,1.71,0,0,0,.34-1.14,1.72,1.72,0,0,0-.34-1.14,1.12,1.12,0,0,0-.92-.41,1.13,1.13,0,0,0-.92.41,1.8,1.8,0,0,0-.34,1.14,1.76,1.76,0,0,0,.34,1.14,1.13,1.13,0,0,0,.92.41A1.12,1.12,0,0,0,410.28,292.07Z"/><path class="cls-22" d="M412.84,288.81h.64v.69h0a1.67,1.67,0,0,1,2.48-.3,1.54,1.54,0,0,1,.41,1.14v2.71h-.69v-2.6a1.08,1.08,0,0,0-.26-.79,1,1,0,0,0-.76-.28,1.11,1.11,0,0,0-.84.33,1.24,1.24,0,0,0-.32.88v2.46h-.68Z"/><path class="cls-22" d="M421.63,293.05H421v-.7h0a1.67,1.67,0,0,1-2.49.32,1.57,1.57,0,0,1-.4-1.14v-2.72h.68v2.6a1.07,1.07,0,0,0,.27.79,1,1,0,0,0,.76.28,1.11,1.11,0,0,0,.84-.33,1.22,1.22,0,0,0,.32-.88v-2.46h.68Z"/><path class="cls-22" d="M423.36,288.81H424v.69h0a1.2,1.2,0,0,1,.47-.53,1.4,1.4,0,0,1,.73-.19,1.14,1.14,0,0,1,1.19.8h0A1.32,1.32,0,0,1,427,289a1.54,1.54,0,0,1,.8-.21,1.34,1.34,0,0,1,1,.37,1.37,1.37,0,0,1,.38,1v2.89h-.69v-2.73a.93.93,0,0,0-.23-.69.9.9,0,0,0-.66-.25.91.91,0,0,0-.69.29,1,1,0,0,0-.28.72v2.66h-.68v-2.82a.81.81,0,0,0-.24-.61.88.88,0,0,0-.64-.24.93.93,0,0,0-.71.3,1.07,1.07,0,0,0-.27.74v2.63h-.69Z"/><path class="cls-22" d="M430.82,291.13v-.63h2.58v.63Z"/><path class="cls-4" d="M381,308.09H318.17a12.23,12.23,0,0,0,0,24.46H381a12.23,12.23,0,0,0,0-24.46Zm0,23.59H318.17a11.37,11.37,0,1,1,0-22.73H381a11.37,11.37,0,0,1,0,22.73Z"/><text class="cls-32" transform="translate(311.63 324.13)">LEARN MORE</text><text class="cls-33" transform="translate(91.68 478.32)">FOL<tspan class="cls-34" x="18.98" y="0">L</tspan><tspan class="cls-35" x="24.12" y="0">O</tspan><tspan x="31.6" y="0">W ME</tspan></text><text class="cls-36" transform="translate(248.89 205.85)">HOME</text><text class="cls-36" transform="translate(296.47 205.85)">ABOUT US</text><text class="cls-36" transform="translate(402.51 205.85)">CON<tspan class="cls-37" x="22.44" y="0">T</tspan><tspan class="cls-38" x="27.95" y="0">A</tspan><tspan class="cls-39" x="34.55" y="0">C</tspan><tspan x="41.54" y="0">T</tspan></text><text class="cls-40" transform="translate(362.39 205.85)">B<tspan class="cls-41" x="6.62" y="0">L</tspan><tspan class="cls-42" x="12.15" y="0">OG</tspan></text><path class="cls-22" d="M93.53,197.2a2.43,2.43,0,0,0,0-3.44h0a2.44,2.44,0,0,0-2.14-.68h-.22l-.07,0h0l-.12,0,0,0,0,0,0,0,0,0-.05,0,0,0-.07,0,0,0-.09.05,0,0-.06,0,0,0-.06.05,0,0-.06.05,0,0a.6.6,0,0,1-.08.08h0l-6.83,6.84a2.17,2.17,0,0,0,0,3.09l6.83,6.84a2.46,2.46,0,0,0,2.68.52h0l.13-.07h0a1.65,1.65,0,0,0,.25-.15h0l.1-.07,0,0,.08-.06,0,0,.11-.1h0l.17-.19a1.33,1.33,0,0,0,.14-.19,2.82,2.82,0,0,0,.22-.42,2.09,2.09,0,0,0,.08-.23l0-.11a2.25,2.25,0,0,0,.07-.58,1.77,1.77,0,0,0,0-.23,2.47,2.47,0,0,0-.7-1.49l-4-4h0l-.32-.32a.9.9,0,0,1,0-1.27Z"/><path class="cls-22" d="M106.74,199.69h0a2.58,2.58,0,0,0-1.2.31l-3.6-3.6c0-.11.07-.22.1-.33a2.62,2.62,0,0,0,.07-.57h0a.49.49,0,0,0,0-.12v-.16s0-.05,0-.07v-.05a.2.2,0,0,0,0-.07v0s0-.05,0-.07v0a.14.14,0,0,1,0-.06l0-.05,0-.1s0,0,0,0l0-.05,0-.06v0l0-.06,0,0a.16.16,0,0,0,0-.07v0l0-.08h0a2.48,2.48,0,0,0-2.09-1.15,2.45,2.45,0,0,0,0,4.9,2.39,2.39,0,0,0,1.17-.3l3.63,3.63a2.42,2.42,0,0,0,0,1.73l-1.88,1.88-1.75,1.74a2.64,2.64,0,0,0-.7-.25,2.42,2.42,0,0,0-.47,0h0a2.45,2.45,0,0,0-1.51,4.38,3.87,3.87,0,0,0,.43.27l.14.06.05,0a2.43,2.43,0,0,0,.89.17,2.46,2.46,0,0,0,2.46-2.45,2.66,2.66,0,0,0-.17-.9l3.6-3.61a2.47,2.47,0,0,0,1.17.32h0a2.46,2.46,0,0,0,0-4.91Z"/><path class="cls-22" d="M142.24,199.27H139.5a.57.57,0,0,0-.58.58.58.58,0,0,0,.58.58h2.76a1.78,1.78,0,0,1,1.79,1.78,1.74,1.74,0,0,1-1.75,1.71h-2.8a.57.57,0,0,0-.57.58.58.58,0,0,0,.57.58h2.8a2.91,2.91,0,0,0,2.91-2.85A3,3,0,0,0,142.24,199.27Z"/><path class="cls-22" d="M121.49,199.28a.54.54,0,0,0-.54.53v2.58a1.61,1.61,0,0,1-1.57,1.61,1.63,1.63,0,0,1-1.63-1.42v-.05c0-.3,0-2.72,0-2.72a.54.54,0,0,0-.38-.51.47.47,0,0,0-.17,0,.54.54,0,0,0-.54.53s0,2.68,0,2.76a1.61,1.61,0,0,1-1.56,1.44,1.64,1.64,0,0,1-1.65-1.64V199.8a.54.54,0,0,0-1.07,0v2.54a2.74,2.74,0,0,0,2.73,2.74,2.7,2.7,0,0,0,2.1-1.08,2.66,2.66,0,0,0,4.8-1.61v-2.58A.53.53,0,0,0,121.49,199.28Z"/><path class="cls-22" d="M137.36,201.9a2.69,2.69,0,0,0-2.69-2.63h-2.58a.54.54,0,0,0,0,1.07h2.58a1.61,1.61,0,0,1,1.61,1.57,1.65,1.65,0,0,1-1.42,1.64h-2.77a.54.54,0,0,0-.51.38.48.48,0,0,0,0,.18.53.53,0,0,0,.53.53s2.68,0,2.76,0a1.61,1.61,0,0,1,1.44,1.57,1.63,1.63,0,0,1-1.64,1.64h-2.56a.54.54,0,0,0-.53.54.53.53,0,0,0,.53.53h2.54a2.74,2.74,0,0,0,2.74-2.73,2.7,2.7,0,0,0-1.08-2.1A2.69,2.69,0,0,0,137.36,201.9Z"/><path class="cls-22" d="M126.44,200.34H129a.54.54,0,0,0,.53-.54.53.53,0,0,0-.53-.53h-2.53a2.72,2.72,0,0,0-2.74,2.73,2.64,2.64,0,0,0,1.08,2.1,2.64,2.64,0,0,0-1.08,2.17,2.67,2.67,0,0,0,2.68,2.63H129a.54.54,0,1,0,0-1.07H126.4a1.61,1.61,0,0,1-1.61-1.57,1.63,1.63,0,0,1,1.42-1.63H129a.54.54,0,0,0,.51-.38.47.47,0,0,0,0-.17.53.53,0,0,0-.53-.54s-2.68,0-2.76,0a1.61,1.61,0,0,1-1.44-1.56A1.64,1.64,0,0,1,126.44,200.34Z"/><path class="cls-22" d="M151.6,199.28a.54.54,0,0,0-.54.53v2.58a1.61,1.61,0,0,1-1.57,1.61,1.64,1.64,0,0,1-1.65-1.64V199.8a.53.53,0,0,0-.53-.53.54.54,0,0,0-.54.53v2.54a2.74,2.74,0,0,0,2.73,2.74,2.69,2.69,0,0,0,2.63-2.69v-2.58A.53.53,0,0,0,151.6,199.28Z"/><polygon class="cls-22" points="107.33 195.38 106.55 195.38 106.55 193.2 105.14 193.2 105.14 193.7 105.89 193.7 105.89 195.38 105.04 195.38 105.04 195.89 107.33 195.89 107.33 195.38"/><path class="cls-22" d="M105.88,192.76a.42.42,0,0,0,.14.09.47.47,0,0,0,.17,0,.41.41,0,0,0,.16,0,.42.42,0,0,0,.14-.09l.09-.13a.47.47,0,0,0,0-.17.45.45,0,0,0,0-.16.73.73,0,0,0-.09-.13.71.71,0,0,0-.14-.1.41.41,0,0,0-.16,0,.47.47,0,0,0-.17,0,.71.71,0,0,0-.14.1.41.41,0,0,0-.08.13.32.32,0,0,0,0,.16.33.33,0,0,0,0,.17A.57.57,0,0,0,105.88,192.76Z"/><path class="cls-22" d="M108.77,192.27h-.35v0a.89.89,0,0,1-.89.89v.5h.55V195a.94.94,0,0,0,.94.94h.29v-.69H109a.25.25,0,0,1-.25-.25V193.7h.54v-.5h-.54Z"/></g></g></svg>